Montserrat-Bold.ufo
<glyph name="exclam" format="2">
  <advance width="314"/>
  <unicode hex="0021"/>
  <outline>
    <contour>
      <point x="67" y="268" type="line"/>
      <point x="247" y="268" type="line"/>
      <point x="292" y="700" type="line"/>
      <point x="22" y="700" type="line"/>
    </contour>
    <contour>
      <point x="157" y="-10" type="curve" smooth="yes"/>
      <point x="235" y="-10"/>
      <point x="289" y="44"/>
      <point x="289" y="110" type="curve" smooth="yes"/>
      <point x="289" y="177"/>
      <point x="235" y="228"/>
      <point x="157" y="228" type="curve" smooth="yes"/>
      <point x="79" y="228"/>
      <point x="25" y="177"/>
      <point x="25" y="110" type="curve" smooth="yes"/>
      <point x="25" y="44"/>
      <point x="79" y="-10"/>
    </contour>
  </outline>
</glyph>
<glyph name="numbersign" format="2">
  <advance width="740"/>
  <unicode hex="0023"/>
  <outline>
    <contour>
      <point x="376" y="0" type="line"/>
      <point x="536" y="0" type="line"/>
      <point x="623" y="700" type="line"/>
      <point x="463" y="700" type="line"/>
    </contour>
    <contour>
      <point x="13" y="137" type="line"/>
      <point x="693" y="137" type="line"/>
      <point x="693" y="287" type="line"/>
      <point x="13" y="287" type="line"/>
    </contour>
    <contour>
      <point x="117" y="0" type="line"/>
      <point x="277" y="0" type="line"/>
      <point x="364" y="700" type="line"/>
      <point x="204" y="700" type="line"/>
    </contour>
    <contour>
      <point x="47" y="413" type="line"/>
      <point x="727" y="413" type="line"/>
      <point x="727" y="563" type="line"/>
      <point x="47" y="563" type="line"/>
    </contour>
  </outline>
</glyph>
<glyph name="quotesingle" format="2">
  <advance width="254"/>
  <unicode hex="0027"/>
  <outline>
    <contour>
      <point x="47" y="400" type="line"/>
      <point x="207" y="400" type="line"/>
      <point x="222" y="700" type="line"/>
      <point x="32" y="700" type="line"/>
    </contour>
  </outline>
</glyph>
<glyph name="plus" format="2">
  <advance width="620"/>
  <unicode hex="002B"/>
  <outline>
    <contour>
      <point x="220" y="105" type="line"/>
      <point x="400" y="105" type="line"/>
      <point x="400" y="595" type="line"/>
      <point x="220" y="595" type="line"/>
    </contour>
    <contour>
      <point x="55" y="265" type="line"/>
      <point x="565" y="265" type="line"/>
      <point x="565" y="435" type="line"/>
      <point x="55" y="435" type="line"/>
    </contour>
  </outline>
</glyph>
<glyph name="period" format="2">
  <advance width="304"/>
  <unicode hex="002E"/>
  <outline>
    <contour>
      <point x="152" y="-10" type="curve" smooth="yes"/>
      <point x="227" y="-10"/>
      <point x="284" y="44"/>
      <point x="284" y="120" type="curve" smooth="yes"/>
      <point x="284" y="197"/>
      <point x="227" y="248"/>
      <point x="152" y="248" type="curve" smooth="yes"/>
      <point x="77" y="248"/>
      <point x="20" y="197"/>
      <point x="20" y="120" type="curve" smooth="yes"/>
      <point x="20" y="44"/>
      <point x="77" y="-10"/>
    </contour>
  </outline>
</glyph>
<glyph name="zero" format="2">
  <advance width="692"/>
  <unicode hex="0030"/>
  <outline>
    <contour>
      <point x="346" y="-16" type="curve" smooth="yes"/>
      <point x="531" y="-16"/>
      <point x="663" y="118"/>
      <point x="663" y="350" type="curve" smooth="yes"/>
      <point x="663" y="582"/>
      <point x="531" y="716"/>
      <point x="346" y="716" type="curve" smooth="yes"/>
      <point x="161" y="716"/>
      <point x="29" y="582"/>
      <point x="29" y="350" type="curve" smooth="yes"/>
      <point x="29" y="118"/>
      <point x="161" y="-16"/>
    </contour>
    <contour>
      <point x="346" y="173" type="curve" smooth="yes"/>
      <point x="300" y="173"/>
      <point x="266" y="215"/>
      <point x="266" y="350" type="curve" smooth="yes"/>
      <point x="266" y="485"/>
      <point x="300" y="527"/>
      <point x="346" y="527" type="curve" smooth="yes"/>
      <point x="392" y="527"/>
      <point x="426" y="485"/>
      <point x="426" y="350" type="curve" smooth="yes"/>
      <point x="426" y="215"/>
      <point x="392" y="173"/>
    </contour>
  </outline>
</glyph>
<glyph name="one" format="2">
  <advance width="418"/>
  <unicode hex="0031"/>
  <outline>
    <contour>
      <point x="125" y="0" type="line"/>
      <point x="361" y="0" type="line"/>
      <point x="361" y="700" type="line"/>
      <point x="5" y="700" type="line"/>
      <point x="5" y="522" type="line"/>
      <point x="226" y="522" type="line"/>
      <point x="125" y="618" type="line"/>
    </contour>
  </outline>
</glyph>
<glyph name="five" format="2">
  <advance width="619"/>
  <unicode hex="0035"/>
  <guideline x="287" y="483" angle="84.8651"/>
  <outline>
    <contour>
      <point x="281" y="-16" type="curve" smooth="yes"/>
      <point x="505" y="-16"/>
      <point x="601" y="105"/>
      <point x="601" y="230" type="curve" smooth="yes"/>
      <point x="601" y="354"/>
      <point x="522" y="453"/>
      <point x="315" y="453" type="curve" smooth="yes"/>
      <point x="152" y="453" type="line"/>
      <point x="271" y="352" type="line"/>
      <point x="292" y="623" type="line"/>
      <point x="173" y="522" type="line"/>
      <point x="555" y="522" type="line"/>
      <point x="555" y="700" type="line"/>
      <point x="90" y="700" type="line"/>
      <point x="55" y="275" type="line"/>
      <point x="258" y="275" type="line" smooth="yes"/>
      <point x="343" y="275"/>
      <point x="364" y="255"/>
      <point x="364" y="225" type="curve" smooth="yes"/>
      <point x="364" y="189"/>
      <point x="325" y="170"/>
      <point x="272" y="170" type="curve" smooth="yes"/>
      <point x="213" y="170"/>
      <point x="145" y="186"/>
      <point x="85" y="221" type="curve"/>
      <point x="5" y="47" type="line"/>
      <point x="80" y="5"/>
      <point x="185" y="-16"/>
    </contour>
  </outline>
</glyph>
<glyph name="six" format="2">
  <advance width="661"/>
  <unicode hex="0036"/>
  <outline>
    <contour>
      <point x="365" y="-16" type="curve" smooth="yes"/>
      <point x="523" y="-16"/>
      <point x="649" y="79"/>
      <point x="649" y="229" type="curve" smooth="yes"/>
      <point x="649" y="366"/>
      <point x="537" y="453"/>
      <point x="409" y="453" type="curve" smooth="yes"/>
      <point x="311" y="453"/>
      <point x="251" y="415"/>
      <point x="212" y="347" type="curve"/>
      <point x="266" y="308" type="line"/>
      <point x="266" y="328"/>
      <point x="266" y="347"/>
      <point x="266" y="367" type="curve" smooth="yes"/>
      <point x="266" y="475"/>
      <point x="327" y="533"/>
      <point x="422" y="533" type="curve" smooth="yes"/>
      <point x="466" y="533"/>
      <point x="508" y="525"/>
      <point x="549" y="496" type="curve"/>
      <point x="634" y="661" type="line"/>
      <point x="581" y="696"/>
      <point x="500" y="716"/>
      <point x="417" y="716" type="curve" smooth="yes"/>
      <point x="186" y="716"/>
      <point x="29" y="573"/>
      <point x="29" y="328" type="curve" smooth="yes"/>
      <point x="29" y="99"/>
      <point x="165" y="-16"/>
    </contour>
    <contour>
      <point x="349" y="147" type="curve" smooth="yes"/>
      <point x="307" y="147"/>
      <point x="277" y="174"/>
      <point x="277" y="218" type="curve" smooth="yes"/>
      <point x="277" y="262"/>
      <point x="307" y="290"/>
      <point x="349" y="290" type="curve" smooth="yes"/>
      <point x="391" y="290"/>
      <point x="421" y="262"/>
      <point x="421" y="218" type="curve" smooth="yes"/>
      <point x="421" y="174"/>
      <point x="391" y="147"/>
    </contour>
  </outline>
</glyph>
<glyph name="seven" format="2">
  <advance width="645"/>
  <unicode hex="0037"/>
  <outline>
    <contour>
      <point x="129" y="0" type="line"/>
      <point x="387" y="0" type="line"/>
      <point x="620" y="555" type="line"/>
      <point x="620" y="700" type="line"/>
      <point x="21" y="700" type="line"/>
      <point x="21" y="415" type="line"/>
      <point x="216" y="415" type="line"/>
      <point x="216" y="624" type="line"/>
      <point x="124" y="517" type="line"/>
      <point x="456" y="517" type="line"/>
      <point x="393" y="616" type="line"/>
    </contour>
  </outline>
</glyph>
<glyph name="eight" format="2">
  <advance width="678"/>
  <unicode hex="0038"/>
  <outline>
    <contour>
      <point x="339" y="-16" type="curve" smooth="yes"/>
      <point x="524" y="-16"/>
      <point x="653" y="72"/>
      <point x="653" y="208" type="curve" smooth="yes"/>
      <point x="653" y="344"/>
      <point x="519" y="422"/>
      <point x="339" y="422" type="curve" smooth="yes"/>
      <point x="159" y="422"/>
      <point x="25" y="344"/>
      <point x="25" y="208" type="curve" smooth="yes"/>
      <point x="25" y="72"/>
      <point x="154" y="-16"/>
    </contour>
    <contour>
      <point x="339" y="143" type="curve" smooth="yes"/>
      <point x="294" y="143"/>
      <point x="262" y="171"/>
      <point x="262" y="216" type="curve" smooth="yes"/>
      <point x="262" y="261"/>
      <point x="294" y="289"/>
      <point x="339" y="289" type="curve" smooth="yes"/>
      <point x="384" y="289"/>
      <point x="416" y="261"/>
      <point x="416" y="216" type="curve" smooth="yes"/>
      <point x="416" y="171"/>
      <point x="384" y="143"/>
    </contour>
    <contour>
      <point x="339" y="308" type="curve" smooth="yes"/>
      <point x="504" y="308"/>
      <point x="628" y="380"/>
      <point x="628" y="507" type="curve" smooth="yes"/>
      <point x="628" y="634"/>
      <point x="509" y="716"/>
      <point x="339" y="716" type="curve" smooth="yes"/>
      <point x="169" y="716"/>
      <point x="50" y="634"/>
      <point x="50" y="507" type="curve" smooth="yes"/>
      <point x="50" y="380"/>
      <point x="174" y="308"/>
    </contour>
    <contour>
      <point x="339" y="437" type="curve" smooth="yes"/>
      <point x="307" y="437"/>
      <point x="283" y="459"/>
      <point x="283" y="497" type="curve" smooth="yes"/>
      <point x="283" y="535"/>
      <point x="307" y="557"/>
      <point x="339" y="557" type="curve" smooth="yes"/>
      <point x="371" y="557"/>
      <point x="395" y="535"/>
      <point x="395" y="497" type="curve" smooth="yes"/>
      <point x="395" y="459"/>
      <point x="371" y="437"/>
    </contour>
  </outline>
</glyph>
<glyph name="nine" format="2">
  <advance width="661"/>
  <unicode hex="0039"/>
  <outline>
    <contour>
      <point x="296" y="716" type="curve" smooth="yes"/>
      <point x="138" y="716"/>
      <point x="12" y="621"/>
      <point x="12" y="471" type="curve" smooth="yes"/>
      <point x="12" y="334"/>
      <point x="124" y="247"/>
      <point x="252" y="247" type="curve" smooth="yes"/>
      <point x="350" y="247"/>
      <point x="410" y="285"/>
      <point x="449" y="353" type="curve"/>
      <point x="395" y="392" type="line"/>
      <point x="395" y="372"/>
      <point x="395" y="353"/>
      <point x="395" y="333" type="curve" smooth="yes"/>
      <point x="395" y="225"/>
      <point x="334" y="167"/>
      <point x="239" y="167" type="curve" smooth="yes"/>
      <point x="195" y="167"/>
      <point x="153" y="175"/>
      <point x="112" y="204" type="curve"/>
      <point x="27" y="39" type="line"/>
      <point x="80" y="4"/>
      <point x="161" y="-16"/>
      <point x="244" y="-16" type="curve" smooth="yes"/>
      <point x="475" y="-16"/>
      <point x="632" y="127"/>
      <point x="632" y="372" type="curve" smooth="yes"/>
      <point x="632" y="601"/>
      <point x="496" y="716"/>
    </contour>
    <contour>
      <point x="312" y="553" type="curve" smooth="yes"/>
      <point x="354" y="553"/>
      <point x="384" y="526"/>
      <point x="384" y="482" type="curve" smooth="yes"/>
      <point x="384" y="438"/>
      <point x="354" y="410"/>
      <point x="312" y="410" type="curve" smooth="yes"/>
      <point x="270" y="410"/>
      <point x="240" y="438"/>
      <point x="240" y="482" type="curve" smooth="yes"/>
      <point x="240" y="526"/>
      <point x="270" y="553"/>
    </contour>
  </outline>
</glyph>
<glyph name="less" format="2">
  <advance width="620"/>
  <unicode hex="003C"/>
  <outline>
    <contour>
      <point x="565" y="76" type="line"/>
      <point x="565" y="246" type="line"/>
      <point x="119" y="399" type="line"/>
      <point x="119" y="301" type="line"/>
      <point x="565" y="454" type="line"/>
      <point x="565" y="624" type="line"/>
      <point x="55" y="439" type="line"/>
      <point x="55" y="261" type="line"/>
    </contour>
  </outline>
</glyph>
<glyph name="equal" format="2">
  <advance width="620"/>
  <unicode hex="003D"/>
  <outline>
    <contour>
      <point x="55" y="395" type="line"/>
      <point x="565" y="395" type="line"/>
      <point x="565" y="565" type="line"/>
      <point x="55" y="565" type="line"/>
    </contour>
    <contour>
      <point x="55" y="135" type="line"/>
      <point x="565" y="135" type="line"/>
      <point x="565" y="305" type="line"/>
      <point x="55" y="305" type="line"/>
    </contour>
  </outline>
</glyph>
<glyph name="question" format="2">
  <advance width="606"/>
  <unicode hex="003F"/>
  <outline>
    <contour>
      <point x="207" y="268" type="curve"/>
      <point x="413" y="268" type="line"/>
      <point x="413" y="345"/>
      <point x="573" y="372"/>
      <point x="573" y="525" type="curve" smooth="yes"/>
      <point x="573" y="650"/>
      <point x="456" y="716"/>
      <point x="299" y="716" type="curve" smooth="yes"/>
      <point x="139" y="716"/>
      <point x="38" y="650"/>
      <point x="-13" y="554" type="curve"/>
      <point x="165" y="465" type="line"/>
      <point x="186" y="507"/>
      <point x="226" y="533"/>
      <point x="269" y="533" type="curve" smooth="yes"/>
      <point x="306" y="533"/>
      <point x="336" y="517"/>
      <point x="336" y="486" type="curve" smooth="yes"/>
      <point x="336" y="425"/>
      <point x="207" y="389"/>
    </contour>
    <contour>
      <point x="310" y="-10" type="curve" smooth="yes"/>
      <point x="388" y="-10"/>
      <point x="442" y="44"/>
      <point x="442" y="110" type="curve" smooth="yes"/>
      <point x="442" y="177"/>
      <point x="388" y="228"/>
      <point x="310" y="228" type="curve" smooth="yes"/>
      <point x="232" y="228"/>
      <point x="178" y="177"/>
      <point x="178" y="110" type="curve" smooth="yes"/>
      <point x="178" y="44"/>
      <point x="232" y="-10"/>
    </contour>
  </outline>
</glyph>
<glyph name="B" format="2">
  <advance width="773"/>
  <unicode hex="0042"/>
  <anchor x="382" y="0" name="bottom"/>
  <anchor x="382" y="700" name="top"/>
  <outline>
    <contour>
      <point x="57" y="0" type="line"/>
      <point x="451" y="0" type="line" smooth="yes"/>
      <point x="644" y="0"/>
      <point x="747" y="71"/>
      <point x="747" y="193" type="curve" smooth="yes"/>
      <point x="747" y="315"/>
      <point x="644" y="387"/>
      <point x="481" y="387" type="curve"/>
      <point x="461" y="333" type="line"/>
      <point x="624" y="333"/>
      <point x="714" y="411"/>
      <point x="714" y="517" type="curve" smooth="yes"/>
      <point x="714" y="623"/>
      <point x="624" y="700"/>
      <point x="431" y="700" type="curve" smooth="yes"/>
      <point x="57" y="700" type="line"/>
    </contour>
    <contour>
      <point x="289" y="165" type="line"/>
      <point x="289" y="535" type="line"/>
      <point x="399" y="535" type="line" smooth="yes"/>
      <point x="452" y="535"/>
      <point x="476" y="517"/>
      <point x="476" y="483" type="curve" smooth="yes"/>
      <point x="476" y="449"/>
      <point x="452" y="431"/>
      <point x="399" y="431" type="curve" smooth="yes"/>
      <point x="273" y="431" type="line"/>
      <point x="273" y="275" type="line"/>
      <point x="431" y="275" type="line" smooth="yes"/>
      <point x="483" y="275"/>
      <point x="509" y="256"/>
      <point x="509" y="220" type="curve" smooth="yes"/>
      <point x="509" y="184"/>
      <point x="483" y="165"/>
      <point x="431" y="165" type="curve" smooth="yes"/>
    </contour>
  </outline>
</glyph>
<glyph name="C" format="2">
  <advance width="744"/>
  <unicode hex="0043"/>
  <anchor x="392" y="0" name="bottom"/>
  <anchor x="418" y="701" name="top"/>
  <outline>
    <contour>
      <point x="419" y="-16" type="curve" smooth="yes"/>
      <point x="556" y="-16"/>
      <point x="664" y="34"/>
      <point x="733" y="124" type="curve"/>
      <point x="584" y="257" type="line"/>
      <point x="543" y="205"/>
      <point x="494" y="175"/>
      <point x="431" y="175" type="curve" smooth="yes"/>
      <point x="333" y="175"/>
      <point x="267" y="243"/>
      <point x="267" y="350" type="curve" smooth="yes"/>
      <point x="267" y="457"/>
      <point x="333" y="525"/>
      <point x="431" y="525" type="curve" smooth="yes"/>
      <point x="494" y="525"/>
      <point x="543" y="495"/>
      <point x="584" y="443" type="curve"/>
      <point x="733" y="576" type="line"/>
      <point x="664" y="666"/>
      <point x="556" y="716"/>
      <point x="419" y="716" type="curve" smooth="yes"/>
      <point x="194" y="716"/>
      <point x="29" y="565"/>
      <point x="29" y="350" type="curve" smooth="yes"/>
      <point x="29" y="135"/>
      <point x="194" y="-16"/>
    </contour>
  </outline>
</glyph>
<glyph name="D" format="2">
  <advance width="826"/>
  <unicode hex="0044"/>
  <anchor x="361" y="0" name="bottom"/>
  <anchor x="206" y="355" name="center"/>
  <anchor x="359" y="700" name="top"/>
  <outline>
    <contour>
      <point x="57" y="0" type="line"/>
      <point x="402" y="0" type="line" smooth="yes"/>
      <point x="636" y="0"/>
      <point x="797" y="133"/>
      <point x="797" y="350" type="curve" smooth="yes"/>
      <point x="797" y="567"/>
      <point x="636" y="700"/>
      <point x="402" y="700" type="curve" smooth="yes"/>
      <point x="57" y="700" type="line"/>
    </contour>
    <contour>
      <point x="293" y="184" type="line"/>
      <point x="293" y="516" type="line"/>
      <point x="392" y="516" type="line" smooth="yes"/>
      <point x="491" y="516"/>
      <point x="559" y="457"/>
      <point x="559" y="350" type="curve" smooth="yes"/>
      <point x="559" y="243"/>
      <point x="491" y="184"/>
      <point x="392" y="184" type="curve" smooth="yes"/>
    </contour>
  </outline>
</glyph>
<glyph name="I" format="2">
  <advance width="350"/>
  <unicode hex="0049"/>
  <anchor x="175" y="0" name="bottom"/>
  <anchor x="293" y="0" name="ogonek"/>
  <anchor x="175" y="700" name="top"/>
  <anchor x="-9" y="700" name="topleft"/>
  <outline>
    <contour>
      <point x="57" y="0" type="line"/>
      <point x="293" y="0" type="line"/>
      <point x="293" y="700" type="line"/>
      <point x="57" y="700" type="line"/>
    </contour>
  </outline>
</glyph>
<glyph name="K" format="2">
  <advance width="765"/>
  <unicode hex="004B"/>
  <guideline x="625" y="544" angle="48.4917"/>
  <anchor x="384" y="0" name="bottom"/>
  <anchor x="384" y="700" name="top"/>
  <outline>
    <contour>
      <point x="268" y="150" type="line"/>
      <point x="349" y="240" type="line"/>
      <point x="480" y="374" type="line"/>
      <point x="776" y="700" type="line"/>
      <point x="519" y="700" type="line"/>
      <point x="255" y="409" type="line"/>
    </contour>
    <contour>
      <point x="57" y="0" type="line"/>
      <point x="289" y="0" type="line"/>
      <point x="289" y="700" type="line"/>
      <point x="57" y="700" type="line"/>
    </contour>
    <contour>
      <point x="517" y="0" type="line"/>
      <point x="790" y="0" type="line"/>
      <point x="464" y="434" type="line"/>
      <point x="311" y="272" type="line"/>
    </contour>
  </outline>
</glyph>
<glyph name="L" format="2">
  <advance width="617"/>
  <unicode hex="004C"/>
  <guideline x="581" y="193" angle="90"/>
  <anchor x="345" y="0" name="bottom"/>
  <anchor x="175" y="400" name="center"/>
  <anchor x="484" y="441" name="dot"/>
  <anchor x="175" y="700" name="top"/>
  <anchor x="423" y="700" name="topright"/>
  <outline>
    <contour>
      <point x="57" y="0" type="line"/>
      <point x="609" y="0" type="line"/>
      <point x="609" y="183" type="line"/>
      <point x="293" y="183" type="line"/>
      <point x="293" y="700" type="line"/>
      <point x="57" y="700" type="line"/>
    </contour>
  </outline>
</glyph>
<glyph name="M" format="2">
  <advance width="954"/>
  <unicode hex="004D"/>
  <anchor x="476" y="0" name="bottom"/>
  <anchor x="476" y="700" name="top"/>
  <outline>
    <contour>
      <point x="57" y="0" type="line"/>
      <point x="272" y="0" type="line"/>
      <point x="272" y="376" type="line"/>
      <point x="230" y="376" type="line"/>
      <point x="424" y="63" type="line"/>
      <point x="528" y="63" type="line"/>
      <point x="714" y="376" type="line"/>
      <point x="680" y="376" type="line"/>
      <point x="682" y="0" type="line"/>
      <point x="897" y="0" type="line"/>
      <point x="895" y="700" type="line"/>
      <point x="701" y="700" type="line"/>
      <point x="429" y="243" type="line"/>
      <point x="531" y="243" type="line"/>
      <point x="251" y="700" type="line"/>
      <point x="57" y="700" type="line"/>
    </contour>
  </outline>
</glyph>
<glyph name="N" format="2">
  <advance width="804"/>
  <unicode hex="004E"/>
  <anchor x="402" y="0" name="bottom"/>
  <anchor x="402" y="700" name="top"/>
  <outline>
    <contour>
      <point x="57" y="0" type="line"/>
      <point x="287" y="0" type="line"/>
      <point x="287" y="426" type="line"/>
      <point x="197" y="426" type="line"/>
      <point x="553" y="0" type="line"/>
      <point x="747" y="0" type="line"/>
      <point x="747" y="700" type="line"/>
      <point x="517" y="700" type="line"/>
      <point x="517" y="274" type="line"/>
      <point x="607" y="274" type="line"/>
      <point x="251" y="700" type="line"/>
      <point x="57" y="700" type="line"/>
    </contour>
  </outline>
</glyph>
<glyph name="P" format="2">
  <advance width="743"/>
  <unicode hex="0050"/>
  <outline>
    <contour>
      <point x="57" y="0" type="line"/>
      <point x="293" y="0" type="line"/>
      <point x="293" y="273" type="line"/>
      <point x="188" y="172" type="line"/>
      <point x="394" y="172" type="line" smooth="yes"/>
      <point x="589" y="172"/>
      <point x="713" y="274"/>
      <point x="713" y="436" type="curve" smooth="yes"/>
      <point x="713" y="598"/>
      <point x="589" y="700"/>
      <point x="394" y="700" type="curve" smooth="yes"/>
      <point x="57" y="700" type="line"/>
    </contour>
    <contour>
      <point x="293" y="247" type="line"/>
      <point x="293" y="625" type="line"/>
      <point x="188" y="518" type="line"/>
      <point x="379" y="518" type="line" smooth="yes"/>
      <point x="444" y="518"/>
      <point x="475" y="487"/>
      <point x="475" y="436" type="curve" smooth="yes"/>
      <point x="475" y="385"/>
      <point x="444" y="354"/>
      <point x="379" y="354" type="curve" smooth="yes"/>
      <point x="188" y="354" type="line"/>
    </contour>
  </outline>
</glyph>
<glyph name="S" format="2">
  <advance width="657"/>
  <unicode hex="0053"/>
  <anchor x="329" y="0" name="bottom"/>
  <anchor x="329" y="700" name="top"/>
  <outline>
    <contour>
      <point x="318" y="-16" type="curve" smooth="yes"/>
      <point x="535" y="-16"/>
      <point x="644" y="92"/>
      <point x="644" y="220" type="curve" smooth="yes"/>
      <point x="644" y="478"/>
      <point x="257" y="408"/>
      <point x="257" y="492" type="curve" smooth="yes"/>
      <point x="257" y="516"/>
      <point x="279" y="536"/>
      <point x="348" y="536" type="curve" smooth="yes"/>
      <point x="409" y="536"/>
      <point x="474" y="519"/>
      <point x="543" y="484" type="curve"/>
      <point x="614" y="655" type="line"/>
      <point x="541" y="696"/>
      <point x="444" y="716"/>
      <point x="350" y="716" type="curve" smooth="yes"/>
      <point x="133" y="716"/>
      <point x="24" y="610"/>
      <point x="24" y="480" type="curve" smooth="yes"/>
      <point x="24" y="219"/>
      <point x="411" y="290"/>
      <point x="411" y="202" type="curve" smooth="yes"/>
      <point x="411" y="178"/>
      <point x="387" y="164"/>
      <point x="320" y="164" type="curve" smooth="yes"/>
      <point x="243" y="164"/>
      <point x="155" y="189"/>
      <point x="89" y="228" type="curve"/>
      <point x="13" y="56" type="line"/>
      <point x="83" y="13"/>
      <point x="201" y="-16"/>
    </contour>
  </outline>
</glyph>
<glyph name="T" format="2">
  <advance width="654"/>
  <unicode hex="0054"/>
  <anchor x="327" y="0" name="bottom"/>
  <anchor x="327" y="315" name="center"/>
  <anchor x="327" y="700" name="top"/>
  <outline>
    <contour>
      <point x="209" y="0" type="line"/>
      <point x="445" y="0" type="line"/>
      <point x="445" y="517" type="line"/>
      <point x="650" y="517" type="line"/>
      <point x="650" y="700" type="line"/>
      <point x="4" y="700" type="line"/>
      <point x="4" y="517" type="line"/>
      <point x="209" y="517" type="line"/>
    </contour>
  </outline>
</glyph>
<glyph name="U" format="2">
  <advance width="784"/>
  <unicode hex="0055"/>
  <anchor x="394" y="0" name="bottom"/>
  <anchor x="620" y="0" name="ogonek"/>
  <anchor x="394" y="700" name="top"/>
  <anchor x="640" y="700" name="topright"/>
  <outline>
    <contour>
      <point x="392" y="-16" type="curve" smooth="yes"/>
      <point x="607" y="-16"/>
      <point x="733" y="105"/>
      <point x="733" y="315" type="curve" smooth="yes"/>
      <point x="733" y="700" type="line"/>
      <point x="501" y="700" type="line"/>
      <point x="501" y="322" type="line" smooth="yes"/>
      <point x="501" y="215"/>
      <point x="460" y="175"/>
      <point x="394" y="175" type="curve" smooth="yes"/>
      <point x="328" y="175"/>
      <point x="287" y="215"/>
      <point x="287" y="322" type="curve" smooth="yes"/>
      <point x="287" y="700" type="line"/>
      <point x="51" y="700" type="line"/>
      <point x="51" y="315" type="line" smooth="yes"/>
      <point x="51" y="105"/>
      <point x="177" y="-16"/>
    </contour>
  </outline>
</glyph>
<glyph name="W" format="2">
  <advance width="1206"/>
  <unicode hex="0057"/>
  <anchor x="603" y="0" name="bottom"/>
  <anchor x="603" y="700" name="top"/>
  <outline>
    <contour>
      <point x="234" y="0" type="line"/>
      <point x="487" y="0" type="line"/>
      <point x="641" y="484" type="line"/>
      <point x="573" y="484" type="line"/>
      <point x="719" y="0" type="line"/>
      <point x="972" y="0" type="line"/>
      <point x="1196" y="700" type="line"/>
      <point x="972" y="700" type="line"/>
      <point x="783" y="109" type="line"/>
      <point x="900" y="109" type="line"/>
      <point x="721" y="700" type="line"/>
      <point x="504" y="700" type="line"/>
      <point x="312" y="109" type="line"/>
      <point x="434" y="109" type="line"/>
      <point x="253" y="700" type="line"/>
      <point x="10" y="700" type="line"/>
    </contour>
  </outline>
</glyph>
<glyph name="Y" format="2">
  <advance width="710"/>
  <unicode hex="0059"/>
  <anchor x="355" y="0" name="bottom"/>
  <anchor x="349" y="266" name="center"/>
  <anchor x="355" y="700" name="top"/>
  <outline>
    <contour>
      <point x="237" y="0" type="line"/>
      <point x="473" y="0" type="line"/>
      <point x="473" y="307" type="line"/>
      <point x="421" y="166" type="line"/>
      <point x="737" y="700" type="line"/>
      <point x="509" y="700" type="line"/>
      <point x="292" y="335" type="line"/>
      <point x="437" y="335" type="line"/>
      <point x="222" y="700" type="line"/>
      <point x="-27" y="700" type="line"/>
      <point x="291" y="166" type="line"/>
      <point x="237" y="307" type="line"/>
    </contour>
  </outline>
</glyph>
<glyph name="bracketleft" format="2">
  <advance width="410"/>
  <unicode hex="005B"/>
  <outline>
    <contour>
      <point x="57" y="-194" type="line"/>
      <point x="400" y="-194" type="line"/>
      <point x="400" y="-24" type="line"/>
      <point x="283" y="-24" type="line"/>
      <point x="283" y="572" type="line"/>
      <point x="400" y="572" type="line"/>
      <point x="400" y="742" type="line"/>
      <point x="57" y="742" type="line"/>
    </contour>
  </outline>
</glyph>
<glyph name="backslash" format="2">
  <advance width="440"/>
  <unicode hex="005C"/>
  <outline>
    <contour>
      <point x="480" y="-100" type="line"/>
      <point x="150" y="842" type="line"/>
      <point x="-50" y="842" type="line"/>
      <point x="280" y="-100" type="line"/>
    </contour>
  </outline>
</glyph>
<glyph name="c" format="2">
  <advance width="615"/>
  <unicode hex="0063"/>
  <anchor x="316" y="0" name="bottom"/>
  <anchor x="324" y="547" name="top"/>
  <outline>
    <contour>
      <point x="344" y="-10" type="curve" smooth="yes"/>
      <point x="477" y="-10"/>
      <point x="577" y="51"/>
      <point x="613" y="152" type="curve"/>
      <point x="438" y="238" type="line"/>
      <point x="415" y="187"/>
      <point x="382" y="166"/>
      <point x="343" y="166" type="curve" smooth="yes"/>
      <point x="292" y="166"/>
      <point x="250" y="202"/>
      <point x="250" y="274" type="curve" smooth="yes"/>
      <point x="250" y="345"/>
      <point x="292" y="381"/>
      <point x="343" y="381" type="curve" smooth="yes"/>
      <point x="382" y="381"/>
      <point x="415" y="360"/>
      <point x="438" y="309" type="curve"/>
      <point x="613" y="395" type="line"/>
      <point x="577" y="496"/>
      <point x="477" y="557"/>
      <point x="344" y="557" type="curve" smooth="yes"/>
      <point x="155" y="557"/>
      <point x="21" y="440"/>
      <point x="21" y="274" type="curve" smooth="yes"/>
      <point x="21" y="107"/>
      <point x="155" y="-10"/>
    </contour>
  </outline>
</glyph>
<glyph name="f" format="2">
  <advance width="426"/>
  <unicode hex="0066"/>
  <outline>
    <contour>
      <point x="75" y="0" type="line"/>
      <point x="301" y="0" type="line"/>
      <point x="301" y="399" type="line"/>
      <point x="294" y="492" type="line"/>
      <point x="294" y="518" type="line" smooth="yes"/>
      <point x="294" y="562"/>
      <point x="316" y="581"/>
      <point x="348" y="581" type="curve" smooth="yes"/>
      <point x="366" y="581"/>
      <point x="384" y="575"/>
      <point x="399" y="568" type="curve"/>
      <point x="453" y="725" type="line"/>
      <point x="420" y="743"/>
      <point x="367" y="752"/>
      <point x="319" y="752" type="curve" smooth="yes"/>
      <point x="163" y="752"/>
      <point x="75" y="661"/>
      <point x="75" y="520" type="curve" smooth="yes"/>
    </contour>
    <contour>
      <point x="0" y="352" type="line"/>
      <point x="413" y="352" type="line"/>
      <point x="413" y="517" type="line"/>
      <point x="0" y="517" type="line"/>
    </contour>
  </outline>
</glyph>
<glyph name="g" format="2">
  <advance width="711"/>
  <unicode hex="0067"/>
  <anchor x="355" y="547" name="top"/>
  <outline>
    <contour>
      <point x="328" y="-204" type="curve" smooth="yes"/>
      <point x="537" y="-204"/>
      <point x="661" y="-103"/>
      <point x="661" y="109" type="curve" smooth="yes"/>
      <point x="661" y="547" type="line"/>
      <point x="446" y="547" type="line"/>
      <point x="446" y="464" type="line"/>
      <point x="445" y="294" type="line"/>
      <point x="435" y="124" type="line"/>
      <point x="435" y="78" type="line" smooth="yes"/>
      <point x="435" y="5"/>
      <point x="398" y="-36"/>
      <point x="305" y="-36" type="curve" smooth="yes"/>
      <point x="246" y="-36"/>
      <point x="173" y="-15"/>
      <point x="130" y="18" type="curve"/>
      <point x="54" y="-136" type="line"/>
      <point x="122" y="-181"/>
      <point x="220" y="-204"/>
    </contour>
    <contour>
      <point x="284" y="30" type="curve" smooth="yes"/>
      <point x="426" y="30"/>
      <point x="490" y="114"/>
      <point x="490" y="294" type="curve" smooth="yes"/>
      <point x="490" y="474"/>
      <point x="426" y="557"/>
      <point x="284" y="557" type="curve" smooth="yes"/>
      <point x="145" y="557"/>
      <point x="21" y="456"/>
      <point x="21" y="294" type="curve" smooth="yes"/>
      <point x="21" y="132"/>
      <point x="145" y="30"/>
    </contour>
    <contour>
      <point x="344" y="206" type="curve" smooth="yes"/>
      <point x="291" y="206"/>
      <point x="250" y="241"/>
      <point x="250" y="294" type="curve" smooth="yes"/>
      <point x="250" y="347"/>
      <point x="291" y="381"/>
      <point x="344" y="381" type="curve" smooth="yes"/>
      <point x="397" y="381"/>
      <point x="437" y="347"/>
      <point x="437" y="294" type="curve" smooth="yes"/>
      <point x="437" y="241"/>
      <point x="397" y="206"/>
    </contour>
  </outline>
</glyph>
<glyph name="h" format="2">
  <advance width="702"/>
  <unicode hex="0068"/>
  <anchor x="355" y="0" name="bottom"/>
  <anchor x="214" y="640" name="center"/>
  <anchor x="163" y="742" name="top"/>
  <anchor x="310" y="547" name="topright"/>
  <outline>
    <contour>
      <point x="430" y="557" type="curve" smooth="yes"/>
      <point x="341" y="557"/>
      <point x="264" y="516"/>
      <point x="222" y="433" type="curve"/>
      <point x="276" y="387" type="line"/>
      <point x="276" y="742" type="line"/>
      <point x="50" y="742" type="line"/>
      <point x="50" y="0" type="line"/>
      <point x="276" y="0" type="line"/>
      <point x="276" y="257" type="line" smooth="yes"/>
      <point x="276" y="338"/>
      <point x="315" y="367"/>
      <point x="361" y="367" type="curve" smooth="yes"/>
      <point x="402" y="367"/>
      <point x="428" y="341"/>
      <point x="428" y="273" type="curve" smooth="yes"/>
      <point x="428" y="0" type="line"/>
      <point x="654" y="0" type="line"/>
      <point x="654" y="312" type="line" smooth="yes"/>
      <point x="654" y="484"/>
      <point x="556" y="557"/>
    </contour>
  </outline>
</glyph>
<glyph name="o" format="2">
  <advance width="678"/>
  <unicode hex="006F"/>
  <guideline x="651" y="274" angle="90"/>
  <anchor x="336" y="0" name="bottom"/>
  <anchor x="336" y="274" name="center"/>
  <anchor x="459" y="0" name="ogonek"/>
  <anchor x="336" y="547" name="top"/>
  <anchor x="432" y="547" name="topright"/>
  <outline>
    <contour>
      <point x="339" y="-10" type="curve" smooth="yes"/>
      <point x="525" y="-10"/>
      <point x="657" y="108"/>
      <point x="657" y="274" type="curve" smooth="yes"/>
      <point x="657" y="440"/>
      <point x="525" y="557"/>
      <point x="339" y="557" type="curve" smooth="yes"/>
      <point x="154" y="557"/>
      <point x="21" y="440"/>
      <point x="21" y="274" type="curve" smooth="yes"/>
      <point x="21" y="108"/>
      <point x="154" y="-10"/>
    </contour>
    <contour>
      <point x="339" y="166" type="curve" smooth="yes"/>
      <point x="289" y="166"/>
      <point x="250" y="203"/>
      <point x="250" y="274" type="curve" smooth="yes"/>
      <point x="250" y="345"/>
      <point x="289" y="381"/>
      <point x="339" y="381" type="curve" smooth="yes"/>
      <point x="389" y="381"/>
      <point x="428" y="345"/>
      <point x="428" y="274" type="curve" smooth="yes"/>
      <point x="428" y="203"/>
      <point x="389" y="166"/>
    </contour>
  </outline>
</glyph>
<glyph name="s" format="2">
  <advance width="565"/>
  <unicode hex="0073"/>
  <anchor x="276" y="0" name="bottom"/>
  <anchor x="276" y="547" name="top"/>
  <outline>
    <contour>
      <point x="264" y="-10" type="curve" smooth="yes"/>
      <point x="454" y="-10"/>
      <point x="547" y="76"/>
      <point x="547" y="175" type="curve" smooth="yes"/>
      <point x="547" y="394"/>
      <point x="233" y="320"/>
      <point x="233" y="377" type="curve" smooth="yes"/>
      <point x="233" y="390"/>
      <point x="249" y="403"/>
      <point x="307" y="403" type="curve" smooth="yes"/>
      <point x="353" y="403"/>
      <point x="409" y="394"/>
      <point x="465" y="363" type="curve"/>
      <point x="527" y="512" type="line"/>
      <point x="469" y="542"/>
      <point x="384" y="557"/>
      <point x="304" y="557" type="curve" smooth="yes"/>
      <point x="120" y="557"/>
      <point x="24" y="473"/>
      <point x="24" y="370" type="curve" smooth="yes"/>
      <point x="24" y="151"/>
      <point x="339" y="226"/>
      <point x="339" y="170" type="curve" smooth="yes"/>
      <point x="339" y="154"/>
      <point x="324" y="144"/>
      <point x="269" y="144" type="curve" smooth="yes"/>
      <point x="204" y="144"/>
      <point x="130" y="162"/>
      <point x="78" y="193" type="curve"/>
      <point x="16" y="44" type="line"/>
      <point x="72" y="12"/>
      <point x="170" y="-10"/>
    </contour>
  </outline>
</glyph>
<glyph name="t" format="2">
  <advance width="460"/>
  <unicode hex="0074"/>
  <anchor x="274" y="0" name="bottom"/>
  <anchor x="207" y="261" name="center"/>
  <anchor x="188" y="670" name="top"/>
  <anchor x="349" y="742" name="topright"/>
  <outline>
    <contour>
      <point x="314" y="-10" type="curve" smooth="yes"/>
      <point x="367" y="-10"/>
      <point x="418" y="-1"/>
      <point x="453" y="19" type="curve"/>
      <point x="399" y="176" type="line"/>
      <point x="384" y="166"/>
      <point x="366" y="161"/>
      <point x="348" y="161" type="curve" smooth="yes"/>
      <point x="321" y="161"/>
      <point x="301" y="180"/>
      <point x="301" y="214" type="curve" smooth="yes"/>
      <point x="301" y="670" type="line"/>
      <point x="75" y="670" type="line"/>
      <point x="75" y="212" type="line" smooth="yes"/>
      <point x="75" y="61"/>
      <point x="163" y="-10"/>
    </contour>
    <contour>
      <point x="0" y="352" type="line"/>
      <point x="413" y="352" type="line"/>
      <point x="413" y="517" type="line"/>
      <point x="0" y="517" type="line"/>
    </contour>
  </outline>
</glyph>
<glyph name="asciitilde" format="2">
  <advance width="620"/>
  <unicode hex="007E"/>
  <outline>
    <contour>
      <point x="409" y="235" type="curve" smooth="yes"/>
      <point x="508" y="235"/>
      <point x="578" y="317"/>
      <point x="580" y="456" type="curve"/>
      <point x="442" y="456" type="line"/>
      <point x="440" y="416"/>
      <point x="420" y="393"/>
      <point x="391" y="393" type="curve" smooth="yes"/>
      <point x="346" y="393"/>
      <point x="302" y="468"/>
      <point x="211" y="468" type="curve" smooth="yes"/>
      <point x="112" y="468"/>
      <point x="42" y="386"/>
      <point x="40" y="247" type="curve"/>
      <point x="178" y="247" type="line"/>
      <point x="180" y="287"/>
      <point x="200" y="310"/>
      <point x="229" y="310" type="curve" smooth="yes"/>
      <point x="274" y="310"/>
      <point x="318" y="235"/>
    </contour>
  </outline>
</glyph>
<glyph name="exclamdown" format="2">
  <advance width="314"/>
  <unicode hex="00A1"/>
  <outline>
    <contour>
      <point x="247" y="279" type="line"/>
      <point x="67" y="279" type="line"/>
      <point x="22" y="-154" type="line"/>
      <point x="292" y="-154" type="line"/>
    </contour>
    <contour>
      <point x="157" y="557" type="curve" smooth="yes"/>
      <point x="79" y="557"/>
      <point x="25" y="503"/>
      <point x="25" y="437" type="curve" smooth="yes"/>
      <point x="25" y="370"/>
      <point x="79" y="319"/>
      <point x="157" y="319" type="curve" smooth="yes"/>
      <point x="235" y="319"/>
      <point x="289" y="370"/>
      <point x="289" y="437" type="curve" smooth="yes"/>
      <point x="289" y="503"/>
      <point x="235" y="557"/>
    </contour>
  </outline>
</glyph>
<glyph name="brokenbar" format="2">
  <advance width="320"/>
  <unicode hex="00A6"/>
  <outline>
    <contour>
      <point x="57" y="392" type="line"/>
      <point x="263" y="392" type="line"/>
      <point x="263" y="742" type="line"/>
      <point x="57" y="742" type="line"/>
    </contour>
    <contour>
      <point x="57" y="-194" type="line"/>
      <point x="263" y="-194" type="line"/>
      <point x="263" y="156" type="line"/>
      <point x="57" y="156" type="line"/>
    </contour>
  </outline>
</glyph>
<glyph name="copyright" format="2">
  <advance width="764"/>
  <unicode hex="00A9"/>
  <outline>
    <contour>
      <point x="381" y="-3" type="curve" smooth="yes"/>
      <point x="580" y="-3"/>
      <point x="735" y="153"/>
      <point x="735" y="352" type="curve" smooth="yes"/>
      <point x="735" y="551"/>
      <point x="584" y="703"/>
      <point x="383" y="703" type="curve" smooth="yes"/>
      <point x="182" y="703"/>
      <point x="29" y="547"/>
      <point x="29" y="350" type="curve" smooth="yes"/>
      <point x="29" y="153"/>
      <point x="182" y="-3"/>
    </contour>
    <contour>
      <point x="381" y="85" type="curve" smooth="yes"/>
      <point x="231" y="85"/>
      <point x="123" y="200"/>
      <point x="123" y="350" type="curve" smooth="yes"/>
      <point x="123" y="500"/>
      <point x="231" y="615"/>
      <point x="383" y="615" type="curve" smooth="yes"/>
      <point x="535" y="615"/>
      <point x="641" y="503"/>
      <point x="641" y="352" type="curve" smooth="yes"/>
      <point x="641" y="201"/>
      <point x="531" y="85"/>
    </contour>
    <contour>
      <point x="397" y="152" type="curve" smooth="yes"/>
      <point x="486" y="152"/>
      <point x="553" y="195"/>
      <point x="577" y="265" type="curve"/>
      <point x="449" y="330" type="line"/>
      <point x="436" y="301"/>
      <point x="418" y="290"/>
      <point x="396" y="290" type="curve" smooth="yes"/>
      <point x="370" y="290"/>
      <point x="345" y="310"/>
      <point x="345" y="350" type="curve" smooth="yes"/>
      <point x="345" y="390"/>
      <point x="370" y="410"/>
      <point x="396" y="410" type="curve" smooth="yes"/>
      <point x="418" y="410"/>
      <point x="436" y="399"/>
      <point x="449" y="370" type="curve"/>
      <point x="577" y="435" type="line"/>
      <point x="553" y="505"/>
      <point x="486" y="548"/>
      <point x="397" y="548" type="curve" smooth="yes"/>
      <point x="271" y="548"/>
      <point x="181" y="466"/>
      <point x="181" y="350" type="curve" smooth="yes"/>
      <point x="181" y="234"/>
      <point x="271" y="152"/>
    </contour>
  </outline>
</glyph>
<glyph name="degree" format="2">
  <advance width="416"/>
  <unicode hex="00B0"/>
  <outline>
    <contour>
      <point x="208" y="349" type="curve" smooth="yes"/>
      <point x="311" y="349"/>
      <point x="396" y="428"/>
      <point x="396" y="530" type="curve" smooth="yes"/>
      <point x="396" y="632"/>
      <point x="311" y="711"/>
      <point x="208" y="711" type="curve" smooth="yes"/>
      <point x="105" y="711"/>
      <point x="20" y="632"/>
      <point x="20" y="530" type="curve" smooth="yes"/>
      <point x="20" y="428"/>
      <point x="105" y="349"/>
    </contour>
    <contour>
      <point x="208" y="453" type="curve" smooth="yes"/>
      <point x="164" y="453"/>
      <point x="132" y="487"/>
      <point x="132" y="530" type="curve" smooth="yes"/>
      <point x="132" y="573"/>
      <point x="164" y="607"/>
      <point x="208" y="607" type="curve" smooth="yes"/>
      <point x="252" y="607"/>
      <point x="284" y="573"/>
      <point x="284" y="530" type="curve" smooth="yes"/>
      <point x="284" y="487"/>
      <point x="252" y="453"/>
    </contour>
  </outline>
</glyph>
<glyph name="paragraph" format="2">
  <advance width="730"/>
  <unicode hex="00B6"/>
  <outline>
    <contour>
      <point x="229" y="-100" type="line"/>
      <point x="411" y="-100" type="line"/>
      <point x="411" y="587" type="line"/>
      <point x="491" y="587" type="line"/>
      <point x="491" y="-100" type="line"/>
      <point x="673" y="-100" type="line"/>
      <point x="673" y="742" type="line"/>
      <point x="268" y="742" type="line" smooth="yes"/>
      <point x="111" y="742"/>
      <point x="8" y="663"/>
      <point x="8" y="537" type="curve" smooth="yes"/>
      <point x="8" y="414"/>
      <point x="106" y="337"/>
      <point x="229" y="333" type="curve"/>
    </contour>
  </outline>
</glyph>
<glyph name="questiondown" format="2">
  <advance width="606"/>
  <unicode hex="00BF"/>
  <outline>
    <contour>
      <point x="307" y="-169" type="curve" smooth="yes"/>
      <point x="467" y="-169"/>
      <point x="568" y="-103"/>
      <point x="619" y="-7" type="curve"/>
      <point x="441" y="82" type="line"/>
      <point x="420" y="40"/>
      <point x="380" y="14"/>
      <point x="337" y="14" type="curve" smooth="yes"/>
      <point x="300" y="14"/>
      <point x="270" y="30"/>
      <point x="270" y="61" type="curve" smooth="yes"/>
      <point x="270" y="122"/>
      <point x="399" y="158"/>
      <point x="399" y="279" type="curve"/>
      <point x="193" y="279" type="line"/>
      <point x="193" y="202"/>
      <point x="33" y="175"/>
      <point x="33" y="22" type="curve" smooth="yes"/>
      <point x="33" y="-103"/>
      <point x="150" y="-169"/>
    </contour>
    <contour>
      <point x="296" y="319" type="curve" smooth="yes"/>
      <point x="374" y="319"/>
      <point x="428" y="370"/>
      <point x="428" y="437" type="curve" smooth="yes"/>
      <point x="428" y="503"/>
      <point x="374" y="557"/>
      <point x="296" y="557" type="curve" smooth="yes"/>
      <point x="218" y="557"/>
      <point x="164" y="503"/>
      <point x="164" y="437" type="curve" smooth="yes"/>
      <point x="164" y="370"/>
      <point x="218" y="319"/>
    </contour>
  </outline>
</glyph>
<glyph name="AE" format="2">
  <advance width="1119"/>
  <unicode hex="00C6"/>
  <anchor x="619" y="0" name="bottom"/>
  <anchor x="619" y="700" name="top"/>
  <outline>
    <contour>
      <point x="-19" y="0" type="line"/>
      <point x="221" y="0" type="line"/>
      <point x="527" y="616" type="line"/>
      <point x="385" y="522" type="line"/>
      <point x="584" y="522" type="line"/>
      <point x="584" y="700" type="line"/>
      <point x="350" y="700" type="line"/>
    </contour>
    <contour>
      <point x="219" y="122" type="line"/>
      <point x="584" y="122" type="line"/>
      <point x="584" y="292" type="line"/>
      <point x="219" y="292" type="line"/>
    </contour>
    <contour>
      <point x="719" y="440" type="line"/>
      <point x="719" y="270" type="line"/>
      <point x="1031" y="270" type="line"/>
      <point x="1031" y="440" type="line"/>
    </contour>
    <contour>
      <point x="735" y="178" type="line"/>
      <point x="735" y="522" type="line"/>
      <point x="1072" y="522" type="line"/>
      <point x="1072" y="700" type="line"/>
      <point x="503" y="700" type="line"/>
      <point x="503" y="0" type="line"/>
      <point x="1085" y="0" type="line"/>
      <point x="1085" y="178" type="line"/>
    </contour>
  </outline>
</glyph>
<glyph name="Thorn" format="2">
  <advance width="743"/>
  <unicode hex="00DE"/>
  <outline>
    <contour>
      <point x="245" y="105" type="line"/>
      <point x="394" y="105" type="line" smooth="yes"/>
      <point x="589" y="105"/>
      <point x="713" y="207"/>
      <point x="713" y="369" type="curve" smooth="yes"/>
      <point x="713" y="531"/>
      <point x="589" y="633"/>
      <point x="394" y="633" type="curve" smooth="yes"/>
      <point x="245" y="633" type="line"/>
      <point x="245" y="451" type="line"/>
      <point x="379" y="451" type="line" smooth="yes"/>
      <point x="444" y="451"/>
      <point x="475" y="420"/>
      <point x="475" y="369" type="curve" smooth="yes"/>
      <point x="475" y="318"/>
      <point x="444" y="287"/>
      <point x="379" y="287" type="curve" smooth="yes"/>
      <point x="245" y="287" type="line"/>
    </contour>
    <contour>
      <point x="57" y="0" type="line"/>
      <point x="293" y="0" type="line"/>
      <point x="293" y="701" type="line"/>
      <point x="57" y="701" type="line"/>
    </contour>
  </outline>
</glyph>
<glyph name="IJ" format="2">
  <advance width="729"/>
  <unicode hex="0132"/>
  <anchor x="169" y="700" name="top"/>
  <outline>
    <contour>
      <point x="328" y="-16" type="curve" smooth="yes"/>
      <point x="538" y="-16"/>
      <point x="678" y="105"/>
      <point x="678" y="325" type="curve" smooth="yes"/>
      <point x="678" y="700" type="line"/>
      <point x="442" y="700" type="line"/>
      <point x="442" y="312" type="line" smooth="yes"/>
      <point x="442" y="215"/>
      <point x="404" y="172"/>
      <point x="317" y="172" type="curve" smooth="yes"/>
      <point x="258" y="172"/>
      <point x="183" y="194"/>
      <point x="117" y="236" type="curve"/>
      <point x="31" y="69" type="line"/>
      <point x="104" y="17"/>
      <point x="208" y="-16"/>
    </contour>
    <contour>
      <point x="51" y="336" type="line"/>
      <point x="287" y="336" type="line"/>
      <point x="287" y="700" type="line"/>
      <point x="51" y="700" type="line"/>
    </contour>
  </outline>
</glyph>
<glyph name="OE" format="2">
  <advance width="1149"/>
  <unicode hex="0152"/>
  <anchor x="649" y="0" name="bottom"/>
  <anchor x="649" y="700" name="top"/>
  <outline>
    <contour>
      <point x="424" y="0" type="curve" smooth="yes"/>
      <point x="593" y="0" type="line"/>
      <point x="593" y="184" type="line"/>
      <point x="434" y="184" type="line" smooth="yes"/>
      <point x="335" y="184"/>
      <point x="267" y="243"/>
      <point x="267" y="350" type="curve" smooth="yes"/>
      <point x="267" y="457"/>
      <point x="335" y="516"/>
      <point x="434" y="516" type="curve" smooth="yes"/>
      <point x="593" y="516" type="line"/>
      <point x="593" y="700" type="line"/>
      <point x="424" y="700" type="line" smooth="yes"/>
      <point x="190" y="700"/>
      <point x="29" y="567"/>
      <point x="29" y="350" type="curve" smooth="yes"/>
      <point x="29" y="133"/>
      <point x="190" y="0"/>
    </contour>
    <contour>
      <point x="749" y="440" type="line"/>
      <point x="749" y="270" type="line"/>
      <point x="1061" y="270" type="line"/>
      <point x="1061" y="440" type="line"/>
    </contour>
    <contour>
      <point x="765" y="178" type="line"/>
      <point x="765" y="522" type="line"/>
      <point x="1102" y="522" type="line"/>
      <point x="1102" y="700" type="line"/>
      <point x="533" y="700" type="line"/>
      <point x="533" y="0" type="line"/>
      <point x="1115" y="0" type="line"/>
      <point x="1115" y="178" type="line"/>
    </contour>
  </outline>
</glyph>
<glyph name="oe" format="2">
  <advance width="1062"/>
  <unicode hex="0153"/>
  <anchor x="540" y="0" name="bottom"/>
  <anchor x="540" y="547" name="top"/>
  <outline>
    <contour>
      <point x="335" y="-10" type="curve" smooth="yes"/>
      <point x="515" y="-10"/>
      <point x="625" y="108"/>
      <point x="625" y="274" type="curve" smooth="yes"/>
      <point x="625" y="440"/>
      <point x="515" y="557"/>
      <point x="335" y="557" type="curve" smooth="yes"/>
      <point x="154" y="557"/>
      <point x="21" y="440"/>
      <point x="21" y="274" type="curve" smooth="yes"/>
      <point x="21" y="108"/>
      <point x="154" y="-10"/>
    </contour>
    <contour>
      <point x="339" y="166" type="curve" smooth="yes"/>
      <point x="289" y="166"/>
      <point x="250" y="203"/>
      <point x="250" y="274" type="curve" smooth="yes"/>
      <point x="250" y="345"/>
      <point x="289" y="381"/>
      <point x="339" y="381" type="curve" smooth="yes"/>
      <point x="389" y="381"/>
      <point x="428" y="345"/>
      <point x="428" y="274" type="curve" smooth="yes"/>
      <point x="428" y="203"/>
      <point x="389" y="166"/>
    </contour>
    <contour>
      <point x="760" y="-10" type="curve" smooth="yes"/>
      <point x="858" y="-10"/>
      <point x="944" y="20"/>
      <point x="999" y="78" type="curve"/>
      <point x="878" y="197" type="line"/>
      <point x="841" y="170"/>
      <point x="810" y="157"/>
      <point x="766" y="157" type="curve" smooth="yes"/>
      <point x="689" y="157"/>
      <point x="647" y="196"/>
      <point x="647" y="267" type="curve" smooth="yes"/>
      <point x="647" y="301" type="line" smooth="yes"/>
      <point x="647" y="364"/>
      <point x="682" y="403"/>
      <point x="739" y="403" type="curve" smooth="yes"/>
      <point x="796" y="403"/>
      <point x="829" y="364"/>
      <point x="829" y="301" type="curve"/>
      <point x="869" y="330" type="line"/>
      <point x="636" y="330" type="line"/>
      <point x="636" y="221" type="line"/>
      <point x="1037" y="221" type="line"/>
      <point x="1039" y="237"/>
      <point x="1041" y="256"/>
      <point x="1041" y="277" type="curve" smooth="yes"/>
      <point x="1041" y="459"/>
      <point x="898" y="557"/>
      <point x="739" y="557" type="curve" smooth="yes"/>
      <point x="566" y="557"/>
      <point x="448" y="440"/>
      <point x="448" y="274" type="curve" smooth="yes"/>
      <point x="448" y="111"/>
      <point x="563" y="-10"/>
    </contour>
  </outline>
</glyph>
<glyph name="Uogonek" format="2">
  <advance width="784"/>
  <unicode hex="0172"/>
  <outline>
    <contour>
      <point x="501" y="700" type="line"/>
      <point x="501" y="322" type="line" smooth="yes"/>
      <point x="501" y="215"/>
      <point x="460" y="175"/>
      <point x="394" y="175" type="curve" smooth="yes"/>
      <point x="328" y="175"/>
      <point x="287" y="215"/>
      <point x="287" y="322" type="curve" smooth="yes"/>
      <point x="287" y="700" type="line"/>
      <point x="51" y="700" type="line"/>
      <point x="51" y="315" type="line" smooth="yes"/>
      <point x="51" y="105"/>
      <point x="177" y="-16"/>
      <point x="392" y="-16" type="curve" smooth="yes"/>
      <point x="409" y="-16"/>
      <point x="425" y="-15"/>
      <point x="442" y="-14" type="curve"/>
      <point x="437" y="49" type="line"/>
      <point x="331" y="16"/>
      <point x="270" y="-43"/>
      <point x="270" y="-117" type="curve" smooth="yes"/>
      <point x="270" y="-192"/>
      <point x="328" y="-240"/>
      <point x="428" y="-240" type="curve" smooth="yes"/>
      <point x="471" y="-240"/>
      <point x="517" y="-230"/>
      <point x="541" y="-217" type="curve"/>
      <point x="514" y="-124" type="line"/>
      <point x="499" y="-131"/>
      <point x="477" y="-138"/>
      <point x="455" y="-138" type="curve" smooth="yes"/>
      <point x="418" y="-138"/>
      <point x="402" y="-120"/>
      <point x="402" y="-97" type="curve" smooth="yes"/>
      <point x="402" y="-66"/>
      <point x="433" y="-35"/>
      <point x="540" y="7" type="curve" smooth="yes"/>
      <point x="655" y="52"/>
      <point x="733" y="149"/>
      <point x="733" y="315" type="curve" smooth="yes"/>
      <point x="733" y="700" type="line"/>
    </contour>
  </outline>
</glyph>
<glyph name="longs" format="2">
  <advance width="366"/>
  <unicode hex="017F"/>
  <outline>
    <contour>
      <point x="88" y="0" type="line"/>
      <point x="314" y="0" type="line"/>
      <point x="314" y="518" type="line" smooth="yes"/>
      <point x="314" y="562"/>
      <point x="329" y="581"/>
      <point x="361" y="581" type="curve" smooth="yes"/>
      <point x="379" y="581"/>
      <point x="397" y="575"/>
      <point x="412" y="568" type="curve"/>
      <point x="466" y="725" type="line"/>
      <point x="433" y="743"/>
      <point x="380" y="752"/>
      <point x="332" y="752" type="curve" smooth="yes"/>
      <point x="176" y="752"/>
      <point x="88" y="661"/>
      <point x="88" y="520" type="curve" smooth="yes"/>
    </contour>
    <contour>
      <point x="13" y="352" type="line"/>
      <point x="208" y="352" type="line"/>
      <point x="208" y="517" type="line"/>
      <point x="13" y="517" type="line"/>
    </contour>
  </outline>
</glyph>
<glyph name="oogonek" format="2">
  <advance width="678"/>
  <unicode hex="01EB"/>
  <anchor x="336" y="0" name="bottom"/>
  <anchor x="336" y="274" name="center"/>
  <anchor x="336" y="547" name="top"/>
  <anchor x="432" y="547" name="topright"/>
  <outline>
    <contour>
      <point x="371" y="-240" type="curve" smooth="yes"/>
      <point x="414" y="-240"/>
      <point x="460" y="-230"/>
      <point x="484" y="-217" type="curve"/>
      <point x="457" y="-124" type="line"/>
      <point x="442" y="-131"/>
      <point x="420" y="-138"/>
      <point x="398" y="-138" type="curve" smooth="yes"/>
      <point x="361" y="-138"/>
      <point x="345" y="-118"/>
      <point x="345" y="-96" type="curve" smooth="yes"/>
      <point x="345" y="-62"/>
      <point x="367" y="-26"/>
      <point x="466" y="11" type="curve" smooth="yes"/>
      <point x="582" y="55"/>
      <point x="657" y="151"/>
      <point x="657" y="274" type="curve" smooth="yes"/>
      <point x="657" y="440"/>
      <point x="525" y="557"/>
      <point x="339" y="557" type="curve" smooth="yes"/>
      <point x="154" y="557"/>
      <point x="21" y="440"/>
      <point x="21" y="274" type="curve" smooth="yes"/>
      <point x="21" y="108"/>
      <point x="154" y="-10"/>
      <point x="339" y="-10" type="curve" smooth="yes"/>
      <point x="355" y="-10"/>
      <point x="370" y="-8"/>
      <point x="386" y="-6" type="curve"/>
      <point x="380" y="39" type="line"/>
      <point x="274" y="16"/>
      <point x="213" y="-43"/>
      <point x="213" y="-117" type="curve" smooth="yes"/>
      <point x="213" y="-192"/>
      <point x="271" y="-240"/>
    </contour>
    <contour>
      <point x="339" y="166" type="curve" smooth="yes"/>
      <point x="289" y="166"/>
      <point x="250" y="203"/>
      <point x="250" y="274" type="curve" smooth="yes"/>
      <point x="250" y="345"/>
      <point x="289" y="381"/>
      <point x="339" y="381" type="curve" smooth="yes"/>
      <point x="389" y="381"/>
      <point x="428" y="345"/>
      <point x="428" y="274" type="curve" smooth="yes"/>
      <point x="428" y="203"/>
      <point x="389" y="166"/>
    </contour>
  </outline>
</glyph>
<glyph name="jdotless" format="2">
  <advance width="334"/>
  <unicode hex="0237"/>
  <anchor x="171" y="547" name="top"/>
  <outline>
    <contour>
      <point x="45" y="-204" type="curve" smooth="yes"/>
      <point x="196" y="-204"/>
      <point x="284" y="-113"/>
      <point x="284" y="28" type="curve" smooth="yes"/>
      <point x="284" y="547" type="line"/>
      <point x="58" y="547" type="line"/>
      <point x="58" y="30" type="line" smooth="yes"/>
      <point x="58" y="-14"/>
      <point x="38" y="-33"/>
      <point x="11" y="-33" type="curve" smooth="yes"/>
      <point x="-7" y="-33"/>
      <point x="-25" y="-28"/>
      <point x="-40" y="-20" type="curve"/>
      <point x="-94" y="-177" type="line"/>
      <point x="-59" y="-195"/>
      <point x="-8" y="-204"/>
    </contour>
  </outline>
</glyph>
<glyph name="primemod" format="2">
  <advance width="254"/>
  <unicode hex="02B9"/>
  <outline>
    <contour>
      <point x="47" y="400" type="line"/>
      <point x="207" y="400" type="line"/>
      <point x="222" y="700" type="line"/>
      <point x="32" y="700" type="line"/>
    </contour>
  </outline>
</glyph>
<glyph name="ringhalfright" format="2">
  <advance width="600"/>
  <unicode hex="02BE"/>
  <outline>
    <contour>
      <point x="300" y="590" type="line"/>
      <point x="379" y="590"/>
      <point x="440" y="649"/>
      <point x="440" y="724" type="curve" smooth="yes"/>
      <point x="440" y="799"/>
      <point x="379" y="858"/>
      <point x="300" y="858" type="curve"/>
      <point x="300" y="778" type="line"/>
      <point x="330" y="778"/>
      <point x="354" y="756"/>
      <point x="354" y="724" type="curve" smooth="yes"/>
      <point x="354" y="692"/>
      <point x="330" y="670"/>
      <point x="300" y="670" type="curve"/>
    </contour>
  </outline>
</glyph>
<glyph name="ringhalfleft" format="2">
  <advance width="600"/>
  <unicode hex="02BF"/>
  <outline>
    <contour>
      <point x="300" y="590" type="curve"/>
      <point x="300" y="670" type="line"/>
      <point x="270" y="670"/>
      <point x="246" y="692"/>
      <point x="246" y="724" type="curve" smooth="yes"/>
      <point x="246" y="756"/>
      <point x="270" y="778"/>
      <point x="300" y="778" type="curve"/>
      <point x="300" y="858" type="line"/>
      <point x="221" y="858"/>
      <point x="160" y="799"/>
      <point x="160" y="724" type="curve" smooth="yes"/>
      <point x="160" y="649"/>
      <point x="221" y="590"/>
    </contour>
  </outline>
</glyph>
<glyph name="secondtonechinese" format="2">
  <advance width="600"/>
  <unicode hex="02CA"/>
  <anchor x="300" y="547" name="_top"/>
  <anchor x="300" y="760" name="top"/>
  <outline>
    <contour>
      <point x="195" y="607" type="line"/>
      <point x="345" y="607" type="line"/>
      <point x="542" y="767" type="line"/>
      <point x="327" y="767" type="line"/>
    </contour>
  </outline>
</glyph>
<glyph name="fourthtonechinese" format="2">
  <advance width="600"/>
  <unicode hex="02CB"/>
  <anchor x="300" y="547" name="_top"/>
  <anchor x="300" y="760" name="top"/>
  <outline>
    <contour>
      <point x="255" y="607" type="line"/>
      <point x="405" y="607" type="line"/>
      <point x="273" y="767" type="line"/>
      <point x="58" y="767" type="line"/>
    </contour>
  </outline>
</glyph>
<glyph name="tildecomb" format="2">
  <unicode hex="0303"/>
  <anchor x="300" y="547" name="_top"/>
  <anchor x="300" y="750" name="top"/>
  <outline>
    <contour>
      <point x="381" y="597" type="curve" smooth="yes"/>
      <point x="466" y="597"/>
      <point x="517" y="665"/>
      <point x="519" y="767" type="curve"/>
      <point x="412" y="767" type="line"/>
      <point x="410" y="739"/>
      <point x="393" y="721"/>
      <point x="367" y="721" type="curve" smooth="yes"/>
      <point x="331" y="721"/>
      <point x="293" y="780"/>
      <point x="219" y="780" type="curve" smooth="yes"/>
      <point x="134" y="780"/>
      <point x="83" y="712"/>
      <point x="81" y="607" type="curve"/>
      <point x="188" y="607" type="line"/>
      <point x="190" y="637"/>
      <point x="207" y="656"/>
      <point x="233" y="656" type="curve" smooth="yes"/>
      <point x="269" y="656"/>
      <point x="307" y="597"/>
    </contour>
  </outline>
</glyph>
<glyph name="macroncomb" format="2">
  <unicode hex="0304"/>
  <anchor x="300" y="547" name="_top"/>
  <anchor x="300" y="730" name="top"/>
  <outline>
    <contour>
      <point x="90" y="628" type="line"/>
      <point x="510" y="628" type="line"/>
      <point x="510" y="746" type="line"/>
      <point x="90" y="746" type="line"/>
    </contour>
  </outline>
</glyph>
<glyph name="horncomb" format="2">
  <unicode hex="031B"/>
  <anchor x="300" y="547" name="_topright"/>
  <outline>
    <contour>
      <point x="270" y="409" type="line"/>
      <point x="300" y="409" type="line" smooth="yes"/>
      <point x="432" y="409"/>
      <point x="510" y="477"/>
      <point x="510" y="599" type="curve" smooth="yes"/>
      <point x="510" y="644"/>
      <point x="496" y="681"/>
      <point x="473" y="710" type="curve"/>
      <point x="345" y="665" type="line"/>
      <point x="357" y="651"/>
      <point x="365" y="630"/>
      <point x="365" y="608" type="curve" smooth="yes"/>
      <point x="365" y="571"/>
      <point x="338" y="547"/>
      <point x="310" y="547" type="curve" smooth="yes"/>
      <point x="270" y="547" type="line"/>
    </contour>
  </outline>
</glyph>
<glyph name="dotbelowcomb" format="2">
  <unicode hex="0323"/>
  <anchor x="300" y="0" name="_bottom"/>
  <anchor x="300" y="-191" name="bottom"/>
  <outline>
    <contour>
      <point x="300" y="-226" type="curve" smooth="yes"/>
      <point x="351" y="-226"/>
      <point x="390" y="-192"/>
      <point x="390" y="-139" type="curve" smooth="yes"/>
      <point x="390" y="-86"/>
      <point x="351" y="-50"/>
      <point x="300" y="-50" type="curve" smooth="yes"/>
      <point x="249" y="-50"/>
      <point x="210" y="-86"/>
      <point x="210" y="-139" type="curve" smooth="yes"/>
      <point x="210" y="-192"/>
      <point x="249" y="-226"/>
    </contour>
  </outline>
</glyph>
<glyph name="brevebelowcomb" format="2">
  <unicode hex="032E"/>
  <anchor x="300" y="0" name="_bottom"/>
  <anchor x="300" y="-198" name="bottom"/>
  <outline>
    <contour>
      <point x="300" y="-225" type="curve" smooth="yes"/>
      <point x="420" y="-225"/>
      <point x="503" y="-162"/>
      <point x="509" y="-67" type="curve"/>
      <point x="382" y="-67" type="line"/>
      <point x="378" y="-101"/>
      <point x="346" y="-124"/>
      <point x="300" y="-124" type="curve" smooth="yes"/>
      <point x="254" y="-124"/>
      <point x="222" y="-101"/>
      <point x="218" y="-67" type="curve"/>
      <point x="91" y="-67" type="line"/>
      <point x="97" y="-162"/>
      <point x="180" y="-225"/>
    </contour>
  </outline>
</glyph>
<glyph name="macronbelowcomb" format="2">
  <unicode hex="0331"/>
  <anchor x="300" y="0" name="_bottom"/>
  <anchor x="300" y="-176" name="bottom"/>
  <outline>
    <contour>
      <point x="90" y="-192" type="line"/>
      <point x="510" y="-192" type="line"/>
      <point x="510" y="-74" type="line"/>
      <point x="90" y="-74" type="line"/>
    </contour>
  </outline>
</glyph>
<glyph name="strokeshortcomb" format="2">
  <unicode hex="0335"/>
  <anchor x="300" y="433" name="_center"/>
  <outline>
    <contour>
      <point x="86" y="378" type="line"/>
      <point x="514" y="378" type="line"/>
      <point x="514" y="488" type="line"/>
      <point x="86" y="488" type="line"/>
    </contour>
  </outline>
</glyph>
<glyph name="slashshortcomb" format="2">
  <unicode hex="0337"/>
  <anchor x="300" y="401" name="_center"/>
  <outline>
    <contour>
      <point x="139" y="205" type="line"/>
      <point x="531" y="495" type="line"/>
      <point x="461" y="595" type="line"/>
      <point x="69" y="305" type="line"/>
    </contour>
  </outline>
</glyph>
<glyph name="Omega" format="2">
  <advance width="878"/>
  <unicode hex="03A9"/>
  <outline>
    <contour>
      <point x="8" y="0" type="line"/>
      <point x="398" y="0" type="line"/>
      <point x="398" y="170" type="line"/>
      <point x="327" y="206"/>
      <point x="282" y="277"/>
      <point x="282" y="361" type="curve" smooth="yes"/>
      <point x="282" y="467"/>
      <point x="352" y="525"/>
      <point x="439" y="525" type="curve" smooth="yes"/>
      <point x="526" y="525"/>
      <point x="596" y="467"/>
      <point x="596" y="361" type="curve" smooth="yes"/>
      <point x="596" y="278"/>
      <point x="552" y="208"/>
      <point x="480" y="170" type="curve"/>
      <point x="480" y="0" type="line"/>
      <point x="870" y="0" type="line"/>
      <point x="870" y="183" type="line"/>
      <point x="750" y="183" type="line"/>
      <point x="797" y="233"/>
      <point x="830" y="305"/>
      <point x="830" y="393" type="curve" smooth="yes"/>
      <point x="830" y="583"/>
      <point x="661" y="716"/>
      <point x="439" y="716" type="curve" smooth="yes"/>
      <point x="217" y="716"/>
      <point x="48" y="583"/>
      <point x="48" y="394" type="curve" smooth="yes"/>
      <point x="48" y="306"/>
      <point x="81" y="233"/>
      <point x="128" y="183" type="curve"/>
      <point x="8" y="183" type="line"/>
    </contour>
  </outline>
</glyph>
<glyph name="Dje-cy" format="2">
  <advance width="868"/>
  <unicode hex="0402"/>
  <outline>
    <contour>
      <point x="221" y="0" type="line"/>
      <point x="453" y="0" type="line"/>
      <point x="453" y="568" type="line"/>
      <point x="402" y="517" type="line"/>
      <point x="694" y="517" type="line"/>
      <point x="694" y="700" type="line"/>
      <point x="16" y="700" type="line"/>
      <point x="16" y="517" type="line"/>
      <point x="272" y="517" type="line"/>
      <point x="221" y="568" type="line"/>
    </contour>
    <contour>
      <point x="510" y="-2" type="line"/>
      <point x="684" y="-31"/>
      <point x="849" y="24"/>
      <point x="849" y="214" type="curve" smooth="yes"/>
      <point x="849" y="400"/>
      <point x="704" y="492"/>
      <point x="426" y="425" type="curve"/>
      <point x="432" y="237" type="line"/>
      <point x="534" y="288"/>
      <point x="617" y="260"/>
      <point x="617" y="211" type="curve" smooth="yes"/>
      <point x="617" y="163"/>
      <point x="552" y="164"/>
      <point x="532" y="173" type="curve"/>
    </contour>
  </outline>
</glyph>
<glyph name="Yi-cy" format="2">
  <advance width="350"/>
  <unicode hex="0407"/>
  <anchor x="175" y="0" name="bottom"/>
  <anchor x="293" y="0" name="ogonek"/>
  <anchor x="175" y="890" name="top"/>
  <anchor x="-9" y="700" name="topleft"/>
  <outline>
    <contour>
      <point x="57" y="0" type="line"/>
      <point x="293" y="0" type="line"/>
      <point x="293" y="700" type="line"/>
      <point x="57" y="700" type="line"/>
    </contour>
    <contour>
      <point x="286" y="749" type="curve" smooth="yes"/>
      <point x="337" y="749"/>
      <point x="376" y="784"/>
      <point x="376" y="837" type="curve" smooth="yes"/>
      <point x="376" y="890"/>
      <point x="337" y="926"/>
      <point x="286" y="926" type="curve" smooth="yes"/>
      <point x="235" y="926"/>
      <point x="196" y="890"/>
      <point x="196" y="837" type="curve" smooth="yes"/>
      <point x="196" y="784"/>
      <point x="235" y="749"/>
    </contour>
    <contour>
      <point x="64" y="749" type="curve" smooth="yes"/>
      <point x="115" y="749"/>
      <point x="154" y="784"/>
      <point x="154" y="837" type="curve" smooth="yes"/>
      <point x="154" y="890"/>
      <point x="115" y="926"/>
      <point x="64" y="926" type="curve" smooth="yes"/>
      <point x="13" y="926"/>
      <point x="-26" y="890"/>
      <point x="-26" y="837" type="curve" smooth="yes"/>
      <point x="-26" y="784"/>
      <point x="13" y="749"/>
    </contour>
  </outline>
</glyph>
<glyph name="Dzhe-cy" format="2">
  <advance width="810"/>
  <unicode hex="040F"/>
  <outline>
    <contour>
      <point x="748" y="700" type="line"/>
      <point x="516" y="700" type="line"/>
      <point x="516" y="183" type="line"/>
      <point x="294" y="183" type="line"/>
      <point x="294" y="700" type="line"/>
      <point x="62" y="700" type="line"/>
      <point x="62" y="0" type="line"/>
      <point x="297" y="0" type="line"/>
      <point x="297" y="-137" type="line"/>
      <point x="513" y="-137" type="line"/>
      <point x="513" y="0" type="line"/>
      <point x="748" y="0" type="line"/>
    </contour>
  </outline>
</glyph>
<glyph name="Be-cy" format="2">
  <advance width="745"/>
  <unicode hex="0411"/>
  <guideline x="741" y="503" angle="90"/>
  <guideline x="574" y="356" angle="0"/>
  <outline>
    <contour>
      <point x="62" y="0" type="line"/>
      <point x="431" y="0" type="line" smooth="yes"/>
      <point x="616" y="0"/>
      <point x="726" y="86"/>
      <point x="726" y="229" type="curve" smooth="yes"/>
      <point x="726" y="366"/>
      <point x="632" y="441"/>
      <point x="461" y="441" type="curve" smooth="yes"/>
      <point x="294" y="441" type="line"/>
      <point x="294" y="522" type="line"/>
      <point x="669" y="522" type="line"/>
      <point x="669" y="700" type="line"/>
      <point x="62" y="700" type="line"/>
    </contour>
    <contour>
      <point x="294" y="165" type="line"/>
      <point x="294" y="277" type="line"/>
      <point x="415" y="277" type="line" smooth="yes"/>
      <point x="464" y="277"/>
      <point x="489" y="259"/>
      <point x="489" y="223" type="curve" smooth="yes"/>
      <point x="489" y="186"/>
      <point x="462" y="165"/>
      <point x="415" y="165" type="curve" smooth="yes"/>
    </contour>
  </outline>
</glyph>
<glyph name="Ge-cy" format="2">
  <advance width="611"/>
  <unicode hex="0413"/>
  <anchor x="62" y="0" name="_bottomleft"/>
  <anchor x="62" y="0" name="bottomleft"/>
  <anchor x="536" y="0" name="bottomright"/>
  <anchor x="318" y="700" name="top"/>
  <outline>
    <contour>
      <point x="62" y="0" type="line"/>
      <point x="294" y="0" type="line"/>
      <point x="294" y="568" type="line"/>
      <point x="243" y="517" type="line"/>
      <point x="595" y="517" type="line"/>
      <point x="595" y="700" type="line"/>
      <point x="62" y="700" type="line"/>
    </contour>
  </outline>
</glyph>
<glyph name="Ze-cy" format="2">
  <advance width="672"/>
  <unicode hex="0417"/>
  <anchor x="307" y="0" name="bottom"/>
  <anchor x="328" y="700" name="top"/>
  <outline>
    <contour>
      <point x="13" y="46" type="line"/>
      <point x="298" y="-80"/>
      <point x="650" y="-4"/>
      <point x="650" y="197" type="curve" smooth="yes"/>
      <point x="650" y="304"/>
      <point x="558" y="384"/>
      <point x="421" y="384" type="curve"/>
      <point x="416" y="337" type="line"/>
      <point x="534" y="337"/>
      <point x="622" y="409"/>
      <point x="622" y="510" type="curve" smooth="yes"/>
      <point x="622" y="702"/>
      <point x="278" y="776"/>
      <point x="31" y="661" type="curve"/>
      <point x="100" y="489" type="line"/>
      <point x="223" y="550"/>
      <point x="384" y="552"/>
      <point x="384" y="483" type="curve" smooth="yes"/>
      <point x="384" y="457"/>
      <point x="363" y="441"/>
      <point x="323" y="441" type="curve" smooth="yes"/>
      <point x="154" y="441" type="line"/>
      <point x="154" y="271" type="line"/>
      <point x="343" y="271" type="line" smooth="yes"/>
      <point x="381" y="271"/>
      <point x="412" y="261"/>
      <point x="412" y="229" type="curve" smooth="yes"/>
      <point x="412" y="153"/>
      <point x="230" y="149"/>
      <point x="82" y="209" type="curve"/>
    </contour>
  </outline>
</glyph>
<glyph name="Ii-cy" format="2">
  <advance width="819"/>
  <unicode hex="0418"/>
  <anchor x="537" y="0" name="bottomleft"/>
  <anchor x="793" y="0" name="bottomright"/>
  <anchor x="410" y="700" name="top"/>
  <outline>
    <contour>
      <point x="62" y="0" type="line"/>
      <point x="285" y="0" type="line"/>
      <point x="525" y="363" type="line"/>
      <point x="525" y="0" type="line"/>
      <point x="757" y="0" type="line"/>
      <point x="757" y="700" type="line"/>
      <point x="535" y="700" type="line"/>
      <point x="294" y="336" type="line"/>
      <point x="294" y="700" type="line"/>
      <point x="62" y="700" type="line"/>
    </contour>
  </outline>
</glyph>
<glyph name="El-cy" format="2">
  <advance width="807"/>
  <unicode hex="041B"/>
  <anchor x="513" y="0" name="#exit"/>
  <anchor x="513" y="0" name="bottomleft"/>
  <outline>
    <contour>
      <point x="114" y="-13" type="curve" smooth="yes"/>
      <point x="307" y="-13"/>
      <point x="343" y="166"/>
      <point x="351" y="436" type="curve" smooth="yes"/>
      <point x="355" y="570" type="line"/>
      <point x="309" y="517" type="line"/>
      <point x="564" y="517" type="line"/>
      <point x="513" y="567" type="line"/>
      <point x="513" y="0" type="line"/>
      <point x="745" y="0" type="line"/>
      <point x="745" y="700" type="line"/>
      <point x="154" y="700" type="line"/>
      <point x="145" y="427" type="line" smooth="yes"/>
      <point x="140" y="291"/>
      <point x="130" y="186"/>
      <point x="52" y="186" type="curve" smooth="yes"/>
      <point x="44" y="186"/>
      <point x="35" y="187"/>
      <point x="26" y="189" type="curve"/>
      <point x="14" y="0" type="line"/>
      <point x="51" y="-9"/>
      <point x="85" y="-13"/>
    </contour>
  </outline>
</glyph>
<glyph name="Em-cy" format="2">
  <advance width="963"/>
  <unicode hex="041C"/>
  <anchor x="481" y="0" name="bottom"/>
  <anchor x="692" y="0" name="bottomleft"/>
  <anchor x="481" y="700" name="top"/>
  <outline>
    <contour>
      <point x="62" y="0" type="line"/>
      <point x="277" y="0" type="line"/>
      <point x="277" y="376" type="line"/>
      <point x="235" y="376" type="line"/>
      <point x="429" y="63" type="line"/>
      <point x="533" y="63" type="line"/>
      <point x="719" y="376" type="line"/>
      <point x="685" y="376" type="line"/>
      <point x="687" y="0" type="line"/>
      <point x="902" y="0" type="line"/>
      <point x="900" y="700" type="line"/>
      <point x="706" y="700" type="line"/>
      <point x="434" y="243" type="line"/>
      <point x="536" y="243" type="line"/>
      <point x="256" y="700" type="line"/>
      <point x="62" y="700" type="line"/>
    </contour>
  </outline>
</glyph>
<glyph name="Te-cy" format="2">
  <advance width="674"/>
  <unicode hex="0422"/>
  <anchor x="341" y="0" name="bottom"/>
  <anchor x="221" y="0" name="bottomleft"/>
  <anchor x="341" y="315" name="center"/>
  <anchor x="341" y="700" name="top"/>
  <outline>
    <contour>
      <point x="221" y="0" type="line"/>
      <point x="453" y="0" type="line"/>
      <point x="453" y="568" type="line"/>
      <point x="402" y="517" type="line"/>
      <point x="658" y="517" type="line"/>
      <point x="658" y="700" type="line"/>
      <point x="16" y="700" type="line"/>
      <point x="16" y="517" type="line"/>
      <point x="272" y="517" type="line"/>
      <point x="221" y="568" type="line"/>
    </contour>
  </outline>
</glyph>
<glyph name="U-cy" format="2">
  <advance width="764"/>
  <unicode hex="0423"/>
  <anchor x="382" y="700" name="top"/>
  <outline>
    <contour>
      <point x="118" y="183" type="curve"/>
      <point x="63" y="13" type="line"/>
      <point x="237" y="-57"/>
      <point x="389" y="1"/>
      <point x="481" y="173" type="curve" smooth="yes"/>
      <point x="762" y="700" type="line"/>
      <point x="534" y="700" type="line"/>
      <point x="331" y="285" type="line"/>
      <point x="311" y="263" type="line"/>
      <point x="277" y="215" type="line" smooth="yes"/>
      <point x="241" y="165"/>
      <point x="201" y="161"/>
    </contour>
    <contour>
      <point x="328" y="100" type="line"/>
      <point x="456" y="263" type="line"/>
      <point x="251" y="700" type="line"/>
      <point x="2" y="700" type="line"/>
    </contour>
  </outline>
</glyph>
<glyph name="Che-cy" format="2">
  <advance width="765"/>
  <unicode hex="0427"/>
  <anchor x="471" y="0" name="bottomleft"/>
  <anchor x="745" y="0" name="bottomright"/>
  <anchor x="373" y="700" name="top"/>
  <outline>
    <contour>
      <point x="502" y="235" type="curve"/>
      <point x="496" y="419" type="line"/>
      <point x="468" y="400"/>
      <point x="426" y="390"/>
      <point x="374" y="390" type="curve" smooth="yes"/>
      <point x="298" y="390"/>
      <point x="261" y="430"/>
      <point x="261" y="515" type="curve" smooth="yes"/>
      <point x="261" y="700" type="line"/>
      <point x="29" y="700" type="line"/>
      <point x="29" y="489" type="line" smooth="yes"/>
      <point x="29" y="302"/>
      <point x="138" y="203"/>
      <point x="344" y="203" type="curve" smooth="yes"/>
      <point x="392" y="203"/>
      <point x="442" y="213"/>
    </contour>
    <contour>
      <point x="471" y="0" type="line"/>
      <point x="703" y="0" type="line"/>
      <point x="703" y="700" type="line"/>
      <point x="471" y="700" type="line"/>
    </contour>
  </outline>
</glyph>
<glyph name="Hardsign-cy" format="2">
  <advance width="865"/>
  <unicode hex="042A"/>
  <guideline x="597" y="440" angle="0"/>
  <outline>
    <contour>
      <point x="573" y="485" type="curve" smooth="yes"/>
      <point x="428" y="485" type="line"/>
      <point x="428" y="700" type="line"/>
      <point x="16" y="700" type="line"/>
      <point x="16" y="517" type="line"/>
      <point x="196" y="517" type="line"/>
      <point x="196" y="0" type="line"/>
      <point x="543" y="0" type="line" smooth="yes"/>
      <point x="728" y="0"/>
      <point x="846" y="87"/>
      <point x="846" y="254" type="curve" smooth="yes"/>
      <point x="846" y="409"/>
      <point x="744" y="485"/>
    </contour>
    <contour>
      <point x="527" y="165" type="curve" smooth="yes"/>
      <point x="428" y="165" type="line"/>
      <point x="428" y="320" type="line"/>
      <point x="527" y="320" type="line" smooth="yes"/>
      <point x="574" y="320"/>
      <point x="609" y="303"/>
      <point x="609" y="250" type="curve" smooth="yes"/>
      <point x="609" y="196"/>
      <point x="574" y="165"/>
    </contour>
  </outline>
</glyph>
<glyph name="Ereversed-cy" format="2">
  <advance width="723"/>
  <unicode hex="042D"/>
  <guideline x="-7" y="537" angle="90"/>
  <anchor x="342" y="700" name="top"/>
  <outline>
    <contour>
      <point x="228" y="267" type="line"/>
      <point x="541" y="267" type="line"/>
      <point x="541" y="437" type="line"/>
      <point x="228" y="437" type="line"/>
    </contour>
    <contour>
      <point x="323" y="716" type="curve" smooth="yes"/>
      <point x="186" y="716"/>
      <point x="78" y="666"/>
      <point x="9" y="576" type="curve"/>
      <point x="158" y="443" type="line"/>
      <point x="199" y="495"/>
      <point x="248" y="525"/>
      <point x="311" y="525" type="curve" smooth="yes"/>
      <point x="404" y="525"/>
      <point x="460" y="457"/>
      <point x="460" y="350" type="curve" smooth="yes"/>
      <point x="460" y="243"/>
      <point x="404" y="175"/>
      <point x="311" y="175" type="curve" smooth="yes"/>
      <point x="248" y="175"/>
      <point x="199" y="205"/>
      <point x="158" y="257" type="curve"/>
      <point x="9" y="124" type="line"/>
      <point x="78" y="34"/>
      <point x="186" y="-16"/>
      <point x="323" y="-16" type="curve" smooth="yes"/>
      <point x="543" y="-16"/>
      <point x="698" y="135"/>
      <point x="698" y="350" type="curve" smooth="yes"/>
      <point x="698" y="565"/>
      <point x="543" y="716"/>
    </contour>
  </outline>
</glyph>
<glyph name="Ia-cy" format="2">
  <advance width="738"/>
  <unicode hex="042F"/>
  <outline>
    <contour>
      <point x="444" y="0" type="line"/>
      <point x="676" y="0" type="line"/>
      <point x="676" y="700" type="line"/>
      <point x="348" y="700" type="line" smooth="yes"/>
      <point x="149" y="700"/>
      <point x="24" y="596"/>
      <point x="24" y="429" type="curve" smooth="yes"/>
      <point x="24" y="265"/>
      <point x="143" y="166"/>
      <point x="338" y="166" type="curve" smooth="yes"/>
      <point x="499" y="166" type="line"/>
      <point x="444" y="213" type="line"/>
    </contour>
    <contour>
      <point x="27" y="0" type="line"/>
      <point x="274" y="0" type="line"/>
      <point x="438" y="255" type="line"/>
      <point x="203" y="255" type="line"/>
    </contour>
    <contour>
      <point x="444" y="287" type="line"/>
      <point x="499" y="344" type="line"/>
      <point x="352" y="344" type="line" smooth="yes"/>
      <point x="293" y="344"/>
      <point x="262" y="374"/>
      <point x="262" y="433" type="curve" smooth="yes"/>
      <point x="262" y="490"/>
      <point x="292" y="518"/>
      <point x="352" y="518" type="curve" smooth="yes"/>
      <point x="499" y="518" type="line"/>
      <point x="444" y="575" type="line"/>
    </contour>
  </outline>
</glyph>
<glyph name="be-cy" format="2">
  <advance width="686"/>
  <unicode hex="0431"/>
  <guideline x="227" y="758" angle="0"/>
  <guideline x="227" y="454" angle="0"/>
  <outline>
    <contour>
      <point x="349" y="-16" type="curve" smooth="yes"/>
      <point x="532" y="-16"/>
      <point x="669" y="80"/>
      <point x="669" y="244" type="curve" smooth="yes"/>
      <point x="669" y="378"/>
      <point x="577" y="476"/>
      <point x="417" y="476" type="curve" smooth="yes"/>
      <point x="310" y="476"/>
      <point x="240" y="432"/>
      <point x="188" y="361" type="curve"/>
      <point x="245" y="311" type="line"/>
      <point x="244" y="354"/>
      <point x="241" y="357"/>
      <point x="241" y="382" type="curve" smooth="yes"/>
      <point x="241" y="515"/>
      <point x="330" y="531"/>
      <point x="404" y="544" type="curve" smooth="yes"/>
      <point x="634" y="585" type="line"/>
      <point x="604" y="770" type="line"/>
      <point x="332" y="721" type="line" smooth="yes"/>
      <point x="117" y="682"/>
      <point x="28" y="540"/>
      <point x="28" y="334" type="curve" smooth="yes"/>
      <point x="28" y="73"/>
      <point x="172" y="-16"/>
    </contour>
    <contour>
      <point x="353" y="151" type="curve" smooth="yes"/>
      <point x="300" y="151"/>
      <point x="265" y="190"/>
      <point x="265" y="242" type="curve" smooth="yes"/>
      <point x="265" y="289"/>
      <point x="300" y="321"/>
      <point x="353" y="321" type="curve" smooth="yes"/>
      <point x="403" y="321"/>
      <point x="439" y="290"/>
      <point x="439" y="239" type="curve" smooth="yes"/>
      <point x="439" y="189"/>
      <point x="404" y="151"/>
    </contour>
  </outline>
</glyph>
<glyph name="ve-cy" format="2">
  <advance width="629"/>
  <unicode hex="0432"/>
  <anchor x="327" y="0" name="bottom"/>
  <anchor x="327" y="547" name="top"/>
  <outline>
    <contour>
      <point x="53" y="0" type="line"/>
      <point x="376" y="0" type="line" smooth="yes"/>
      <point x="532" y="0"/>
      <point x="608" y="63"/>
      <point x="608" y="160" type="curve" smooth="yes"/>
      <point x="608" y="254"/>
      <point x="536" y="305"/>
      <point x="402" y="305" type="curve"/>
      <point x="385" y="259" type="line"/>
      <point x="512" y="259"/>
      <point x="592" y="316"/>
      <point x="592" y="404" type="curve" smooth="yes"/>
      <point x="592" y="494"/>
      <point x="507" y="547"/>
      <point x="360" y="547" type="curve" smooth="yes"/>
      <point x="53" y="547" type="line"/>
    </contour>
    <contour>
      <point x="251" y="140" type="line"/>
      <point x="251" y="220" type="line"/>
      <point x="356" y="220" type="line" smooth="yes"/>
      <point x="389" y="220"/>
      <point x="405" y="207"/>
      <point x="405" y="181" type="curve" smooth="yes"/>
      <point x="405" y="155"/>
      <point x="389" y="140"/>
      <point x="356" y="140" type="curve" smooth="yes"/>
    </contour>
    <contour>
      <point x="251" y="331" type="line"/>
      <point x="251" y="407" type="line"/>
      <point x="340" y="407" type="line" smooth="yes"/>
      <point x="374" y="407"/>
      <point x="389" y="396"/>
      <point x="389" y="370" type="curve" smooth="yes"/>
      <point x="389" y="344"/>
      <point x="374" y="331"/>
      <point x="340" y="331" type="curve" smooth="yes"/>
    </contour>
  </outline>
</glyph>
<glyph name="ge-cy" format="2">
  <advance width="543"/>
  <unicode hex="0433"/>
  <anchor x="53" y="0" name="_bottomleft"/>
  <anchor x="53" y="0" name="bottomleft"/>
  <anchor x="477" y="0" name="bottomright"/>
  <anchor x="294" y="547" name="top"/>
  <outline>
    <contour>
      <point x="53" y="0" type="line"/>
      <point x="278" y="0" type="line"/>
      <point x="278" y="419" type="line"/>
      <point x="229" y="371" type="line"/>
      <point x="531" y="371" type="line"/>
      <point x="531" y="547" type="line"/>
      <point x="53" y="547" type="line"/>
    </contour>
  </outline>
</glyph>
<glyph name="el-cy" format="2">
  <advance width="696"/>
  <unicode hex="043B"/>
  <anchor x="417" y="0" name="#exit"/>
  <anchor x="417" y="0" name="bottomleft"/>
  <outline>
    <contour>
      <point x="11" y="0" type="line"/>
      <point x="51" y="-10"/>
      <point x="86" y="-15"/>
      <point x="116" y="-15" type="curve" smooth="yes"/>
      <point x="265" y="-15"/>
      <point x="303" y="102"/>
      <point x="311" y="300" type="curve" smooth="yes"/>
      <point x="316" y="421" type="line"/>
      <point x="270" y="371" type="line"/>
      <point x="466" y="371" type="line"/>
      <point x="417" y="418" type="line"/>
      <point x="417" y="0" type="line"/>
      <point x="643" y="0" type="line"/>
      <point x="643" y="547" type="line"/>
      <point x="121" y="547" type="line"/>
      <point x="113" y="309" type="line" smooth="yes"/>
      <point x="110" y="227"/>
      <point x="101" y="181"/>
      <point x="43" y="181" type="curve" smooth="yes"/>
      <point x="36" y="181"/>
      <point x="28" y="182"/>
      <point x="20" y="183" type="curve"/>
    </contour>
  </outline>
</glyph>
<glyph name="em-cy" format="2">
  <advance width="835"/>
  <unicode hex="043C"/>
  <anchor x="417" y="0" name="bottom"/>
  <anchor x="580" y="0" name="bottomleft"/>
  <anchor x="417" y="547" name="top"/>
  <outline>
    <contour>
      <point x="53" y="0" type="line"/>
      <point x="256" y="0" type="line"/>
      <point x="256" y="332" type="line"/>
      <point x="217" y="322" type="line"/>
      <point x="368" y="43" type="line"/>
      <point x="463" y="43" type="line"/>
      <point x="614" y="305" type="line"/>
      <point x="579" y="329" type="line"/>
      <point x="580" y="0" type="line"/>
      <point x="783" y="0" type="line"/>
      <point x="781" y="547" type="line"/>
      <point x="569" y="547" type="line"/>
      <point x="372" y="206" type="line"/>
      <point x="466" y="206" type="line"/>
      <point x="292" y="547" type="line"/>
      <point x="53" y="547" type="line"/>
    </contour>
  </outline>
</glyph>
<glyph name="en-cy" format="2">
  <advance width="710"/>
  <unicode hex="043D"/>
  <anchor x="355" y="0" name="bottom"/>
  <anchor x="432" y="0" name="bottomleft"/>
  <anchor x="355" y="458" name="center"/>
  <anchor x="355" y="547" name="top"/>
  <outline>
    <contour>
      <point x="53" y="0" type="line"/>
      <point x="278" y="0" type="line"/>
      <point x="278" y="178" type="line"/>
      <point x="432" y="178" type="line"/>
      <point x="432" y="0" type="line"/>
      <point x="657" y="0" type="line"/>
      <point x="657" y="547" type="line"/>
      <point x="432" y="547" type="line"/>
      <point x="432" y="355" type="line"/>
      <point x="278" y="355" type="line"/>
      <point x="278" y="547" type="line"/>
      <point x="53" y="547" type="line"/>
    </contour>
  </outline>
</glyph>
<glyph name="te-cy" format="2">
  <advance width="583"/>
  <unicode hex="0442"/>
  <anchor x="295" y="0" name="bottom"/>
  <anchor x="179" y="0" name="bottomleft"/>
  <anchor x="295" y="238" name="center"/>
  <anchor x="295" y="547" name="top"/>
  <outline>
    <contour>
      <point x="179" y="0" type="line"/>
      <point x="404" y="0" type="line"/>
      <point x="404" y="419" type="line"/>
      <point x="355" y="371" type="line"/>
      <point x="571" y="371" type="line"/>
      <point x="571" y="547" type="line"/>
      <point x="12" y="547" type="line"/>
      <point x="12" y="371" type="line"/>
      <point x="228" y="371" type="line"/>
      <point x="179" y="419" type="line"/>
    </contour>
  </outline>
</glyph>
<glyph name="ef-cy" format="2">
  <advance width="900"/>
  <unicode hex="0444"/>
  <outline>
    <contour>
      <point x="469" y="-16" type="curve" smooth="yes"/>
      <point x="734" y="-16"/>
      <point x="882" y="83"/>
      <point x="882" y="276" type="curve" smooth="yes"/>
      <point x="882" y="465"/>
      <point x="734" y="559"/>
      <point x="469" y="559" type="curve" smooth="yes"/>
      <point x="464" y="559"/>
      <point x="419" y="559"/>
      <point x="415" y="559" type="curve" smooth="yes"/>
      <point x="154" y="556"/>
      <point x="18" y="462"/>
      <point x="18" y="276" type="curve" smooth="yes"/>
      <point x="18" y="87"/>
      <point x="158" y="-12"/>
      <point x="412" y="-16" type="curve" smooth="yes"/>
      <point x="418" y="-16"/>
      <point x="463" y="-16"/>
    </contour>
    <contour>
      <point x="460" y="140" type="curve" smooth="yes"/>
      <point x="455" y="140"/>
      <point x="431" y="140"/>
      <point x="426" y="140" type="curve" smooth="yes"/>
      <point x="278" y="142"/>
      <point x="232" y="180"/>
      <point x="232" y="276" type="curve" smooth="yes"/>
      <point x="232" y="365"/>
      <point x="278" y="402"/>
      <point x="427" y="403" type="curve" smooth="yes"/>
      <point x="432" y="403"/>
      <point x="456" y="403"/>
      <point x="460" y="403" type="curve" smooth="yes"/>
      <point x="619" y="403"/>
      <point x="669" y="369"/>
      <point x="669" y="276" type="curve" smooth="yes"/>
      <point x="669" y="177"/>
      <point x="618" y="140"/>
    </contour>
    <contour>
      <point x="352" y="-194" type="line"/>
      <point x="548" y="-194" type="line"/>
      <point x="548" y="742" type="line"/>
      <point x="352" y="742" type="line"/>
    </contour>
  </outline>
</glyph>
<glyph name="tse-cy" format="2">
  <advance width="721"/>
  <unicode hex="0446"/>
  <anchor x="400" y="0" name="_bottomleft"/>
  <outline>
    <contour>
      <point x="53" y="0" type="line"/>
      <point x="635" y="0" type="line"/>
      <point x="635" y="547" type="line"/>
      <point x="410" y="547" type="line"/>
      <point x="410" y="177" type="line"/>
      <point x="278" y="177" type="line"/>
      <point x="278" y="547" type="line"/>
      <point x="53" y="547" type="line"/>
    </contour>
    <contour>
      <point x="499" y="-108" type="line"/>
      <point x="708" y="-108" type="line"/>
      <point x="708" y="177" type="line"/>
      <point x="410" y="177" type="line"/>
      <point x="410" y="0" type="line"/>
      <point x="548" y="0" type="line"/>
      <point x="499" y="0" type="line"/>
    </contour>
  </outline>
</glyph>
<glyph name="che-cy" format="2">
  <advance width="662"/>
  <unicode hex="0447"/>
  <anchor x="384" y="0" name="bottomleft"/>
  <anchor x="642" y="0" name="bottomright"/>
  <anchor x="312" y="547" name="top"/>
  <outline>
    <contour>
      <point x="399" y="194" type="curve"/>
      <point x="398" y="346" type="line"/>
      <point x="378" y="331"/>
      <point x="349" y="322"/>
      <point x="312" y="322" type="curve" smooth="yes"/>
      <point x="269" y="322"/>
      <point x="248" y="339"/>
      <point x="248" y="395" type="curve" smooth="yes"/>
      <point x="248" y="547" type="line"/>
      <point x="23" y="547" type="line"/>
      <point x="23" y="380" type="line" smooth="yes"/>
      <point x="23" y="223"/>
      <point x="101" y="157"/>
      <point x="258" y="157" type="curve" smooth="yes"/>
      <point x="324" y="157"/>
      <point x="369" y="173"/>
    </contour>
    <contour>
      <point x="384" y="0" type="line"/>
      <point x="609" y="0" type="line"/>
      <point x="609" y="547" type="line"/>
      <point x="384" y="547" type="line"/>
    </contour>
  </outline>
</glyph>
<glyph name="yeru-cy" format="2">
  <advance width="920"/>
  <unicode hex="044B"/>
  <anchor x="175" y="452" name="center"/>
  <anchor x="459" y="547" name="top"/>
  <outline>
    <contour>
      <point x="642" y="0" type="line"/>
      <point x="867" y="0" type="line"/>
      <point x="867" y="547" type="line"/>
      <point x="642" y="547" type="line"/>
    </contour>
    <contour>
      <point x="391" y="382" type="curve" smooth="yes"/>
      <point x="278" y="382" type="line"/>
      <point x="278" y="547" type="line"/>
      <point x="53" y="547" type="line"/>
      <point x="53" y="0" type="line"/>
      <point x="363" y="0" type="line" smooth="yes"/>
      <point x="522" y="0"/>
      <point x="609" y="75"/>
      <point x="609" y="198" type="curve" smooth="yes"/>
      <point x="609" y="315"/>
      <point x="538" y="382"/>
    </contour>
    <contour>
      <point x="340" y="152" type="curve" smooth="yes"/>
      <point x="278" y="152" type="line"/>
      <point x="278" y="250" type="line"/>
      <point x="340" y="250" type="line" smooth="yes"/>
      <point x="370" y="250"/>
      <point x="389" y="236"/>
      <point x="389" y="202" type="curve" smooth="yes"/>
      <point x="389" y="167"/>
      <point x="370" y="152"/>
    </contour>
  </outline>
</glyph>
<glyph name="iu-cy" format="2">
  <advance width="934"/>
  <unicode hex="044E"/>
  <outline>
    <contour>
      <point x="53" y="0" type="line"/>
      <point x="278" y="0" type="line"/>
      <point x="278" y="184" type="line"/>
      <point x="434" y="184" type="line"/>
      <point x="434" y="371" type="line"/>
      <point x="278" y="371" type="line"/>
      <point x="278" y="547" type="line"/>
      <point x="53" y="547" type="line"/>
    </contour>
    <contour>
      <point x="609" y="-10" type="curve" smooth="yes"/>
      <point x="788" y="-10"/>
      <point x="916" y="108"/>
      <point x="916" y="274" type="curve" smooth="yes"/>
      <point x="916" y="440"/>
      <point x="788" y="557"/>
      <point x="609" y="557" type="curve" smooth="yes"/>
      <point x="430" y="557"/>
      <point x="302" y="440"/>
      <point x="302" y="274" type="curve" smooth="yes"/>
      <point x="302" y="108"/>
      <point x="430" y="-10"/>
    </contour>
    <contour>
      <point x="609" y="166" type="curve" smooth="yes"/>
      <point x="562" y="166"/>
      <point x="525" y="203"/>
      <point x="525" y="274" type="curve" smooth="yes"/>
      <point x="525" y="345"/>
      <point x="562" y="381"/>
      <point x="609" y="381" type="curve" smooth="yes"/>
      <point x="656" y="381"/>
      <point x="693" y="345"/>
      <point x="693" y="274" type="curve" smooth="yes"/>
      <point x="693" y="203"/>
      <point x="656" y="166"/>
    </contour>
  </outline>
</glyph>
<glyph name="ia-cy" format="2">
  <advance width="648"/>
  <unicode hex="044F"/>
  <guideline x="183" y="273" angle="0"/>
  <outline>
    <contour>
      <point x="395" y="0" type="line"/>
      <point x="595" y="0" type="line"/>
      <point x="595" y="547" type="line"/>
      <point x="307" y="547" type="line" smooth="yes"/>
      <point x="132" y="547"/>
      <point x="23" y="469"/>
      <point x="23" y="336" type="curve" smooth="yes"/>
      <point x="23" y="211"/>
      <point x="128" y="139"/>
      <point x="298" y="139" type="curve" smooth="yes"/>
      <point x="423" y="139" type="line"/>
      <point x="395" y="172" type="line"/>
    </contour>
    <contour>
      <point x="12" y="0" type="line"/>
      <point x="251" y="0" type="line"/>
      <point x="383" y="207" type="line"/>
      <point x="155" y="207" type="line"/>
    </contour>
    <contour>
      <point x="395" y="239" type="line"/>
      <point x="423" y="280" type="line"/>
      <point x="312" y="280" type="line" smooth="yes"/>
      <point x="274" y="280"/>
      <point x="254" y="294"/>
      <point x="254" y="328" type="curve" smooth="yes"/>
      <point x="254" y="359"/>
      <point x="274" y="372"/>
      <point x="312" y="372" type="curve" smooth="yes"/>
      <point x="423" y="372" type="line"/>
      <point x="395" y="426" type="line"/>
    </contour>
  </outline>
</glyph>
<glyph name="tshe-cy" format="2">
  <advance width="698"/>
  <unicode hex="045B"/>
  <anchor x="358" y="0" name="bottom"/>
  <anchor x="197" y="638" name="center"/>
  <anchor x="166" y="742" name="top"/>
  <anchor x="312" y="547" name="topright"/>
  <outline>
    <contour>
      <point x="-57" y="583" type="line"/>
      <point x="452" y="583" type="line"/>
      <point x="452" y="693" type="line"/>
      <point x="-57" y="693" type="line"/>
    </contour>
    <contour>
      <point x="433" y="557" type="curve" smooth="yes"/>
      <point x="344" y="557"/>
      <point x="267" y="516"/>
      <point x="225" y="433" type="curve"/>
      <point x="279" y="387" type="line"/>
      <point x="279" y="742" type="line"/>
      <point x="53" y="742" type="line"/>
      <point x="53" y="0" type="line"/>
      <point x="279" y="0" type="line"/>
      <point x="279" y="257" type="line" smooth="yes"/>
      <point x="279" y="338"/>
      <point x="318" y="367"/>
      <point x="364" y="367" type="curve" smooth="yes"/>
      <point x="405" y="367"/>
      <point x="431" y="341"/>
      <point x="431" y="273" type="curve" smooth="yes"/>
      <point x="431" y="0" type="line"/>
      <point x="657" y="0" type="line"/>
      <point x="657" y="312" type="line" smooth="yes"/>
      <point x="657" y="484"/>
      <point x="559" y="557"/>
    </contour>
  </outline>
</glyph>
<glyph name="dzhe-cy" format="2">
  <advance width="678"/>
  <unicode hex="045F"/>
  <outline>
    <contour>
      <point x="625" y="547" type="line"/>
      <point x="400" y="547" type="line"/>
      <point x="400" y="177" type="line"/>
      <point x="278" y="177" type="line"/>
      <point x="278" y="547" type="line"/>
      <point x="53" y="547" type="line"/>
      <point x="53" y="0" type="line"/>
      <point x="234" y="0" type="line"/>
      <point x="234" y="-108" type="line"/>
      <point x="444" y="-108" type="line"/>
      <point x="444" y="0" type="line"/>
      <point x="625" y="0" type="line"/>
    </contour>
  </outline>
</glyph>
<glyph name="Yusbig-cy" format="2">
  <advance width="999"/>
  <unicode hex="046A"/>
  <outline>
    <contour>
      <point x="6" y="0" type="line"/>
      <point x="247" y="0" type="line"/>
      <point x="263" y="82" type="line" smooth="yes"/>
      <point x="287" y="205"/>
      <point x="322" y="241"/>
      <point x="371" y="241" type="curve" smooth="yes"/>
      <point x="394" y="241" type="line"/>
      <point x="394" y="0" type="line"/>
      <point x="604" y="0" type="line"/>
      <point x="604" y="241" type="line"/>
      <point x="631" y="241" type="line" smooth="yes"/>
      <point x="677" y="241"/>
      <point x="712" y="202"/>
      <point x="735" y="82" type="curve" smooth="yes"/>
      <point x="751" y="0" type="line"/>
      <point x="993" y="0" type="line"/>
      <point x="953" y="131" type="line" smooth="yes"/>
      <point x="898" y="313"/>
      <point x="826" y="379"/>
      <point x="730" y="391" type="curve"/>
      <point x="729" y="391" type="line"/>
      <point x="887" y="562" type="line"/>
      <point x="887" y="700" type="line"/>
      <point x="111" y="700" type="line"/>
      <point x="111" y="562" type="line"/>
      <point x="267" y="390" type="line"/>
      <point x="266" y="390" type="line"/>
      <point x="173" y="377"/>
      <point x="105" y="311"/>
      <point x="48" y="132" type="curve" smooth="yes"/>
    </contour>
    <contour>
      <point x="363" y="544" type="line"/>
      <point x="638" y="544" type="line"/>
      <point x="500" y="393" type="line"/>
      <point x="498" y="393" type="line"/>
    </contour>
  </outline>
</glyph>
<glyph name="izhitsa-cy" format="2">
  <advance width="709"/>
  <unicode hex="0475"/>
  <outline>
    <contour>
      <point x="235" y="0" type="line"/>
      <point x="459" y="0" type="line"/>
      <point x="579" y="296" type="line" smooth="yes"/>
      <point x="602" y="353"/>
      <point x="616" y="360"/>
      <point x="679" y="345" type="curve"/>
      <point x="701" y="548" type="line"/>
      <point x="542" y="585"/>
      <point x="449" y="552"/>
      <point x="409" y="443" type="curve" smooth="yes"/>
      <point x="284" y="104" type="line"/>
      <point x="423" y="104" type="line"/>
      <point x="243" y="547" type="line"/>
      <point x="-3" y="547" type="line"/>
    </contour>
  </outline>
</glyph>
<glyph name="Semisoftsign-cy" format="2">
  <advance width="769"/>
  <unicode hex="048C"/>
  <anchor x="226" y="580" name="center"/>
  <outline>
    <contour>
      <point x="98" y="0" type="line"/>
      <point x="455" y="0" type="line" smooth="yes"/>
      <point x="640" y="0"/>
      <point x="750" y="92"/>
      <point x="750" y="246" type="curve" smooth="yes"/>
      <point x="750" y="394"/>
      <point x="656" y="475"/>
      <point x="485" y="475" type="curve" smooth="yes"/>
      <point x="330" y="475" type="line"/>
      <point x="330" y="742" type="line"/>
      <point x="98" y="742" type="line"/>
    </contour>
    <contour>
      <point x="330" y="165" type="line"/>
      <point x="330" y="310" type="line"/>
      <point x="439" y="310" type="line" smooth="yes"/>
      <point x="488" y="310"/>
      <point x="513" y="287"/>
      <point x="513" y="240" type="curve" smooth="yes"/>
      <point x="513" y="192"/>
      <point x="486" y="165"/>
      <point x="439" y="165" type="curve" smooth="yes"/>
    </contour>
    <contour>
      <point x="13" y="536" type="line"/>
      <point x="540" y="536" type="line"/>
      <point x="540" y="666" type="line"/>
      <point x="13" y="666" type="line"/>
    </contour>
  </outline>
</glyph>
<glyph name="semisoftsign-cy" format="2">
  <advance width="683"/>
  <unicode hex="048D"/>
  <outline>
    <contour>
      <point x="99" y="0" type="line"/>
      <point x="417" y="0" type="line" smooth="yes"/>
      <point x="576" y="0"/>
      <point x="673" y="68"/>
      <point x="673" y="184" type="curve" smooth="yes"/>
      <point x="673" y="290"/>
      <point x="592" y="353"/>
      <point x="445" y="353" type="curve" smooth="yes"/>
      <point x="324" y="353" type="line"/>
      <point x="324" y="547" type="line"/>
      <point x="99" y="547" type="line"/>
    </contour>
    <contour>
      <point x="394" y="140" type="curve" smooth="yes"/>
      <point x="324" y="140" type="line"/>
      <point x="324" y="231" type="line"/>
      <point x="394" y="231" type="line" smooth="yes"/>
      <point x="424" y="231"/>
      <point x="443" y="218"/>
      <point x="443" y="186" type="curve" smooth="yes"/>
      <point x="443" y="154"/>
      <point x="424" y="140"/>
    </contour>
    <contour>
      <point x="9" y="388" type="line"/>
      <point x="509" y="388" type="line"/>
      <point x="509" y="508" type="line"/>
      <point x="9" y="508" type="line"/>
    </contour>
  </outline>
</glyph>
<glyph name="Gheupturn-cy" format="2">
  <advance width="611"/>
  <unicode hex="0490"/>
  <outline>
    <contour>
      <point x="62" y="0" type="line"/>
      <point x="294" y="0" type="line"/>
      <point x="294" y="517" type="line"/>
      <point x="595" y="517" type="line"/>
      <point x="595" y="843" type="line"/>
      <point x="379" y="843" type="line"/>
      <point x="379" y="700" type="line"/>
      <point x="62" y="700" type="line"/>
    </contour>
  </outline>
</glyph>
<glyph name="Ghemiddlehook-cy" format="2">
  <advance width="710"/>
  <unicode hex="0494"/>
  <outline>
    <contour>
      <point x="62" y="0" type="line"/>
      <point x="294" y="0" type="line"/>
      <point x="294" y="568" type="line"/>
      <point x="243" y="517" type="line"/>
      <point x="616" y="517" type="line"/>
      <point x="616" y="700" type="line"/>
      <point x="62" y="700" type="line"/>
    </contour>
    <contour>
      <point x="316" y="-155" type="line"/>
      <point x="528" y="-193"/>
      <point x="691" y="-68"/>
      <point x="691" y="133" type="curve" smooth="yes"/>
      <point x="691" y="342"/>
      <point x="514" y="443"/>
      <point x="268" y="378" type="curve"/>
      <point x="275" y="201" type="line"/>
      <point x="383" y="246"/>
      <point x="459" y="215"/>
      <point x="459" y="117" type="curve" smooth="yes"/>
      <point x="459" y="43"/>
      <point x="416" y="5"/>
      <point x="352" y="19" type="curve"/>
    </contour>
  </outline>
</glyph>
<glyph name="ghemiddlehook-cy" format="2">
  <advance width="659"/>
  <unicode hex="0495"/>
  <guideline x="163" y="-204" angle="0"/>
  <outline>
    <contour>
      <point x="53" y="0" type="line"/>
      <point x="278" y="0" type="line"/>
      <point x="278" y="419" type="line"/>
      <point x="229" y="371" type="line"/>
      <point x="531" y="371" type="line"/>
      <point x="531" y="547" type="line"/>
      <point x="53" y="547" type="line"/>
    </contour>
    <contour>
      <point x="255" y="-193" type="line"/>
      <point x="488" y="-242"/>
      <point x="650" y="-114"/>
      <point x="650" y="65" type="curve" smooth="yes"/>
      <point x="650" y="246"/>
      <point x="483" y="356"/>
      <point x="227" y="288" type="curve"/>
      <point x="234" y="111" type="line"/>
      <point x="306" y="142"/>
      <point x="418" y="154"/>
      <point x="418" y="55" type="curve" smooth="yes"/>
      <point x="418" y="6"/>
      <point x="389" y="-35"/>
      <point x="301" y="-17" type="curve"/>
    </contour>
  </outline>
</glyph>
<glyph name="Kaverticalstroke-cy" format="2">
  <advance width="818"/>
  <unicode hex="049C"/>
  <outline>
    <contour>
      <point x="537" y="0" type="line"/>
      <point x="812" y="0" type="line"/>
      <point x="582" y="438" type="line"/>
      <point x="394" y="328" type="line"/>
    </contour>
    <contour>
      <point x="56" y="0" type="line"/>
      <point x="292" y="0" type="line"/>
      <point x="292" y="700" type="line"/>
      <point x="56" y="700" type="line"/>
    </contour>
    <contour>
      <point x="224" y="253" type="line"/>
      <point x="525" y="253" type="line"/>
      <point x="525" y="439" type="line"/>
      <point x="224" y="439" type="line"/>
    </contour>
    <contour>
      <point x="327" y="158" type="line"/>
      <point x="417" y="158" type="line"/>
      <point x="417" y="537" type="line"/>
      <point x="327" y="537" type="line"/>
    </contour>
    <contour>
      <point x="605" y="325" type="line"/>
      <point x="798" y="700" type="line"/>
      <point x="552" y="700" type="line"/>
      <point x="387" y="347" type="line"/>
    </contour>
  </outline>
</glyph>
<glyph name="kastroke-cy" format="2">
  <advance width="691"/>
  <unicode hex="049F"/>
  <anchor x="344" y="0" name="bottom"/>
  <anchor x="344" y="547" name="top"/>
  <outline>
    <contour>
      <point x="-30" y="583" type="line"/>
      <point x="386" y="583" type="line"/>
      <point x="386" y="693" type="line"/>
      <point x="-30" y="693" type="line"/>
    </contour>
    <contour>
      <point x="428" y="0" type="line"/>
      <point x="694" y="0" type="line"/>
      <point x="460" y="357" type="line"/>
      <point x="278" y="251" type="line"/>
    </contour>
    <contour>
      <point x="50" y="0" type="line"/>
      <point x="276" y="0" type="line"/>
      <point x="276" y="742" type="line"/>
      <point x="50" y="742" type="line"/>
    </contour>
    <contour>
      <point x="210" y="182" type="line"/>
      <point x="414" y="182" type="line"/>
      <point x="414" y="355" type="line"/>
      <point x="210" y="355" type="line"/>
    </contour>
    <contour>
      <point x="483" y="249" type="line"/>
      <point x="683" y="547" type="line"/>
      <point x="445" y="547" type="line"/>
      <point x="271" y="269" type="line"/>
    </contour>
  </outline>
</glyph>
<glyph name="Kabashkir-cy" format="2">
  <advance width="901"/>
  <unicode hex="04A0"/>
  <anchor x="525" y="0" name="bottom"/>
  <anchor x="530" y="700" name="top"/>
  <outline>
    <contour>
      <point x="16" y="517" type="line"/>
      <point x="428" y="517" type="line"/>
      <point x="428" y="700" type="line"/>
      <point x="16" y="700" type="line"/>
    </contour>
    <contour>
      <point x="628" y="0" type="line"/>
      <point x="894" y="0" type="line"/>
      <point x="642" y="438" type="line"/>
      <point x="454" y="328" type="line"/>
    </contour>
    <contour>
      <point x="192" y="0" type="line"/>
      <point x="428" y="0" type="line"/>
      <point x="428" y="700" type="line"/>
      <point x="192" y="700" type="line"/>
    </contour>
    <contour>
      <point x="360" y="253" type="line"/>
      <point x="625" y="253" type="line"/>
      <point x="625" y="439" type="line"/>
      <point x="360" y="439" type="line"/>
    </contour>
    <contour>
      <point x="665" y="325" type="line"/>
      <point x="895" y="700" type="line"/>
      <point x="649" y="700" type="line"/>
      <point x="448" y="347" type="line"/>
    </contour>
  </outline>
</glyph>
<glyph name="kabashkir-cy" format="2">
  <advance width="795"/>
  <unicode hex="04A1"/>
  <anchor x="449" y="0" name="bottom"/>
  <anchor x="449" y="547" name="top"/>
  <outline>
    <contour>
      <point x="12" y="375" type="line"/>
      <point x="380" y="375" type="line"/>
      <point x="380" y="547" type="line"/>
      <point x="12" y="547" type="line"/>
    </contour>
    <contour>
      <point x="532" y="0" type="line"/>
      <point x="798" y="0" type="line"/>
      <point x="564" y="357" type="line"/>
      <point x="382" y="251" type="line"/>
    </contour>
    <contour>
      <point x="154" y="0" type="line"/>
      <point x="380" y="0" type="line"/>
      <point x="380" y="547" type="line"/>
      <point x="154" y="547" type="line"/>
    </contour>
    <contour>
      <point x="314" y="182" type="line"/>
      <point x="518" y="182" type="line"/>
      <point x="518" y="355" type="line"/>
      <point x="314" y="355" type="line"/>
    </contour>
    <contour>
      <point x="587" y="249" type="line"/>
      <point x="787" y="547" type="line"/>
      <point x="549" y="547" type="line"/>
      <point x="375" y="269" type="line"/>
    </contour>
  </outline>
</glyph>
<glyph name="Cheverticalstroke-cy" format="2">
  <advance width="765"/>
  <unicode hex="04B8"/>
  <outline>
    <contour>
      <point x="324" y="108" type="line"/>
      <point x="414" y="108" type="line"/>
      <point x="414" y="489" type="line"/>
      <point x="324" y="489" type="line"/>
    </contour>
    <component base="Che-cy"/>
  </outline>
</glyph>
<glyph name="Shha-cy" format="2">
  <advance width="765"/>
  <unicode hex="04BA"/>
  <anchor x="504" y="0" name="bottomleft"/>
  <outline>
    <contour>
      <point x="504" y="0" type="line"/>
      <point x="736" y="0" type="line"/>
      <point x="736" y="211" type="line" smooth="yes"/>
      <point x="736" y="398"/>
      <point x="627" y="497"/>
      <point x="421" y="497" type="curve" smooth="yes"/>
      <point x="373" y="497"/>
      <point x="323" y="487"/>
      <point x="263" y="465" type="curve"/>
      <point x="269" y="281" type="line"/>
      <point x="297" y="300"/>
      <point x="339" y="310"/>
      <point x="391" y="310" type="curve" smooth="yes"/>
      <point x="467" y="310"/>
      <point x="504" y="270"/>
      <point x="504" y="185" type="curve" smooth="yes"/>
    </contour>
    <contour>
      <point x="62" y="0" type="line"/>
      <point x="294" y="0" type="line"/>
      <point x="294" y="700" type="line"/>
      <point x="62" y="700" type="line"/>
    </contour>
  </outline>
</glyph>
<glyph name="Kahook-cy" format="2">
  <advance width="779"/>
  <unicode hex="04C3"/>
  <guideline x="763" y="361" angle="90"/>
  <outline>
    <contour>
      <point x="62" y="0" type="line"/>
      <point x="298" y="0" type="line"/>
      <point x="298" y="700" type="line"/>
      <point x="62" y="700" type="line"/>
    </contour>
    <contour>
      <point x="230" y="253" type="line"/>
      <point x="506" y="253" type="line"/>
      <point x="506" y="439" type="line"/>
      <point x="230" y="439" type="line"/>
    </contour>
    <contour>
      <point x="535" y="325" type="line"/>
      <point x="765" y="700" type="line"/>
      <point x="519" y="700" type="line"/>
      <point x="317" y="347" type="line"/>
    </contour>
    <contour>
      <point x="522" y="-209" type="curve" smooth="yes"/>
      <point x="673" y="-209"/>
      <point x="763" y="-127"/>
      <point x="763" y="11" type="curve" smooth="yes"/>
      <point x="763" y="124"/>
      <point x="673" y="238"/>
      <point x="518" y="418" type="curve"/>
      <point x="328" y="307" type="line"/>
      <point x="410" y="218"/>
      <point x="505" y="86"/>
      <point x="505" y="18" type="curve" smooth="yes"/>
      <point x="505" y="-13"/>
      <point x="492" y="-29"/>
      <point x="469" y="-29" type="curve" smooth="yes"/>
      <point x="458" y="-29"/>
      <point x="443" y="-25"/>
      <point x="428" y="-19" type="curve"/>
      <point x="375" y="-179" type="line"/>
      <point x="421" y="-199"/>
      <point x="469" y="-209"/>
    </contour>
  </outline>
</glyph>
<glyph name="dzeabkhasian-cy" format="2">
  <advance width="585"/>
  <unicode hex="04E1"/>
  <outline>
    <contour>
      <point x="255" y="-204" type="curve" smooth="yes"/>
      <point x="476" y="-204"/>
      <point x="571" y="-81"/>
      <point x="571" y="45" type="curve" smooth="yes"/>
      <point x="571" y="175"/>
      <point x="478" y="266"/>
      <point x="304" y="266" type="curve" smooth="yes"/>
      <point x="243" y="266" type="line"/>
      <point x="356" y="202" type="line"/>
      <point x="533" y="402" type="line"/>
      <point x="533" y="547" type="line"/>
      <point x="15" y="547" type="line"/>
      <point x="15" y="369" type="line"/>
      <point x="360" y="369" type="line"/>
      <point x="339" y="448" type="line"/>
      <point x="162" y="248" type="line"/>
      <point x="162" y="103" type="line"/>
      <point x="255" y="103" type="line" smooth="yes"/>
      <point x="315" y="103"/>
      <point x="338" y="81"/>
      <point x="338" y="45" type="curve" smooth="yes"/>
      <point x="338" y="4"/>
      <point x="300" y="-18"/>
      <point x="247" y="-18" type="curve" smooth="yes"/>
      <point x="188" y="-18"/>
      <point x="119" y="0"/>
      <point x="59" y="38" type="curve"/>
      <point x="-17" y="-136" type="line"/>
      <point x="57" y="-181"/>
      <point x="160" y="-204"/>
    </contour>
  </outline>
</glyph>
<glyph name="obarred-cy" format="2">
  <advance width="675"/>
  <unicode hex="04E9"/>
  <anchor x="338" y="547" name="top"/>
  <outline>
    <contour>
      <point x="337" y="557" type="curve" smooth="yes"/>
      <point x="150" y="557"/>
      <point x="17" y="440"/>
      <point x="17" y="274" type="curve" smooth="yes"/>
      <point x="17" y="108"/>
      <point x="150" y="-10"/>
      <point x="337" y="-10" type="curve" smooth="yes"/>
      <point x="525" y="-10"/>
      <point x="658" y="108"/>
      <point x="658" y="274" type="curve" smooth="yes"/>
      <point x="658" y="440"/>
      <point x="525" y="557"/>
    </contour>
    <contour>
      <point x="337" y="404" type="curve" smooth="yes"/>
      <point x="382" y="404"/>
      <point x="415" y="381"/>
      <point x="432" y="341" type="curve"/>
      <point x="243" y="341" type="line"/>
      <point x="259" y="381"/>
      <point x="292" y="404"/>
    </contour>
    <contour>
      <point x="337" y="143" type="curve" smooth="yes"/>
      <point x="294" y="143"/>
      <point x="261" y="166"/>
      <point x="244" y="205" type="curve"/>
      <point x="431" y="205" type="line"/>
      <point x="414" y="166"/>
      <point x="381" y="143"/>
    </contour>
  </outline>
</glyph>
<glyph name="gestrokehook-cy" format="2">
  <advance width="556"/>
  <unicode hex="04FB"/>
  <outline>
    <contour>
      <point x="98" y="0" type="line"/>
      <point x="324" y="0" type="line"/>
      <point x="324" y="371" type="line"/>
      <point x="541" y="371" type="line"/>
      <point x="541" y="547" type="line"/>
      <point x="98" y="547" type="line"/>
    </contour>
    <contour>
      <point x="160" y="-204" type="curve" smooth="yes"/>
      <point x="295" y="-204"/>
      <point x="398" y="-121"/>
      <point x="398" y="28" type="curve" smooth="yes"/>
      <point x="398" y="127" type="line"/>
      <point x="98" y="127" type="line"/>
      <point x="98" y="0" type="line"/>
      <point x="238" y="0" type="line"/>
      <point x="173" y="43" type="line"/>
      <point x="173" y="19" type="line"/>
      <point x="173" y="-27"/>
      <point x="151" y="-50"/>
      <point x="116" y="-50" type="curve" smooth="yes"/>
      <point x="102" y="-50"/>
      <point x="86" y="-46"/>
      <point x="68" y="-39" type="curve"/>
      <point x="21" y="-177" type="line"/>
      <point x="69" y="-195"/>
      <point x="116" y="-204"/>
    </contour>
    <contour>
      <point x="9" y="198" type="line"/>
      <point x="486" y="198" type="line"/>
      <point x="486" y="318" type="line"/>
      <point x="9" y="318" type="line"/>
    </contour>
  </outline>
</glyph>
<glyph name="hastroke-cy" format="2">
  <advance width="658"/>
  <unicode hex="04FF"/>
  <outline>
    <contour>
      <point x="-3" y="0" type="line"/>
      <point x="242" y="0" type="line"/>
      <point x="371" y="180" type="line"/>
      <point x="276" y="193" type="line"/>
      <point x="401" y="0" type="line"/>
      <point x="660" y="0" type="line"/>
      <point x="408" y="344" type="line"/>
      <point x="408" y="219" type="line"/>
      <point x="655" y="547" type="line"/>
      <point x="418" y="547" type="line"/>
      <point x="285" y="359" type="line"/>
      <point x="379" y="366" type="line"/>
      <point x="258" y="547" type="line"/>
      <point x="3" y="547" type="line"/>
      <point x="249" y="208" type="line"/>
      <point x="255" y="338" type="line"/>
    </contour>
    <contour>
      <point x="64" y="212" type="line"/>
      <point x="598" y="212" type="line"/>
      <point x="598" y="332" type="line"/>
      <point x="64" y="332" type="line"/>
    </contour>
  </outline>
</glyph>
<glyph name="Reversedze-cy" format="2">
  <advance width="672"/>
  <unicode hex="0510"/>
  <outline>
    <contour>
      <point x="659" y="46" type="curve"/>
      <point x="590" y="205" type="line"/>
      <point x="442" y="145"/>
      <point x="260" y="148"/>
      <point x="260" y="226" type="curve" smooth="yes"/>
      <point x="260" y="256"/>
      <point x="291" y="266"/>
      <point x="329" y="266" type="curve" smooth="yes"/>
      <point x="518" y="266" type="line"/>
      <point x="518" y="440" type="line"/>
      <point x="349" y="440" type="line" smooth="yes"/>
      <point x="309" y="440"/>
      <point x="288" y="456"/>
      <point x="288" y="482" type="curve" smooth="yes"/>
      <point x="288" y="553"/>
      <point x="449" y="550"/>
      <point x="572" y="489" type="curve"/>
      <point x="641" y="664" type="line"/>
      <point x="394" y="776"/>
      <point x="50" y="702"/>
      <point x="50" y="508" type="curve" smooth="yes"/>
      <point x="50" y="407"/>
      <point x="138" y="335"/>
      <point x="256" y="335" type="curve"/>
      <point x="251" y="382" type="line"/>
      <point x="114" y="382"/>
      <point x="22" y="302"/>
      <point x="22" y="197" type="curve" smooth="yes"/>
      <point x="22" y="-6"/>
      <point x="374" y="-80"/>
    </contour>
  </outline>
</glyph>
<glyph name="reversedze-cy" format="2">
  <advance width="583"/>
  <unicode hex="0511"/>
  <outline>
    <contour>
      <point x="318" y="-13" type="curve" smooth="yes"/>
      <point x="402" y="-13"/>
      <point x="492" y="-1"/>
      <point x="574" y="29" type="curve"/>
      <point x="517" y="178" type="line"/>
      <point x="454" y="155"/>
      <point x="392" y="147"/>
      <point x="324" y="147" type="curve" smooth="yes"/>
      <point x="278" y="147"/>
      <point x="246" y="158"/>
      <point x="246" y="184" type="curve" smooth="yes"/>
      <point x="246" y="205"/>
      <point x="257" y="213"/>
      <point x="288" y="213" type="curve" smooth="yes"/>
      <point x="413" y="213" type="line"/>
      <point x="413" y="339" type="line"/>
      <point x="309" y="339" type="line" smooth="yes"/>
      <point x="275" y="339"/>
      <point x="261" y="348"/>
      <point x="261" y="369" type="curve" smooth="yes"/>
      <point x="261" y="389"/>
      <point x="278" y="401"/>
      <point x="332" y="401" type="curve" smooth="yes"/>
      <point x="386" y="401"/>
      <point x="445" y="388"/>
      <point x="507" y="367" type="curve"/>
      <point x="558" y="510" type="line"/>
      <point x="483" y="539"/>
      <point x="400" y="558"/>
      <point x="324" y="559" type="curve" smooth="yes"/>
      <point x="164" y="561"/>
      <point x="34" y="510"/>
      <point x="34" y="401" type="curve" smooth="yes"/>
      <point x="34" y="321"/>
      <point x="115" y="259"/>
      <point x="216" y="259" type="curve"/>
      <point x="211" y="299" type="line"/>
      <point x="94" y="299"/>
      <point x="19" y="247"/>
      <point x="19" y="166" type="curve" smooth="yes"/>
      <point x="19" y="48"/>
      <point x="155" y="-13"/>
    </contour>
  </outline>
</glyph>
<glyph name="We-cy" format="2">
  <advance width="1178"/>
  <unicode hex="051C"/>
  <outline>
    <contour>
      <point x="230" y="0" type="line"/>
      <point x="478" y="0" type="line"/>
      <point x="627" y="484" type="line"/>
      <point x="559" y="484" type="line"/>
      <point x="700" y="0" type="line"/>
      <point x="948" y="0" type="line"/>
      <point x="1172" y="700" type="line"/>
      <point x="948" y="700" type="line"/>
      <point x="759" y="109" type="line"/>
      <point x="881" y="109" type="line"/>
      <point x="707" y="700" type="line"/>
      <point x="490" y="700" type="line"/>
      <point x="303" y="109" type="line"/>
      <point x="430" y="109" type="line"/>
      <point x="249" y="700" type="line"/>
      <point x="6" y="700" type="line"/>
    </contour>
  </outline>
</glyph>
<glyph name="shhadescender-cy" format="2">
  <advance width="750"/>
  <unicode hex="0527"/>
  <outline>
    <contour>
      <point x="431" y="0" type="line"/>
      <point x="657" y="0" type="line"/>
      <point x="657" y="312" type="line" smooth="yes"/>
      <point x="657" y="484"/>
      <point x="559" y="557"/>
      <point x="433" y="557" type="curve" smooth="yes"/>
      <point x="314" y="557"/>
      <point x="216" y="484"/>
      <point x="196" y="335" type="curve"/>
      <point x="279" y="257" type="line"/>
      <point x="279" y="338"/>
      <point x="318" y="367"/>
      <point x="364" y="367" type="curve" smooth="yes"/>
      <point x="405" y="367"/>
      <point x="431" y="341"/>
      <point x="431" y="273" type="curve" smooth="yes"/>
    </contour>
    <contour>
      <point x="53" y="0" type="line"/>
      <point x="279" y="0" type="line"/>
      <point x="279" y="742" type="line"/>
      <point x="53" y="742" type="line"/>
    </contour>
    <contour>
      <point x="529" y="-101" type="line"/>
      <point x="738" y="-101" type="line"/>
      <point x="738" y="177" type="line"/>
      <point x="431" y="177" type="line"/>
      <point x="431" y="0" type="line"/>
      <point x="640" y="0" type="line"/>
      <point x="529" y="48" type="line"/>
    </contour>
  </outline>
</glyph>
<glyph name="EnLeftHook-cy" format="2">
  <advance width="811"/>
  <unicode hex="0528"/>
  <outline>
    <contour>
      <point x="-91" y="-177" type="line"/>
      <point x="77" y="-249"/>
      <point x="293" y="-194"/>
      <point x="293" y="20" type="curve" smooth="yes"/>
      <point x="293" y="252" type="line"/>
      <point x="517" y="252" type="line"/>
      <point x="517" y="0" type="line"/>
      <point x="749" y="0" type="line"/>
      <point x="749" y="700" type="line"/>
      <point x="517" y="700" type="line"/>
      <point x="517" y="435" type="line"/>
      <point x="293" y="435" type="line"/>
      <point x="293" y="700" type="line"/>
      <point x="61" y="700" type="line"/>
      <point x="61" y="23" type="line" smooth="yes"/>
      <point x="61" y="-30"/>
      <point x="16" y="-45"/>
      <point x="-37" y="-20" type="curve"/>
    </contour>
  </outline>
</glyph>
<glyph name="endash" format="2">
  <advance width="500"/>
  <unicode hex="2013"/>
  <outline>
    <contour>
      <point x="0" y="224" type="line"/>
      <point x="500" y="224" type="line"/>
      <point x="500" y="354" type="line"/>
      <point x="0" y="354" type="line"/>
    </contour>
  </outline>
</glyph>
<glyph name="quoteleft" format="2">
  <advance width="304"/>
  <unicode hex="2018"/>
  <outline>
    <contour>
      <point x="269" y="742" type="line"/>
      <point x="129" y="742" type="line"/>
      <point x="59" y="593" type="line" smooth="yes"/>
      <point x="24" y="518"/>
      <point x="20" y="494"/>
      <point x="20" y="462" type="curve" smooth="yes"/>
      <point x="20" y="384"/>
      <point x="76" y="334"/>
      <point x="152" y="334" type="curve" smooth="yes"/>
      <point x="228" y="334"/>
      <point x="284" y="384"/>
      <point x="284" y="462" type="curve" smooth="yes"/>
      <point x="284" y="540"/>
      <point x="230" y="587"/>
      <point x="152" y="587" type="curve"/>
      <point x="185" y="461" type="line"/>
    </contour>
  </outline>
</glyph>
<glyph name="quoteright" format="2">
  <advance width="304"/>
  <unicode hex="2019"/>
  <outline>
    <contour>
      <point x="35" y="344" type="line"/>
      <point x="175" y="344" type="line"/>
      <point x="245" y="493" type="line" smooth="yes"/>
      <point x="280" y="568"/>
      <point x="284" y="592"/>
      <point x="284" y="624" type="curve" smooth="yes"/>
      <point x="284" y="702"/>
      <point x="228" y="752"/>
      <point x="152" y="752" type="curve" smooth="yes"/>
      <point x="76" y="752"/>
      <point x="20" y="702"/>
      <point x="20" y="624" type="curve" smooth="yes"/>
      <point x="20" y="546"/>
      <point x="74" y="499"/>
      <point x="152" y="499" type="curve"/>
      <point x="119" y="625" type="line"/>
    </contour>
  </outline>
</glyph>
<glyph name="quotesinglbase" format="2">
  <advance width="304"/>
  <unicode hex="201A"/>
  <outline>
    <contour>
      <point x="35" y="-160" type="line"/>
      <point x="175" y="-160" type="line"/>
      <point x="245" y="-11" type="line" smooth="yes"/>
      <point x="280" y="64"/>
      <point x="284" y="88"/>
      <point x="284" y="120" type="curve" smooth="yes"/>
      <point x="284" y="198"/>
      <point x="228" y="248"/>
      <point x="152" y="248" type="curve" smooth="yes"/>
      <point x="76" y="248"/>
      <point x="20" y="198"/>
      <point x="20" y="120" type="curve" smooth="yes"/>
      <point x="20" y="42"/>
      <point x="74" y="-5"/>
      <point x="152" y="-5" type="curve"/>
      <point x="119" y="121" type="line"/>
    </contour>
  </outline>
</glyph>
<glyph name="bullet" format="2">
  <advance width="410"/>
  <unicode hex="2022"/>
  <outline>
    <contour>
      <point x="204" y="119" type="curve" smooth="yes"/>
      <point x="296" y="119"/>
      <point x="370" y="190"/>
      <point x="370" y="285" type="curve" smooth="yes"/>
      <point x="370" y="380"/>
      <point x="296" y="449"/>
      <point x="204" y="449" type="curve" smooth="yes"/>
      <point x="112" y="449"/>
      <point x="40" y="380"/>
      <point x="40" y="285" type="curve" smooth="yes"/>
      <point x="40" y="190"/>
      <point x="112" y="119"/>
    </contour>
  </outline>
</glyph>
<glyph name="second" format="2">
  <advance width="489"/>
  <unicode hex="2033"/>
  <outline>
    <contour>
      <point x="47" y="400" type="line"/>
      <point x="207" y="400" type="line"/>
      <point x="222" y="700" type="line"/>
      <point x="32" y="700" type="line"/>
    </contour>
    <contour>
      <point x="282" y="400" type="line"/>
      <point x="442" y="400" type="line"/>
      <point x="457" y="700" type="line"/>
      <point x="267" y="700" type="line"/>
    </contour>
  </outline>
</glyph>
<glyph name="guilsinglleft" format="2">
  <advance width="378"/>
  <unicode hex="2039"/>
  <outline>
    <contour>
      <point x="163" y="74" type="line"/>
      <point x="363" y="74" type="line"/>
      <point x="230" y="274" type="line"/>
      <point x="363" y="474" type="line"/>
      <point x="163" y="474" type="line"/>
      <point x="25" y="274" type="line"/>
    </contour>
  </outline>
</glyph>
<glyph name="guilsinglright" format="2">
  <advance width="378"/>
  <unicode hex="203A"/>
  <outline>
    <contour>
      <point x="215" y="74" type="line"/>
      <point x="353" y="274" type="line"/>
      <point x="215" y="474" type="line"/>
      <point x="15" y="474" type="line"/>
      <point x="148" y="274" type="line"/>
      <point x="15" y="74" type="line"/>
    </contour>
  </outline>
</glyph>
<glyph name="fraction" format="2">
  <advance width="197"/>
  <unicode hex="2044"/>
  <outline>
    <contour>
      <point x="-225" y="0" type="line"/>
      <point x="-56" y="0" type="line"/>
      <point x="422" y="700" type="line"/>
      <point x="253" y="700" type="line"/>
    </contour>
  </outline>
</glyph>
<glyph name="commercialMinusSign" format="2">
  <advance width="660"/>
  <unicode hex="2052"/>
  <guideline x="110" y="446" angle="90"/>
  <guideline x="545" y="446" angle="90"/>
  <outline>
    <contour>
      <point x="115" y="0" type="line"/>
      <point x="280" y="0" type="line"/>
      <point x="545" y="700" type="line"/>
      <point x="380" y="700" type="line"/>
    </contour>
    <contour>
      <point x="520" y="0" type="curve" smooth="yes"/>
      <point x="583" y="0"/>
      <point x="632" y="46"/>
      <point x="632" y="110" type="curve" smooth="yes"/>
      <point x="632" y="175"/>
      <point x="583" y="218"/>
      <point x="520" y="218" type="curve" smooth="yes"/>
      <point x="457" y="218"/>
      <point x="408" y="175"/>
      <point x="408" y="110" type="curve" smooth="yes"/>
      <point x="408" y="46"/>
      <point x="457" y="0"/>
    </contour>
    <contour>
      <point x="140" y="482" type="curve" smooth="yes"/>
      <point x="203" y="482"/>
      <point x="252" y="528"/>
      <point x="252" y="592" type="curve" smooth="yes"/>
      <point x="252" y="657"/>
      <point x="203" y="700"/>
      <point x="140" y="700" type="curve" smooth="yes"/>
      <point x="77" y="700"/>
      <point x="28" y="657"/>
      <point x="28" y="592" type="curve" smooth="yes"/>
      <point x="28" y="528"/>
      <point x="77" y="482"/>
    </contour>
  </outline>
</glyph>
<glyph name="franc" format="2">
  <advance width="707"/>
  <unicode hex="20A3"/>
  <outline>
    <contour>
      <point x="30" y="60" type="line"/>
      <point x="566" y="60" type="line"/>
      <point x="566" y="172" type="line"/>
      <point x="30" y="172" type="line"/>
    </contour>
    <contour>
      <point x="340" y="402" type="line"/>
      <point x="340" y="224" type="line"/>
      <point x="648" y="224" type="line"/>
      <point x="648" y="402" type="line"/>
    </contour>
    <contour>
      <point x="356" y="0" type="line"/>
      <point x="356" y="522" type="line"/>
      <point x="689" y="522" type="line"/>
      <point x="689" y="700" type="line"/>
      <point x="120" y="700" type="line"/>
      <point x="120" y="0" type="line"/>
    </contour>
  </outline>
</glyph>
<glyph name="lira" format="2">
  <advance width="694"/>
  <unicode hex="20A4"/>
  <outline>
    <contour>
      <point x="30" y="0" type="line"/>
      <point x="660" y="0" type="line"/>
      <point x="660" y="178" type="line"/>
      <point x="30" y="178" type="line"/>
    </contour>
    <contour>
      <point x="120" y="20" type="line"/>
      <point x="356" y="20" type="line"/>
      <point x="356" y="405" type="line" smooth="yes"/>
      <point x="356" y="488"/>
      <point x="408" y="525"/>
      <point x="497" y="525" type="curve" smooth="yes"/>
      <point x="533" y="525"/>
      <point x="578" y="516"/>
      <point x="617" y="495" type="curve"/>
      <point x="685" y="673" type="line"/>
      <point x="634" y="700"/>
      <point x="559" y="716"/>
      <point x="477" y="716" type="curve" smooth="yes"/>
      <point x="250" y="716"/>
      <point x="120" y="603"/>
      <point x="120" y="400" type="curve" smooth="yes"/>
    </contour>
    <contour>
      <point x="30" y="225" type="line"/>
      <point x="566" y="225" type="line"/>
      <point x="566" y="337" type="line"/>
      <point x="30" y="337" type="line"/>
    </contour>
    <contour>
      <point x="30" y="363" type="line"/>
      <point x="566" y="363" type="line"/>
      <point x="566" y="475" type="line"/>
      <point x="30" y="475" type="line"/>
    </contour>
  </outline>
</glyph>
<glyph name="dong" format="2">
  <advance width="705"/>
  <unicode hex="20AB"/>
  <outline>
    <contour>
      <point x="290" y="-10" type="curve" smooth="yes"/>
      <point x="441" y="-10"/>
      <point x="498" y="77"/>
      <point x="498" y="274" type="curve" smooth="yes"/>
      <point x="498" y="468"/>
      <point x="433" y="557"/>
      <point x="290" y="557" type="curve" smooth="yes"/>
      <point x="147" y="557"/>
      <point x="26" y="450"/>
      <point x="26" y="274" type="curve" smooth="yes"/>
      <point x="26" y="98"/>
      <point x="147" y="-10"/>
    </contour>
    <contour>
      <point x="48" y="-148" type="line"/>
      <point x="655" y="-148" type="line"/>
      <point x="655" y="-38" type="line"/>
      <point x="48" y="-38" type="line"/>
    </contour>
    <contour>
      <point x="344" y="166" type="curve" smooth="yes"/>
      <point x="294" y="166"/>
      <point x="255" y="203"/>
      <point x="255" y="274" type="curve" smooth="yes"/>
      <point x="255" y="345"/>
      <point x="294" y="381"/>
      <point x="344" y="381" type="curve" smooth="yes"/>
      <point x="394" y="381"/>
      <point x="433" y="345"/>
      <point x="433" y="274" type="curve" smooth="yes"/>
      <point x="433" y="203"/>
      <point x="394" y="166"/>
    </contour>
    <contour>
      <point x="440" y="0" type="line"/>
      <point x="655" y="0" type="line"/>
      <point x="655" y="742" type="line"/>
      <point x="429" y="742" type="line"/>
      <point x="429" y="474" type="line"/>
      <point x="439" y="274" type="line"/>
      <point x="440" y="74" type="line"/>
    </contour>
    <contour>
      <point x="278" y="585" type="line"/>
      <point x="706" y="585" type="line"/>
      <point x="706" y="695" type="line"/>
      <point x="278" y="695" type="line"/>
    </contour>
  </outline>
</glyph>
<glyph name="kip" format="2">
  <advance width="828"/>
  <unicode hex="20AD"/>
  <outline>
    <contour>
      <point x="30" y="284" type="line"/>
      <point x="773" y="284" type="line"/>
      <point x="773" y="416" type="line"/>
      <point x="30" y="416" type="line"/>
    </contour>
    <contour>
      <point x="120" y="0" type="line"/>
      <point x="352" y="0" type="line"/>
      <point x="352" y="700" type="line"/>
      <point x="120" y="700" type="line"/>
    </contour>
    <contour>
      <point x="580" y="0" type="line"/>
      <point x="853" y="0" type="line"/>
      <point x="603" y="350" type="line"/>
      <point x="329" y="350" type="line"/>
    </contour>
    <contour>
      <point x="580" y="700" type="line"/>
      <point x="329" y="350" type="line"/>
      <point x="603" y="350" type="line"/>
      <point x="853" y="700" type="line"/>
    </contour>
  </outline>
</glyph>
<glyph name="tugrik" format="2">
  <advance width="724"/>
  <unicode hex="20AE"/>
  <outline>
    <contour>
      <point x="244" y="0" type="line"/>
      <point x="480" y="0" type="line"/>
      <point x="480" y="568" type="line"/>
      <point x="429" y="517" type="line"/>
      <point x="685" y="517" type="line"/>
      <point x="685" y="700" type="line"/>
      <point x="39" y="700" type="line"/>
      <point x="39" y="517" type="line"/>
      <point x="295" y="517" type="line"/>
      <point x="244" y="568" type="line"/>
    </contour>
    <contour>
      <point x="139" y="39" type="line"/>
      <point x="585" y="247" type="line"/>
      <point x="585" y="363" type="line"/>
      <point x="139" y="155" type="line"/>
    </contour>
    <contour>
      <point x="139" y="183" type="line"/>
      <point x="585" y="391" type="line"/>
      <point x="585" y="507" type="line"/>
      <point x="139" y="299" type="line"/>
    </contour>
  </outline>
</glyph>
<glyph name="peso" format="2">
  <advance width="896"/>
  <unicode hex="20B1"/>
  <outline>
    <contour>
      <point x="30" y="311" type="line"/>
      <point x="866" y="311" type="line"/>
      <point x="866" y="423" type="line"/>
      <point x="30" y="423" type="line"/>
    </contour>
    <contour>
      <point x="30" y="449" type="line"/>
      <point x="866" y="449" type="line"/>
      <point x="866" y="561" type="line"/>
      <point x="30" y="561" type="line"/>
    </contour>
    <contour>
      <point x="120" y="0" type="line"/>
      <point x="356" y="0" type="line"/>
      <point x="356" y="273" type="line"/>
      <point x="251" y="172" type="line"/>
      <point x="457" y="172" type="line" smooth="yes"/>
      <point x="652" y="172"/>
      <point x="776" y="274"/>
      <point x="776" y="436" type="curve" smooth="yes"/>
      <point x="776" y="598"/>
      <point x="652" y="700"/>
      <point x="457" y="700" type="curve" smooth="yes"/>
      <point x="120" y="700" type="line"/>
    </contour>
    <contour>
      <point x="356" y="247" type="line"/>
      <point x="356" y="625" type="line"/>
      <point x="251" y="518" type="line"/>
      <point x="442" y="518" type="line" smooth="yes"/>
      <point x="507" y="518"/>
      <point x="538" y="487"/>
      <point x="538" y="436" type="curve" smooth="yes"/>
      <point x="538" y="385"/>
      <point x="507" y="354"/>
      <point x="442" y="354" type="curve" smooth="yes"/>
      <point x="251" y="354" type="line"/>
    </contour>
  </outline>
</glyph>
<glyph name="hryvnia" format="2">
  <advance width="830"/>
  <unicode hex="20B4"/>
  <outline>
    <contour>
      <point x="439" y="-17" type="curve" smooth="yes"/>
      <point x="526" y="-17"/>
      <point x="625" y="0"/>
      <point x="729" y="36" type="curve"/>
      <point x="673" y="208" type="line"/>
      <point x="604" y="181"/>
      <point x="512" y="164"/>
      <point x="432" y="164" type="curve" smooth="yes"/>
      <point x="365" y="164"/>
      <point x="341" y="178"/>
      <point x="341" y="202" type="curve" smooth="yes"/>
      <point x="341" y="241"/>
      <point x="417" y="249"/>
      <point x="502" y="268" type="curve"/>
      <point x="113" y="268" type="line"/>
      <point x="110" y="253"/>
      <point x="108" y="237"/>
      <point x="108" y="220" type="curve" smooth="yes"/>
      <point x="108" y="69"/>
      <point x="243" y="-17"/>
    </contour>
    <contour>
      <point x="47" y="230" type="line"/>
      <point x="783" y="230" type="line"/>
      <point x="783" y="342" type="line"/>
      <point x="47" y="342" type="line"/>
    </contour>
    <contour>
      <point x="47" y="368" type="line"/>
      <point x="783" y="368" type="line"/>
      <point x="783" y="480" type="line"/>
      <point x="47" y="480" type="line"/>
    </contour>
    <contour>
      <point x="293" y="419" type="curve"/>
      <point x="720" y="419" type="line"/>
      <point x="725" y="437"/>
      <point x="728" y="457"/>
      <point x="728" y="480" type="curve" smooth="yes"/>
      <point x="728" y="629"/>
      <point x="590" y="717"/>
      <point x="396" y="717" type="curve" smooth="yes"/>
      <point x="320" y="717"/>
      <point x="236" y="704"/>
      <point x="148" y="675" type="curve"/>
      <point x="199" y="504" type="line"/>
      <point x="272" y="526"/>
      <point x="340" y="536"/>
      <point x="404" y="536" type="curve" smooth="yes"/>
      <point x="473" y="536"/>
      <point x="495" y="516"/>
      <point x="495" y="492" type="curve" smooth="yes"/>
      <point x="495" y="449"/>
      <point x="392" y="446"/>
    </contour>
  </outline>
</glyph>
<glyph name="manat" format="2">
  <advance width="904"/>
  <unicode hex="20BC"/>
  <outline>
    <contour>
      <point x="57" y="0" type="line"/>
      <point x="275" y="0" type="line"/>
      <point x="275" y="336" type="line" smooth="yes"/>
      <point x="275" y="443"/>
      <point x="333" y="511"/>
      <point x="455" y="511" type="curve" smooth="yes"/>
      <point x="577" y="511"/>
      <point x="629" y="443"/>
      <point x="629" y="336" type="curve" smooth="yes"/>
      <point x="629" y="0" type="line"/>
      <point x="847" y="0" type="line"/>
      <point x="847" y="337" type="line" smooth="yes"/>
      <point x="847" y="565"/>
      <point x="689" y="716"/>
      <point x="452" y="716" type="curve" smooth="yes"/>
      <point x="215" y="716"/>
      <point x="57" y="566"/>
      <point x="57" y="337" type="curve" smooth="yes"/>
    </contour>
    <contour>
      <point x="382" y="120" type="line"/>
      <point x="523" y="120" type="line"/>
      <point x="523" y="820" type="line"/>
      <point x="382" y="820" type="line"/>
    </contour>
  </outline>
</glyph>
<glyph name="trademark" format="2">
  <advance width="1067"/>
  <unicode hex="2122"/>
  <outline>
    <contour>
      <point x="465" y="285" type="line"/>
      <point x="610" y="285" type="line"/>
      <point x="610" y="497" type="line"/>
      <point x="582" y="497" type="line"/>
      <point x="702" y="321" type="line"/>
      <point x="772" y="321" type="line"/>
      <point x="886" y="497" type="line"/>
      <point x="863" y="497" type="line"/>
      <point x="865" y="285" type="line"/>
      <point x="1010" y="285" type="line"/>
      <point x="1008" y="700" type="line"/>
      <point x="878" y="700" type="line"/>
      <point x="705" y="434" type="line"/>
      <point x="774" y="434" type="line"/>
      <point x="596" y="700" type="line"/>
      <point x="465" y="700" type="line"/>
    </contour>
    <contour>
      <point x="133" y="285" type="line"/>
      <point x="293" y="285" type="line"/>
      <point x="293" y="586" type="line"/>
      <point x="423" y="586" type="line"/>
      <point x="423" y="700" type="line"/>
      <point x="4" y="700" type="line"/>
      <point x="4" y="586" type="line"/>
      <point x="133" y="586" type="line"/>
    </contour>
  </outline>
</glyph>
<glyph name="angstrom" format="2">
  <advance width="806"/>
  <unicode hex="212B"/>
  <anchor x="403" y="0" name="bottom"/>
  <anchor x="825" y="0" name="ogonek"/>
  <anchor x="403" y="983" name="top"/>
  <anchor x="121" y="701" name="topleft"/>
  <outline>
    <contour>
      <point x="-19" y="0" type="line"/>
      <point x="221" y="0" type="line"/>
      <point x="447" y="588" type="line"/>
      <point x="355" y="588" type="line"/>
      <point x="581" y="0" type="line"/>
      <point x="825" y="0" type="line"/>
      <point x="519" y="700" type="line"/>
      <point x="287" y="700" type="line"/>
    </contour>
    <contour>
      <point x="163" y="122" type="line"/>
      <point x="605" y="122" type="line"/>
      <point x="545" y="292" type="line"/>
      <point x="223" y="292" type="line"/>
    </contour>
    <contour>
      <point x="403" y="743" type="curve" smooth="yes"/>
      <point x="482" y="743"/>
      <point x="543" y="802"/>
      <point x="543" y="877" type="curve" smooth="yes"/>
      <point x="543" y="952"/>
      <point x="482" y="1011"/>
      <point x="403" y="1011" type="curve" smooth="yes"/>
      <point x="324" y="1011"/>
      <point x="263" y="952"/>
      <point x="263" y="877" type="curve" smooth="yes"/>
      <point x="263" y="802"/>
      <point x="324" y="743"/>
    </contour>
    <contour>
      <point x="403" y="823" type="curve" smooth="yes"/>
      <point x="373" y="823"/>
      <point x="349" y="845"/>
      <point x="349" y="877" type="curve" smooth="yes"/>
      <point x="349" y="909"/>
      <point x="373" y="931"/>
      <point x="403" y="931" type="curve" smooth="yes"/>
      <point x="433" y="931"/>
      <point x="457" y="909"/>
      <point x="457" y="877" type="curve" smooth="yes"/>
      <point x="457" y="845"/>
      <point x="433" y="823"/>
    </contour>
  </outline>
</glyph>
<glyph name="rightArrow" format="2">
  <advance width="600"/>
  <unicode hex="2192"/>
  <outline>
    <contour>
      <point x="392" y="526" type="line"/>
      <point x="203" y="526" type="line"/>
      <point x="345" y="278" type="line"/>
      <point x="203" y="30" type="line"/>
      <point x="392" y="30" type="line"/>
      <point x="552" y="278" type="line"/>
    </contour>
    <contour>
      <point x="383" y="353" type="line"/>
      <point x="30" y="353" type="line"/>
      <point x="30" y="204" type="line"/>
      <point x="383" y="204" type="line"/>
    </contour>
  </outline>
</glyph>
<glyph name="downArrow" format="2">
  <advance width="600"/>
  <unicode hex="2193"/>
  <outline>
    <contour>
      <point x="548" y="338" type="line"/>
      <point x="300" y="196" type="line"/>
      <point x="52" y="338" type="line"/>
      <point x="52" y="175" type="line"/>
      <point x="300" y="15" type="line"/>
      <point x="548" y="175" type="line"/>
    </contour>
    <contour>
      <point x="386" y="537" type="line"/>
      <point x="214" y="537" type="line"/>
      <point x="214" y="169" type="line"/>
      <point x="386" y="169" type="line"/>
    </contour>
  </outline>
</glyph>
<glyph name="southWestArrow" format="2">
  <advance width="600"/>
  <unicode hex="2199"/>
  <outline>
    <contour>
      <point x="527" y="154" type="line"/>
      <point x="252" y="229" type="line"/>
      <point x="177" y="505" type="line"/>
      <point x="61" y="389" type="line"/>
      <point x="124" y="101" type="line"/>
      <point x="412" y="39" type="line"/>
    </contour>
    <contour>
      <point x="554" y="409" type="line"/>
      <point x="432" y="531" type="line"/>
      <point x="172" y="271" type="line"/>
      <point x="293" y="149" type="line"/>
    </contour>
  </outline>
</glyph>
<glyph name="summation" format="2">
  <advance width="687"/>
  <unicode hex="2211"/>
  <outline>
    <contour>
      <point x="32" y="-194" type="line"/>
      <point x="675" y="-194" type="line"/>
      <point x="675" y="-11" type="line"/>
      <point x="238" y="-11" type="line"/>
      <point x="271" y="-86" type="line"/>
      <point x="532" y="181" type="line"/>
      <point x="532" y="326" type="line"/>
      <point x="291" y="595" type="line"/>
      <point x="254" y="517" type="line"/>
      <point x="665" y="517" type="line"/>
      <point x="665" y="700" type="line"/>
      <point x="48" y="700" type="line"/>
      <point x="48" y="555" type="line"/>
      <point x="384" y="176" type="line"/>
      <point x="386" y="330" type="line"/>
      <point x="32" y="-49" type="line"/>
    </contour>
  </outline>
</glyph>
<glyph name="minus" format="2">
  <advance width="620"/>
  <unicode hex="2212"/>
  <outline>
    <contour>
      <point x="55" y="265" type="line"/>
      <point x="565" y="265" type="line"/>
      <point x="565" y="435" type="line"/>
      <point x="55" y="435" type="line"/>
    </contour>
  </outline>
</glyph>
<glyph name="infinity" format="2">
  <advance width="939"/>
  <unicode hex="221E"/>
  <outline>
    <contour>
      <point x="689" y="122" type="curve" smooth="yes"/>
      <point x="819" y="122"/>
      <point x="918" y="219"/>
      <point x="918" y="350" type="curve" smooth="yes"/>
      <point x="918" y="482"/>
      <point x="819" y="578"/>
      <point x="689" y="578" type="curve" smooth="yes"/>
      <point x="417" y="578"/>
      <point x="416" y="274"/>
      <point x="270" y="274" type="curve" smooth="yes"/>
      <point x="230" y="274"/>
      <point x="199" y="307"/>
      <point x="199" y="350" type="curve" smooth="yes"/>
      <point x="199" y="393"/>
      <point x="230" y="426"/>
      <point x="270" y="426" type="curve" smooth="yes"/>
      <point x="416" y="426"/>
      <point x="417" y="122"/>
    </contour>
    <contour>
      <point x="254" y="122" type="curve" smooth="yes"/>
      <point x="526" y="122"/>
      <point x="523" y="426"/>
      <point x="669" y="426" type="curve" smooth="yes"/>
      <point x="710" y="426"/>
      <point x="740" y="393"/>
      <point x="740" y="350" type="curve" smooth="yes"/>
      <point x="740" y="307"/>
      <point x="710" y="274"/>
      <point x="669" y="274" type="curve" smooth="yes"/>
      <point x="523" y="274"/>
      <point x="526" y="578"/>
      <point x="254" y="578" type="curve" smooth="yes"/>
      <point x="121" y="578"/>
      <point x="21" y="482"/>
      <point x="21" y="350" type="curve" smooth="yes"/>
      <point x="21" y="219"/>
      <point x="121" y="122"/>
    </contour>
  </outline>
</glyph>
<glyph name="integral" format="2">
  <advance width="476"/>
  <unicode hex="222B"/>
  <outline>
    <contour>
      <point x="112" y="-204" type="curve" smooth="yes"/>
      <point x="263" y="-204"/>
      <point x="351" y="-113"/>
      <point x="351" y="28" type="curve" smooth="yes"/>
      <point x="351" y="524" type="line" smooth="yes"/>
      <point x="351" y="568"/>
      <point x="371" y="587"/>
      <point x="398" y="587" type="curve" smooth="yes"/>
      <point x="416" y="587"/>
      <point x="434" y="582"/>
      <point x="449" y="574" type="curve"/>
      <point x="503" y="731" type="line"/>
      <point x="468" y="749"/>
      <point x="417" y="758"/>
      <point x="364" y="758" type="curve" smooth="yes"/>
      <point x="213" y="758"/>
      <point x="125" y="667"/>
      <point x="125" y="526" type="curve" smooth="yes"/>
      <point x="125" y="30" type="line" smooth="yes"/>
      <point x="125" y="-14"/>
      <point x="105" y="-33"/>
      <point x="78" y="-33" type="curve" smooth="yes"/>
      <point x="60" y="-33"/>
      <point x="42" y="-28"/>
      <point x="27" y="-20" type="curve"/>
      <point x="-27" y="-177" type="line"/>
      <point x="8" y="-195"/>
      <point x="59" y="-204"/>
    </contour>
  </outline>
</glyph>
<glyph name="notequal" format="2">
  <advance width="620"/>
  <unicode hex="2260"/>
  <outline>
    <contour>
      <point x="60" y="35" type="line"/>
      <point x="240" y="35" type="line"/>
      <point x="560" y="665" type="line"/>
      <point x="380" y="665" type="line"/>
    </contour>
    <contour>
      <point x="55" y="135" type="line"/>
      <point x="565" y="135" type="line"/>
      <point x="565" y="305" type="line"/>
      <point x="55" y="305" type="line"/>
    </contour>
    <contour>
      <point x="55" y="395" type="line"/>
      <point x="565" y="395" type="line"/>
      <point x="565" y="565" type="line"/>
      <point x="55" y="565" type="line"/>
    </contour>
  </outline>
</glyph>
<glyph name="upWhiteTriangle" format="2">
  <advance width="600"/>
  <unicode hex="25B3"/>
  <outline>
    <contour>
      <point x="87" y="52" type="line"/>
      <point x="513" y="52" type="line"/>
      <point x="300" y="478" type="line"/>
    </contour>
    <contour>
      <point x="229" y="140" type="line"/>
      <point x="300" y="282" type="line"/>
      <point x="371" y="140" type="line"/>
    </contour>
  </outline>
</glyph>
<glyph name="lozenge" format="2">
  <advance width="494"/>
  <unicode hex="25CA"/>
  <outline>
    <contour>
      <point x="246" y="-9" type="line"/>
      <point x="473" y="330" type="line"/>
      <point x="248" y="666" type="line"/>
      <point x="21" y="330" type="line"/>
    </contour>
    <contour>
      <point x="247" y="205" type="line"/>
      <point x="164" y="330" type="line"/>
      <point x="247" y="453" type="line"/>
      <point x="330" y="330" type="line"/>
    </contour>
  </outline>
</glyph>
<glyph name="saltillo" format="2">
  <advance width="334"/>
  <unicode hex="A78C"/>
  <outline>
    <contour>
      <point x="55" y="296" type="line"/>
      <point x="249" y="296" type="line"/>
      <point x="279" y="701" type="line"/>
      <point x="55" y="701" type="line"/>
    </contour>
  </outline>
</glyph>
<glyph name="AE.ss01" format="2">
  <advance width="1099"/>
  <anchor x="547" y="0" name="bottom"/>
  <anchor x="547" y="700" name="top"/>
  <outline>
    <contour>
      <point x="483" y="0" type="line"/>
      <point x="1065" y="0" type="line"/>
      <point x="1065" y="178" type="line"/>
      <point x="715" y="178" type="line"/>
      <point x="715" y="270" type="line"/>
      <point x="1011" y="270" type="line"/>
      <point x="1011" y="440" type="line"/>
      <point x="715" y="440" type="line"/>
      <point x="715" y="522" type="line"/>
      <point x="1052" y="522" type="line"/>
      <point x="1052" y="700" type="line"/>
      <point x="483" y="700" type="line"/>
    </contour>
    <contour>
      <point x="194" y="148" type="line"/>
      <point x="599" y="148" type="line"/>
      <point x="599" y="326" type="line"/>
      <point x="194" y="326" type="line"/>
    </contour>
    <contour>
      <point x="46" y="0" type="line"/>
      <point x="282" y="0" type="line"/>
      <point x="282" y="370" type="line" smooth="yes"/>
      <point x="282" y="469"/>
      <point x="318" y="509"/>
      <point x="408" y="509" type="curve" smooth="yes"/>
      <point x="599" y="509" type="line"/>
      <point x="599" y="700" type="line"/>
      <point x="386" y="700" type="line" smooth="yes"/>
      <point x="166" y="700"/>
      <point x="46" y="586"/>
      <point x="46" y="376" type="curve" smooth="yes"/>
    </contour>
  </outline>
</glyph>
<glyph name="De-cy.ss01" format="2">
  <advance width="888"/>
  <outline>
    <contour>
      <point x="99" y="0" type="line"/>
      <point x="335" y="0" type="line"/>
      <point x="335" y="406" type="line" smooth="yes"/>
      <point x="335" y="487"/>
      <point x="380" y="525"/>
      <point x="444" y="525" type="curve" smooth="yes"/>
      <point x="508" y="525"/>
      <point x="553" y="487"/>
      <point x="553" y="406" type="curve" smooth="yes"/>
      <point x="553" y="0" type="line"/>
      <point x="789" y="0" type="line"/>
      <point x="789" y="386" type="line" smooth="yes"/>
      <point x="789" y="596"/>
      <point x="648" y="716"/>
      <point x="444" y="716" type="curve" smooth="yes"/>
      <point x="240" y="716"/>
      <point x="99" y="596"/>
      <point x="99" y="386" type="curve" smooth="yes"/>
    </contour>
    <contour>
      <point x="17" y="-137" type="line"/>
      <point x="233" y="-137" type="line"/>
      <point x="233" y="0" type="line"/>
      <point x="655" y="0" type="line"/>
      <point x="655" y="-137" type="line"/>
      <point x="871" y="-137" type="line"/>
      <point x="871" y="183" type="line"/>
      <point x="17" y="183" type="line"/>
    </contour>
  </outline>
</glyph>
<glyph name="Ef-cy.loclBGR" format="2">
  <advance width="985"/>
  <outline>
    <contour>
      <point x="492" y="0" type="curve" smooth="yes"/>
      <point x="792" y="0"/>
      <point x="963" y="151"/>
      <point x="963" y="353" type="curve" smooth="yes"/>
      <point x="963" y="555"/>
      <point x="792" y="705"/>
      <point x="492" y="705" type="curve" smooth="yes"/>
      <point x="192" y="705"/>
      <point x="22" y="555"/>
      <point x="22" y="353" type="curve" smooth="yes"/>
      <point x="22" y="151"/>
      <point x="192" y="0"/>
    </contour>
    <contour>
      <point x="492" y="180" type="curve" smooth="yes"/>
      <point x="317" y="180"/>
      <point x="247" y="249"/>
      <point x="247" y="353" type="curve" smooth="yes"/>
      <point x="247" y="456"/>
      <point x="317" y="525"/>
      <point x="492" y="525" type="curve" smooth="yes"/>
      <point x="668" y="525"/>
      <point x="738" y="456"/>
      <point x="738" y="353" type="curve" smooth="yes"/>
      <point x="738" y="249"/>
      <point x="668" y="180"/>
    </contour>
    <contour>
      <point x="384" y="-66" type="line"/>
      <point x="601" y="-66" type="line"/>
      <point x="601" y="765" type="line"/>
      <point x="384" y="765" type="line"/>
    </contour>
  </outline>
</glyph>
<glyph name="Ef-cy.ss01" format="2">
  <advance width="985"/>
  <outline>
    <contour>
      <point x="492" y="-15" type="curve" smooth="yes"/>
      <point x="792" y="-15"/>
      <point x="963" y="141"/>
      <point x="963" y="350" type="curve" smooth="yes"/>
      <point x="963" y="559"/>
      <point x="792" y="715"/>
      <point x="492" y="715" type="curve" smooth="yes"/>
      <point x="192" y="715"/>
      <point x="22" y="559"/>
      <point x="22" y="350" type="curve" smooth="yes"/>
      <point x="22" y="141"/>
      <point x="192" y="-15"/>
    </contour>
    <contour>
      <point x="492" y="165" type="curve" smooth="yes"/>
      <point x="317" y="165"/>
      <point x="247" y="239"/>
      <point x="247" y="350" type="curve" smooth="yes"/>
      <point x="247" y="460"/>
      <point x="317" y="534"/>
      <point x="492" y="534" type="curve" smooth="yes"/>
      <point x="668" y="534"/>
      <point x="738" y="460"/>
      <point x="738" y="350" type="curve" smooth="yes"/>
      <point x="738" y="239"/>
      <point x="668" y="165"/>
    </contour>
    <contour>
      <point x="384" y="72" type="line"/>
      <point x="601" y="72" type="line"/>
      <point x="601" y="620" type="line"/>
      <point x="384" y="620" type="line"/>
    </contour>
  </outline>
</glyph>
<glyph name="F.ss01" format="2">
  <advance width="625"/>
  <outline>
    <contour>
      <point x="51" y="0" type="line"/>
      <point x="287" y="0" type="line"/>
      <point x="287" y="405" type="line" smooth="yes"/>
      <point x="287" y="488"/>
      <point x="339" y="525"/>
      <point x="428" y="525" type="curve" smooth="yes"/>
      <point x="464" y="525"/>
      <point x="509" y="516"/>
      <point x="548" y="495" type="curve"/>
      <point x="616" y="673" type="line"/>
      <point x="565" y="700"/>
      <point x="490" y="716"/>
      <point x="408" y="716" type="curve" smooth="yes"/>
      <point x="181" y="716"/>
      <point x="51" y="603"/>
      <point x="51" y="400" type="curve" smooth="yes"/>
    </contour>
    <contour>
      <point x="196" y="224" type="line"/>
      <point x="535" y="224" type="line"/>
      <point x="535" y="402" type="line"/>
      <point x="196" y="402" type="line"/>
    </contour>
  </outline>
</glyph>
<glyph name="Hardsign-cy.ss01" format="2">
  <advance width="890"/>
  <guideline x="608" y="440" angle="0"/>
  <outline>
    <contour>
      <point x="207" y="517" type="line"/>
      <point x="439" y="700" type="line"/>
      <point x="17" y="700" type="line"/>
      <point x="17" y="517" type="line"/>
    </contour>
    <contour>
      <point x="529" y="-16" type="curve" smooth="yes"/>
      <point x="749" y="-16"/>
      <point x="870" y="78"/>
      <point x="870" y="247" type="curve" smooth="yes"/>
      <point x="870" y="408"/>
      <point x="764" y="497"/>
      <point x="575" y="497" type="curve" smooth="yes"/>
      <point x="515" y="497"/>
      <point x="472" y="488"/>
      <point x="408" y="465" type="curve"/>
      <point x="414" y="298" type="line"/>
      <point x="437" y="315"/>
      <point x="484" y="327"/>
      <point x="529" y="327" type="curve" smooth="yes"/>
      <point x="598" y="327"/>
      <point x="633" y="299"/>
      <point x="633" y="242" type="curve" smooth="yes"/>
      <point x="633" y="189"/>
      <point x="600" y="159"/>
      <point x="541" y="159" type="curve" smooth="yes"/>
      <point x="475" y="159"/>
      <point x="439" y="196"/>
      <point x="439" y="261" type="curve" smooth="yes"/>
      <point x="439" y="700" type="line"/>
      <point x="207" y="700" type="line"/>
      <point x="207" y="255" type="line" smooth="yes"/>
      <point x="207" y="74"/>
      <point x="313" y="-16"/>
    </contour>
  </outline>
</glyph>
<glyph name="IJ.ss01" format="2">
  <advance width="729"/>
  <anchor x="169" y="700" name="top"/>
  <outline>
    <contour>
      <point x="328" y="-110" type="curve" smooth="yes"/>
      <point x="538" y="-110"/>
      <point x="678" y="11"/>
      <point x="678" y="231" type="curve" smooth="yes"/>
      <point x="678" y="700" type="line"/>
      <point x="442" y="700" type="line"/>
      <point x="442" y="215" type="line" smooth="yes"/>
      <point x="442" y="118"/>
      <point x="404" y="75"/>
      <point x="317" y="75" type="curve" smooth="yes"/>
      <point x="258" y="75"/>
      <point x="183" y="97"/>
      <point x="117" y="142" type="curve"/>
      <point x="31" y="-25" type="line"/>
      <point x="104" y="-77"/>
      <point x="208" y="-110"/>
    </contour>
    <contour>
      <point x="51" y="236" type="line"/>
      <point x="287" y="236" type="line"/>
      <point x="287" y="700" type="line"/>
      <point x="51" y="700" type="line"/>
    </contour>
  </outline>
</glyph>
<glyph name="Iacute_J.loclNLD.ss01" format="2">
  <advance width="729"/>
  <outline>
    <contour>
      <point x="328" y="-110" type="curve" smooth="yes"/>
      <point x="538" y="-110"/>
      <point x="678" y="11"/>
      <point x="678" y="231" type="curve" smooth="yes"/>
      <point x="678" y="700" type="line"/>
      <point x="442" y="700" type="line"/>
      <point x="442" y="218" type="line" smooth="yes"/>
      <point x="442" y="121"/>
      <point x="404" y="78"/>
      <point x="317" y="78" type="curve" smooth="yes"/>
      <point x="258" y="78"/>
      <point x="183" y="100"/>
      <point x="117" y="142" type="curve"/>
      <point x="31" y="-25" type="line"/>
      <point x="104" y="-77"/>
      <point x="208" y="-110"/>
    </contour>
    <contour>
      <point x="51" y="236" type="line"/>
      <point x="287" y="236" type="line"/>
      <point x="287" y="700" type="line"/>
      <point x="51" y="700" type="line"/>
    </contour>
    <contour>
      <point x="64" y="757" type="line"/>
      <point x="214" y="757" type="line"/>
      <point x="411" y="917" type="line"/>
      <point x="196" y="917" type="line"/>
    </contour>
    <contour>
      <point x="454" y="757" type="line"/>
      <point x="604" y="757" type="line"/>
      <point x="801" y="917" type="line"/>
      <point x="586" y="917" type="line"/>
    </contour>
  </outline>
</glyph>
<glyph name="M.ss01" format="2">
  <advance width="1212"/>
  <anchor x="601" y="0" name="bottom"/>
  <anchor x="598" y="700" name="top"/>
  <outline>
    <contour>
      <point x="896" y="716" type="curve" smooth="yes"/>
      <point x="778" y="716"/>
      <point x="683" y="664"/>
      <point x="639" y="559" type="curve"/>
      <point x="711" y="551" type="line"/>
      <point x="676" y="660"/>
      <point x="596" y="716"/>
      <point x="478" y="716" type="curve" smooth="yes"/>
      <point x="363" y="716"/>
      <point x="285" y="662"/>
      <point x="251" y="565" type="curve"/>
      <point x="285" y="524" type="line"/>
      <point x="285" y="700" type="line"/>
      <point x="57" y="700" type="line"/>
      <point x="57" y="0" type="line"/>
      <point x="293" y="0" type="line"/>
      <point x="293" y="410" type="line" smooth="yes"/>
      <point x="293" y="487"/>
      <point x="332" y="525"/>
      <point x="390" y="525" type="curve" smooth="yes"/>
      <point x="447" y="525"/>
      <point x="483" y="489"/>
      <point x="483" y="418" type="curve" smooth="yes"/>
      <point x="483" y="0" type="line"/>
      <point x="719" y="0" type="line"/>
      <point x="719" y="410" type="line" smooth="yes"/>
      <point x="719" y="487"/>
      <point x="762" y="525"/>
      <point x="824" y="525" type="curve" smooth="yes"/>
      <point x="885" y="525"/>
      <point x="925" y="489"/>
      <point x="925" y="418" type="curve" smooth="yes"/>
      <point x="925" y="0" type="line"/>
      <point x="1161" y="0" type="line"/>
      <point x="1161" y="425" type="line" smooth="yes"/>
      <point x="1161" y="615"/>
      <point x="1061" y="716"/>
    </contour>
  </outline>
</glyph>
<glyph name="N.ss01" format="2">
  <advance width="794"/>
  <anchor x="400" y="0" name="bottom"/>
  <anchor x="400" y="700" name="top"/>
  <outline>
    <contour>
      <point x="482" y="716" type="curve" smooth="yes"/>
      <point x="370" y="716"/>
      <point x="291" y="659"/>
      <point x="250" y="563" type="curve"/>
      <point x="286" y="519" type="line"/>
      <point x="286" y="700" type="line"/>
      <point x="57" y="700" type="line"/>
      <point x="57" y="0" type="line"/>
      <point x="293" y="0" type="line"/>
      <point x="293" y="390" type="line" smooth="yes"/>
      <point x="293" y="483"/>
      <point x="342" y="525"/>
      <point x="403" y="525" type="curve" smooth="yes"/>
      <point x="466" y="525"/>
      <point x="507" y="486"/>
      <point x="507" y="398" type="curve" smooth="yes"/>
      <point x="507" y="0" type="line"/>
      <point x="743" y="0" type="line"/>
      <point x="743" y="405" type="line" smooth="yes"/>
      <point x="743" y="605"/>
      <point x="647" y="716"/>
    </contour>
  </outline>
</glyph>
<glyph name="Q.ss01.BRACKET.170" format="2">
  <advance width="848"/>
  <outline>
    <contour>
      <point x="306" y="-135" type="line"/>
      <point x="542" y="-135" type="line"/>
      <point x="542" y="65" type="line"/>
      <point x="306" y="65" type="line"/>
    </contour>
    <contour>
      <point x="424" y="-16" type="curve" smooth="yes"/>
      <point x="652" y="-16"/>
      <point x="819" y="138"/>
      <point x="819" y="350" type="curve" smooth="yes"/>
      <point x="819" y="562"/>
      <point x="652" y="716"/>
      <point x="424" y="716" type="curve" smooth="yes"/>
      <point x="196" y="716"/>
      <point x="29" y="562"/>
      <point x="29" y="350" type="curve" smooth="yes"/>
      <point x="29" y="138"/>
      <point x="196" y="-16"/>
    </contour>
    <contour>
      <point x="424" y="175" type="curve" smooth="yes"/>
      <point x="337" y="175"/>
      <point x="267" y="241"/>
      <point x="267" y="350" type="curve" smooth="yes"/>
      <point x="267" y="459"/>
      <point x="337" y="525"/>
      <point x="424" y="525" type="curve" smooth="yes"/>
      <point x="511" y="525"/>
      <point x="581" y="459"/>
      <point x="581" y="350" type="curve" smooth="yes"/>
      <point x="581" y="241"/>
      <point x="511" y="175"/>
    </contour>
  </outline>
</glyph>
<glyph name="Schwa.ss01" format="2">
  <advance width="818"/>
  <anchor x="409" y="0" name="bottom"/>
  <anchor x="409" y="700" name="top"/>
  <outline>
    <contour>
      <point x="409" y="-16" type="curve" smooth="yes"/>
      <point x="628" y="-16"/>
      <point x="789" y="133"/>
      <point x="789" y="350" type="curve" smooth="yes"/>
      <point x="789" y="565"/>
      <point x="624" y="716"/>
      <point x="389" y="716" type="curve" smooth="yes"/>
      <point x="262" y="716"/>
      <point x="135" y="658"/>
      <point x="69" y="586" type="curve"/>
      <point x="208" y="443" type="line"/>
      <point x="251" y="495"/>
      <point x="332" y="525"/>
      <point x="387" y="525" type="curve" smooth="yes"/>
      <point x="485" y="525"/>
      <point x="551" y="457"/>
      <point x="551" y="360" type="curve" smooth="yes"/>
      <point x="551" y="312" type="line" smooth="yes"/>
      <point x="551" y="215"/>
      <point x="503" y="157"/>
      <point x="409" y="157" type="curve" smooth="yes"/>
      <point x="305" y="157"/>
      <point x="267" y="215"/>
      <point x="277" y="312" type="curve"/>
      <point x="201" y="173" type="line"/>
      <point x="611" y="341" type="line"/>
      <point x="562" y="469" type="line"/>
      <point x="40" y="259" type="line"/>
      <point x="79" y="90"/>
      <point x="219" y="-16"/>
    </contour>
  </outline>
</glyph>
<glyph name="Semisoftsign-cy.ss01" format="2">
  <advance width="780"/>
  <anchor x="226" y="580" name="center"/>
  <outline>
    <contour>
      <point x="420" y="-16" type="curve" smooth="yes"/>
      <point x="640" y="-16"/>
      <point x="761" y="78"/>
      <point x="761" y="247" type="curve" smooth="yes"/>
      <point x="761" y="402"/>
      <point x="655" y="487"/>
      <point x="466" y="487" type="curve" smooth="yes"/>
      <point x="406" y="487"/>
      <point x="363" y="481"/>
      <point x="299" y="465" type="curve"/>
      <point x="305" y="298" type="line"/>
      <point x="328" y="309"/>
      <point x="375" y="317"/>
      <point x="420" y="317" type="curve" smooth="yes"/>
      <point x="489" y="317"/>
      <point x="524" y="292"/>
      <point x="524" y="242" type="curve" smooth="yes"/>
      <point x="524" y="189"/>
      <point x="491" y="159"/>
      <point x="432" y="159" type="curve" smooth="yes"/>
      <point x="366" y="159"/>
      <point x="330" y="196"/>
      <point x="330" y="261" type="curve" smooth="yes"/>
      <point x="330" y="742" type="line"/>
      <point x="98" y="742" type="line"/>
      <point x="98" y="255" type="line" smooth="yes"/>
      <point x="98" y="74"/>
      <point x="204" y="-16"/>
    </contour>
    <contour>
      <point x="13" y="546" type="line"/>
      <point x="550" y="546" type="line"/>
      <point x="550" y="676" type="line"/>
      <point x="13" y="676" type="line"/>
    </contour>
  </outline>
</glyph>
<glyph name="Udieresis.alt.BRACKET.133" format="2">
  <advance width="784"/>
  <outline>
    <contour>
      <point x="392" y="-16" type="curve" smooth="yes"/>
      <point x="607" y="-16"/>
      <point x="733" y="105"/>
      <point x="733" y="315" type="curve" smooth="yes"/>
      <point x="733" y="700" type="line"/>
      <point x="501" y="700" type="line"/>
      <point x="501" y="322" type="line" smooth="yes"/>
      <point x="501" y="215"/>
      <point x="460" y="175"/>
      <point x="394" y="175" type="curve" smooth="yes"/>
      <point x="328" y="175"/>
      <point x="287" y="215"/>
      <point x="287" y="322" type="curve" smooth="yes"/>
      <point x="287" y="700" type="line"/>
      <point x="51" y="700" type="line"/>
      <point x="51" y="315" type="line" smooth="yes"/>
      <point x="51" y="105"/>
      <point x="177" y="-16"/>
    </contour>
    <contour>
      <point x="394" y="363" type="curve" smooth="yes"/>
      <point x="445" y="363"/>
      <point x="480" y="401"/>
      <point x="480" y="446" type="curve" smooth="yes"/>
      <point x="480" y="491"/>
      <point x="445" y="529"/>
      <point x="394" y="529" type="curve" smooth="yes"/>
      <point x="343" y="529"/>
      <point x="309" y="491"/>
      <point x="309" y="446" type="curve" smooth="yes"/>
      <point x="309" y="401"/>
      <point x="343" y="363"/>
    </contour>
    <contour>
      <point x="394" y="544" type="curve" smooth="yes"/>
      <point x="445" y="544"/>
      <point x="480" y="582"/>
      <point x="480" y="627" type="curve" smooth="yes"/>
      <point x="480" y="672"/>
      <point x="445" y="710"/>
      <point x="394" y="710" type="curve" smooth="yes"/>
      <point x="343" y="710"/>
      <point x="309" y="672"/>
      <point x="309" y="627" type="curve" smooth="yes"/>
      <point x="309" y="582"/>
      <point x="343" y="544"/>
    </contour>
  </outline>
</glyph>
<glyph name="Y.ss01" format="2">
  <advance width="783"/>
  <anchor x="681" y="0" name="bottom"/>
  <anchor x="389" y="700" name="top"/>
  <outline>
    <contour>
      <point x="372" y="-110" type="curve" smooth="yes"/>
      <point x="592" y="-110"/>
      <point x="732" y="11"/>
      <point x="732" y="231" type="curve" smooth="yes"/>
      <point x="732" y="700" type="line"/>
      <point x="496" y="700" type="line"/>
      <point x="496" y="478" type="line" smooth="yes"/>
      <point x="496" y="385"/>
      <point x="447" y="353"/>
      <point x="386" y="353" type="curve" smooth="yes"/>
      <point x="315" y="353"/>
      <point x="282" y="391"/>
      <point x="282" y="470" type="curve" smooth="yes"/>
      <point x="282" y="700" type="line"/>
      <point x="46" y="700" type="line"/>
      <point x="46" y="453" type="line" smooth="yes"/>
      <point x="46" y="264"/>
      <point x="141" y="162"/>
      <point x="317" y="162" type="curve" smooth="yes"/>
      <point x="418" y="162"/>
      <point x="494" y="211"/>
      <point x="535" y="298" type="curve"/>
      <point x="496" y="344" type="line"/>
      <point x="496" y="218" type="line" smooth="yes"/>
      <point x="496" y="121"/>
      <point x="458" y="78"/>
      <point x="361" y="78" type="curve" smooth="yes"/>
      <point x="292" y="78"/>
      <point x="217" y="100"/>
      <point x="151" y="142" type="curve"/>
      <point x="65" y="-25" type="line"/>
      <point x="138" y="-77"/>
      <point x="242" y="-110"/>
    </contour>
  </outline>
</glyph>
<glyph name="Yat-cy.ss01" format="2">
  <advance width="861"/>
  <anchor x="306" y="580" name="center"/>
  <outline>
    <contour>
      <point x="500" y="-16" type="curve" smooth="yes"/>
      <point x="720" y="-16"/>
      <point x="841" y="78"/>
      <point x="841" y="247" type="curve" smooth="yes"/>
      <point x="841" y="408"/>
      <point x="735" y="497"/>
      <point x="546" y="497" type="curve" smooth="yes"/>
      <point x="486" y="497"/>
      <point x="443" y="488"/>
      <point x="379" y="465" type="curve"/>
      <point x="385" y="298" type="line"/>
      <point x="408" y="315"/>
      <point x="455" y="327"/>
      <point x="500" y="327" type="curve" smooth="yes"/>
      <point x="569" y="327"/>
      <point x="604" y="299"/>
      <point x="604" y="242" type="curve" smooth="yes"/>
      <point x="604" y="189"/>
      <point x="571" y="159"/>
      <point x="512" y="159" type="curve" smooth="yes"/>
      <point x="446" y="159"/>
      <point x="410" y="196"/>
      <point x="410" y="261" type="curve" smooth="yes"/>
      <point x="410" y="742" type="line"/>
      <point x="178" y="742" type="line"/>
      <point x="178" y="255" type="line" smooth="yes"/>
      <point x="178" y="74"/>
      <point x="284" y="-16"/>
    </contour>
    <contour>
      <point x="13" y="546" type="line"/>
      <point x="630" y="546" type="line"/>
      <point x="630" y="676" type="line"/>
      <point x="13" y="676" type="line"/>
    </contour>
  </outline>
</glyph>
<glyph name="Yeru-cy.ss01" format="2">
  <advance width="1070"/>
  <anchor x="535" y="700" name="top"/>
  <outline>
    <contour>
      <point x="373" y="-16" type="curve" smooth="yes"/>
      <point x="593" y="-16"/>
      <point x="714" y="78"/>
      <point x="714" y="247" type="curve" smooth="yes"/>
      <point x="714" y="408"/>
      <point x="608" y="497"/>
      <point x="419" y="497" type="curve" smooth="yes"/>
      <point x="359" y="497"/>
      <point x="316" y="488"/>
      <point x="252" y="465" type="curve"/>
      <point x="258" y="298" type="line"/>
      <point x="281" y="315"/>
      <point x="328" y="327"/>
      <point x="373" y="327" type="curve" smooth="yes"/>
      <point x="442" y="327"/>
      <point x="477" y="299"/>
      <point x="477" y="242" type="curve" smooth="yes"/>
      <point x="477" y="189"/>
      <point x="444" y="159"/>
      <point x="385" y="159" type="curve" smooth="yes"/>
      <point x="319" y="159"/>
      <point x="283" y="196"/>
      <point x="283" y="261" type="curve" smooth="yes"/>
      <point x="283" y="700" type="line"/>
      <point x="51" y="700" type="line"/>
      <point x="51" y="255" type="line" smooth="yes"/>
      <point x="51" y="74"/>
      <point x="157" y="-16"/>
    </contour>
    <contour>
      <point x="776" y="0" type="line"/>
      <point x="1008" y="0" type="line"/>
      <point x="1008" y="700" type="line"/>
      <point x="776" y="700" type="line"/>
    </contour>
  </outline>
</glyph>
<glyph name="a.sc" format="2">
  <advance width="702"/>
  <anchor x="351" y="0" name="bottom"/>
  <anchor x="720" y="0" name="ogonek"/>
  <anchor x="351" y="582" name="top"/>
  <anchor x="106" y="583" name="topleft"/>
  <outline>
    <contour>
      <point x="-18" y="0" type="line"/>
      <point x="202" y="0" type="line"/>
      <point x="389" y="478" type="line"/>
      <point x="314" y="478" type="line"/>
      <point x="497" y="0" type="line"/>
      <point x="720" y="0" type="line"/>
      <point x="464" y="582" type="line"/>
      <point x="238" y="582" type="line"/>
    </contour>
    <contour>
      <point x="148" y="90" type="line"/>
      <point x="517" y="90" type="line"/>
      <point x="459" y="244" type="line"/>
      <point x="206" y="244" type="line"/>
    </contour>
  </outline>
</glyph>
<glyph name="a.sc.ss01" format="2">
  <advance width="700"/>
  <anchor x="350" y="0" name="bottom"/>
  <anchor x="652" y="0" name="ogonek"/>
  <anchor x="350" y="582" name="top"/>
  <anchor x="54" y="582" name="topleft"/>
  <outline>
    <contour>
      <point x="48" y="0" type="line"/>
      <point x="278" y="0" type="line"/>
      <point x="278" y="332" type="line" smooth="yes"/>
      <point x="278" y="388"/>
      <point x="307" y="417"/>
      <point x="350" y="417" type="curve" smooth="yes"/>
      <point x="393" y="417"/>
      <point x="422" y="388"/>
      <point x="422" y="332" type="curve" smooth="yes"/>
      <point x="422" y="0" type="line"/>
      <point x="652" y="0" type="line"/>
      <point x="652" y="306" type="line" smooth="yes"/>
      <point x="652" y="490"/>
      <point x="528" y="597"/>
      <point x="350" y="597" type="curve" smooth="yes"/>
      <point x="172" y="597"/>
      <point x="48" y="490"/>
      <point x="48" y="306" type="curve" smooth="yes"/>
    </contour>
    <contour>
      <point x="192" y="106" type="line"/>
      <point x="503" y="106" type="line"/>
      <point x="503" y="274" type="line"/>
      <point x="192" y="274" type="line"/>
    </contour>
  </outline>
</glyph>
<glyph name="a.ss01" format="2">
  <advance width="700"/>
  <anchor x="366" y="0" name="bottom"/>
  <anchor x="650" y="0" name="ogonek"/>
  <anchor x="366" y="547" name="top"/>
  <outline>
    <contour>
      <point x="285" y="-10" type="curve" smooth="yes"/>
      <point x="436" y="-10"/>
      <point x="493" y="77"/>
      <point x="493" y="274" type="curve" smooth="yes"/>
      <point x="493" y="468"/>
      <point x="428" y="557"/>
      <point x="285" y="557" type="curve" smooth="yes"/>
      <point x="142" y="557"/>
      <point x="21" y="450"/>
      <point x="21" y="274" type="curve" smooth="yes"/>
      <point x="21" y="98"/>
      <point x="142" y="-10"/>
    </contour>
    <contour>
      <point x="339" y="166" type="curve" smooth="yes"/>
      <point x="289" y="166"/>
      <point x="250" y="203"/>
      <point x="250" y="274" type="curve" smooth="yes"/>
      <point x="250" y="345"/>
      <point x="289" y="381"/>
      <point x="339" y="381" type="curve" smooth="yes"/>
      <point x="389" y="381"/>
      <point x="428" y="345"/>
      <point x="428" y="274" type="curve" smooth="yes"/>
      <point x="428" y="203"/>
      <point x="389" y="166"/>
    </contour>
    <contour>
      <point x="435" y="0" type="line"/>
      <point x="650" y="0" type="line"/>
      <point x="650" y="547" type="line"/>
      <point x="424" y="547" type="line"/>
      <point x="424" y="474" type="line"/>
      <point x="434" y="274" type="line"/>
      <point x="435" y="74" type="line"/>
    </contour>
  </outline>
</glyph>
<glyph name="ae.sc.ss01" format="2">
  <advance width="966"/>
  <anchor x="481" y="0" name="bottom"/>
  <anchor x="481" y="582" name="top"/>
  <outline>
    <contour>
      <point x="419" y="0" type="line"/>
      <point x="928" y="0" type="line"/>
      <point x="928" y="165" type="line"/>
      <point x="643" y="165" type="line"/>
      <point x="643" y="217" type="line"/>
      <point x="882" y="217" type="line"/>
      <point x="882" y="374" type="line"/>
      <point x="643" y="374" type="line"/>
      <point x="643" y="417" type="line"/>
      <point x="917" y="417" type="line"/>
      <point x="917" y="582" type="line"/>
      <point x="419" y="582" type="line"/>
    </contour>
    <contour>
      <point x="180" y="113" type="line"/>
      <point x="527" y="113" type="line"/>
      <point x="527" y="278" type="line"/>
      <point x="180" y="278" type="line"/>
    </contour>
    <contour>
      <point x="43" y="0" type="line"/>
      <point x="262" y="0" type="line"/>
      <point x="262" y="304" type="line" smooth="yes"/>
      <point x="262" y="378"/>
      <point x="289" y="405"/>
      <point x="362" y="405" type="curve" smooth="yes"/>
      <point x="527" y="405" type="line"/>
      <point x="527" y="582" type="line"/>
      <point x="341" y="582" type="line" smooth="yes"/>
      <point x="148" y="582"/>
      <point x="43" y="487"/>
      <point x="43" y="310" type="curve" smooth="yes"/>
    </contour>
  </outline>
</glyph>
<glyph name="ae.ss01" format="2">
  <advance width="1003"/>
  <anchor x="478" y="547" name="top"/>
  <outline>
    <contour>
      <point x="270" y="-10" type="curve" smooth="yes"/>
      <point x="379" y="-10"/>
      <point x="469" y="25"/>
      <point x="515" y="155" type="curve"/>
      <point x="412" y="155" type="line"/>
      <point x="472" y="30"/>
      <point x="588" y="-10"/>
      <point x="704" y="-10" type="curve" smooth="yes"/>
      <point x="804" y="-10"/>
      <point x="885" y="20"/>
      <point x="940" y="78" type="curve"/>
      <point x="821" y="197" type="line"/>
      <point x="784" y="170"/>
      <point x="753" y="157"/>
      <point x="710" y="157" type="curve" smooth="yes"/>
      <point x="635" y="157"/>
      <point x="591" y="196"/>
      <point x="591" y="267" type="curve" smooth="yes"/>
      <point x="591" y="301" type="line" smooth="yes"/>
      <point x="591" y="365"/>
      <point x="631" y="403"/>
      <point x="683" y="403" type="curve" smooth="yes"/>
      <point x="736" y="403"/>
      <point x="773" y="363"/>
      <point x="773" y="311" type="curve"/>
      <point x="845" y="362" type="line"/>
      <point x="560" y="306" type="line"/>
      <point x="560" y="196" type="line"/>
      <point x="982" y="277" type="line"/>
      <point x="982" y="459"/>
      <point x="841" y="557"/>
      <point x="686" y="557" type="curve" smooth="yes"/>
      <point x="587" y="557"/>
      <point x="498" y="517"/>
      <point x="444" y="451" type="curve"/>
      <point x="532" y="451" type="line"/>
      <point x="486" y="524"/>
      <point x="400" y="557"/>
      <point x="294" y="557" type="curve" smooth="yes"/>
      <point x="207" y="557"/>
      <point x="113" y="535"/>
      <point x="49" y="495" type="curve"/>
      <point x="121" y="346" type="line"/>
      <point x="157" y="373"/>
      <point x="210" y="389"/>
      <point x="262" y="389" type="curve" smooth="yes"/>
      <point x="335" y="389"/>
      <point x="365" y="358"/>
      <point x="365" y="307" type="curve" smooth="yes"/>
      <point x="365" y="200" type="line" smooth="yes"/>
      <point x="365" y="154"/>
      <point x="340" y="126"/>
      <point x="296" y="126" type="curve" smooth="yes"/>
      <point x="259" y="126"/>
      <point x="240" y="145"/>
      <point x="240" y="173" type="curve" smooth="yes"/>
      <point x="240" y="201"/>
      <point x="260" y="219"/>
      <point x="309" y="219" type="curve" smooth="yes"/>
      <point x="381" y="219" type="line"/>
      <point x="381" y="328" type="line"/>
      <point x="273" y="328" type="line" smooth="yes"/>
      <point x="103" y="328"/>
      <point x="23" y="267"/>
      <point x="23" y="168" type="curve" smooth="yes"/>
      <point x="23" y="61"/>
      <point x="115" y="-10"/>
    </contour>
  </outline>
</glyph>
<glyph name="b.sc" format="2">
  <advance width="674"/>
  <anchor x="339" y="0" name="bottom"/>
  <anchor x="339" y="582" name="top"/>
  <outline>
    <contour>
      <point x="53" y="0" type="line"/>
      <point x="399" y="0" type="line"/>
      <point x="566" y="0"/>
      <point x="656" y="60"/>
      <point x="656" y="162" type="curve" smooth="yes"/>
      <point x="656" y="263"/>
      <point x="571" y="325"/>
      <point x="438" y="325" type="curve"/>
      <point x="420" y="275" type="line"/>
      <point x="558" y="275"/>
      <point x="629" y="342"/>
      <point x="629" y="429" type="curve" smooth="yes"/>
      <point x="629" y="516"/>
      <point x="553" y="582"/>
      <point x="383" y="582" type="curve" smooth="yes"/>
      <point x="53" y="582" type="line"/>
    </contour>
    <contour>
      <point x="279" y="152" type="line"/>
      <point x="279" y="430" type="line"/>
      <point x="352" y="430" type="line" smooth="yes"/>
      <point x="384" y="430"/>
      <point x="399" y="417"/>
      <point x="399" y="395" type="curve" smooth="yes"/>
      <point x="399" y="374"/>
      <point x="384" y="362"/>
      <point x="352" y="362" type="curve" smooth="yes"/>
      <point x="263" y="362" type="line"/>
      <point x="263" y="224" type="line"/>
      <point x="381" y="224" type="line" smooth="yes"/>
      <point x="410" y="224"/>
      <point x="426" y="211"/>
      <point x="426" y="188" type="curve" smooth="yes"/>
      <point x="426" y="166"/>
      <point x="410" y="152"/>
      <point x="381" y="152" type="curve" smooth="yes"/>
    </contour>
  </outline>
</glyph>
<glyph name="breveinvertedcomb.narrow" format="2">
  <guideline x="195" y="671" angle="90"/>
  <anchor x="300" y="547" name="_top"/>
  <anchor x="300" y="750" name="top"/>
  <outline>
    <contour>
      <point x="116" y="607" type="curve"/>
      <point x="246" y="607" type="line"/>
      <point x="246" y="644"/>
      <point x="265" y="670"/>
      <point x="300" y="670" type="curve" smooth="yes"/>
      <point x="335" y="670"/>
      <point x="354" y="644"/>
      <point x="354" y="607" type="curve"/>
      <point x="484" y="607" type="line"/>
      <point x="482" y="712"/>
      <point x="406" y="777"/>
      <point x="300" y="777" type="curve" smooth="yes"/>
      <point x="194" y="777"/>
      <point x="118" y="712"/>
    </contour>
  </outline>
</glyph>
<glyph name="c.sc" format="2">
  <advance width="646"/>
  <anchor x="333" y="0" name="bottom"/>
  <anchor x="359" y="583" name="top"/>
  <outline>
    <contour>
      <point x="361" y="-15" type="curve" smooth="yes"/>
      <point x="479" y="-15"/>
      <point x="569" y="18"/>
      <point x="635" y="108" type="curve"/>
      <point x="488" y="233" type="line"/>
      <point x="453" y="187"/>
      <point x="415" y="165"/>
      <point x="370" y="165" type="curve" smooth="yes"/>
      <point x="304" y="165"/>
      <point x="256" y="211"/>
      <point x="256" y="291" type="curve" smooth="yes"/>
      <point x="256" y="371"/>
      <point x="304" y="417"/>
      <point x="370" y="417" type="curve" smooth="yes"/>
      <point x="415" y="417"/>
      <point x="453" y="395"/>
      <point x="488" y="349" type="curve"/>
      <point x="635" y="474" type="line"/>
      <point x="569" y="564"/>
      <point x="479" y="597"/>
      <point x="361" y="597" type="curve" smooth="yes"/>
      <point x="168" y="597"/>
      <point x="24" y="470"/>
      <point x="24" y="291" type="curve" smooth="yes"/>
      <point x="24" y="112"/>
      <point x="168" y="-15"/>
    </contour>
  </outline>
</glyph>
<glyph name="caroncomb.loclVIET" format="2">
  <anchor x="300" y="547" name="_top"/>
  <anchor x="300" y="707" name="top"/>
  <outline>
    <contour>
      <point x="205" y="607" type="line"/>
      <point x="395" y="607" type="line"/>
      <point x="524" y="737" type="line"/>
      <point x="384" y="737" type="line"/>
      <point x="246" y="637" type="line"/>
      <point x="354" y="637" type="line"/>
      <point x="216" y="737" type="line"/>
      <point x="76" y="737" type="line"/>
    </contour>
  </outline>
</glyph>
<glyph name="caroncomb.narrow" format="2">
  <anchor x="300" y="547" name="_top"/>
  <anchor x="300" y="750" name="top"/>
  <outline>
    <contour>
      <point x="206" y="607" type="line"/>
      <point x="394" y="607" type="line"/>
      <point x="499" y="767" type="line"/>
      <point x="359" y="767" type="line"/>
      <point x="244" y="637" type="line"/>
      <point x="356" y="637" type="line"/>
      <point x="241" y="767" type="line"/>
      <point x="101" y="767" type="line"/>
    </contour>
  </outline>
</glyph>
<glyph name="che-cy.loclBGR" format="2">
  <advance width="663"/>
  <anchor x="375" y="0" name="bottomleft"/>
  <outline>
    <contour>
      <point x="385" y="217" type="curve"/>
      <point x="385" y="374" type="line"/>
      <point x="385" y="347"/>
      <point x="364" y="310"/>
      <point x="317" y="310" type="curve" smooth="yes"/>
      <point x="274" y="310"/>
      <point x="249" y="327"/>
      <point x="249" y="383" type="curve" smooth="yes"/>
      <point x="249" y="547" type="line"/>
      <point x="24" y="547" type="line"/>
      <point x="24" y="373" type="line" smooth="yes"/>
      <point x="24" y="216"/>
      <point x="102" y="150"/>
      <point x="246" y="150" type="curve" smooth="yes"/>
      <point x="322" y="150"/>
      <point x="369" y="181"/>
    </contour>
    <contour>
      <point x="385" y="0" type="line"/>
      <point x="610" y="0" type="line"/>
      <point x="610" y="547" type="line"/>
      <point x="385" y="547" type="line"/>
    </contour>
  </outline>
</glyph>
<glyph name="descender-cy.case.short" format="2">
  <advance width="367"/>
  <anchor x="31" y="0" name="_bottomleft"/>
  <outline>
    <contour>
      <point x="98" y="-137" type="line"/>
      <point x="314" y="-137" type="line"/>
      <point x="314" y="183" type="line"/>
      <point x="31" y="183" type="line"/>
      <point x="31" y="0" type="line"/>
      <point x="149" y="0" type="line"/>
      <point x="98" y="51" type="line"/>
    </contour>
  </outline>
</glyph>
<glyph name="dotaccentcomb.loclVIET" format="2">
  <anchor x="300" y="547" name="_top"/>
  <anchor x="300" y="740" name="top"/>
  <outline>
    <contour>
      <point x="300" y="597" type="curve" smooth="yes"/>
      <point x="351" y="597"/>
      <point x="390" y="631"/>
      <point x="390" y="684" type="curve" smooth="yes"/>
      <point x="390" y="737"/>
      <point x="351" y="773"/>
      <point x="300" y="773" type="curve" smooth="yes"/>
      <point x="249" y="773"/>
      <point x="210" y="737"/>
      <point x="210" y="684" type="curve" smooth="yes"/>
      <point x="210" y="631"/>
      <point x="249" y="597"/>
    </contour>
  </outline>
</glyph>
<glyph name="downArrow.case" format="2">
  <advance width="600"/>
  <outline>
    <contour>
      <point x="548" y="388" type="line"/>
      <point x="300" y="246" type="line"/>
      <point x="52" y="388" type="line"/>
      <point x="52" y="225" type="line"/>
      <point x="300" y="65" type="line"/>
      <point x="548" y="225" type="line"/>
    </contour>
    <contour>
      <point x="386" y="587" type="line"/>
      <point x="214" y="587" type="line"/>
      <point x="214" y="219" type="line"/>
      <point x="386" y="219" type="line"/>
    </contour>
  </outline>
</glyph>
<glyph name="e.ss01" format="2">
  <advance width="653"/>
  <guideline x="371" y="354" angle="190.7905"/>
  <anchor x="331" y="0" name="bottom"/>
  <anchor x="450" y="0" name="ogonek"/>
  <anchor x="331" y="547" name="top"/>
  <outline>
    <contour>
      <point x="352" y="-10" type="curve" smooth="yes"/>
      <point x="460" y="-10"/>
      <point x="537" y="20"/>
      <point x="591" y="78" type="curve"/>
      <point x="473" y="197" type="line"/>
      <point x="437" y="170"/>
      <point x="409" y="157"/>
      <point x="359" y="157" type="curve" smooth="yes"/>
      <point x="280" y="157"/>
      <point x="242" y="193"/>
      <point x="242" y="288" type="curve" smooth="yes"/>
      <point x="242" y="366"/>
      <point x="279" y="403"/>
      <point x="336" y="403" type="curve" smooth="yes"/>
      <point x="390" y="403"/>
      <point x="423" y="364"/>
      <point x="423" y="311" type="curve"/>
      <point x="498" y="362" type="line"/>
      <point x="212" y="306" type="line"/>
      <point x="212" y="196" type="line"/>
      <point x="632" y="277" type="line"/>
      <point x="632" y="459"/>
      <point x="494" y="557"/>
      <point x="335" y="557" type="curve" smooth="yes"/>
      <point x="155" y="557"/>
      <point x="21" y="440"/>
      <point x="21" y="274" type="curve" smooth="yes"/>
      <point x="21" y="111"/>
      <point x="151" y="-10"/>
    </contour>
  </outline>
</glyph>
<glyph name="eight.tf" format="2">
  <advance width="700"/>
  <outline>
    <contour>
      <point x="350" y="-16" type="curve" smooth="yes"/>
      <point x="538" y="-16"/>
      <point x="669" y="72"/>
      <point x="669" y="208" type="curve" smooth="yes"/>
      <point x="669" y="344"/>
      <point x="533" y="422"/>
      <point x="350" y="422" type="curve" smooth="yes"/>
      <point x="167" y="422"/>
      <point x="31" y="344"/>
      <point x="31" y="208" type="curve" smooth="yes"/>
      <point x="31" y="72"/>
      <point x="162" y="-16"/>
    </contour>
    <contour>
      <point x="350" y="143" type="curve" smooth="yes"/>
      <point x="302" y="143"/>
      <point x="268" y="171"/>
      <point x="268" y="216" type="curve" smooth="yes"/>
      <point x="268" y="261"/>
      <point x="302" y="289"/>
      <point x="350" y="289" type="curve" smooth="yes"/>
      <point x="398" y="289"/>
      <point x="432" y="261"/>
      <point x="432" y="216" type="curve" smooth="yes"/>
      <point x="432" y="171"/>
      <point x="398" y="143"/>
    </contour>
    <contour>
      <point x="350" y="308" type="curve" smooth="yes"/>
      <point x="518" y="308"/>
      <point x="644" y="380"/>
      <point x="644" y="507" type="curve" smooth="yes"/>
      <point x="644" y="634"/>
      <point x="523" y="716"/>
      <point x="350" y="716" type="curve" smooth="yes"/>
      <point x="177" y="716"/>
      <point x="56" y="634"/>
      <point x="56" y="507" type="curve" smooth="yes"/>
      <point x="56" y="380"/>
      <point x="182" y="308"/>
    </contour>
    <contour>
      <point x="350" y="437" type="curve" smooth="yes"/>
      <point x="316" y="437"/>
      <point x="289" y="460"/>
      <point x="289" y="497" type="curve" smooth="yes"/>
      <point x="289" y="534"/>
      <point x="316" y="557"/>
      <point x="350" y="557" type="curve" smooth="yes"/>
      <point x="384" y="557"/>
      <point x="411" y="534"/>
      <point x="411" y="497" type="curve" smooth="yes"/>
      <point x="411" y="460"/>
      <point x="384" y="437"/>
    </contour>
  </outline>
</glyph>
<glyph name="exclamdown.sc" format="2">
  <advance width="314"/>
  <outline>
    <contour>
      <point x="247" y="334" type="line"/>
      <point x="67" y="334" type="line"/>
      <point x="27" y="0" type="line"/>
      <point x="287" y="0" type="line"/>
    </contour>
    <contour>
      <point x="157" y="592" type="curve" smooth="yes"/>
      <point x="73" y="592"/>
      <point x="25" y="538"/>
      <point x="25" y="482" type="curve" smooth="yes"/>
      <point x="25" y="425"/>
      <point x="73" y="374"/>
      <point x="157" y="374" type="curve" smooth="yes"/>
      <point x="241" y="374"/>
      <point x="289" y="425"/>
      <point x="289" y="482" type="curve" smooth="yes"/>
      <point x="289" y="538"/>
      <point x="241" y="592"/>
    </contour>
  </outline>
</glyph>
<glyph name="f.ss01" format="2">
  <advance width="401"/>
  <outline>
    <contour>
      <point x="50" y="0" type="line"/>
      <point x="276" y="0" type="line"/>
      <point x="276" y="399" type="line"/>
      <point x="269" y="492" type="line"/>
      <point x="269" y="518" type="line" smooth="yes"/>
      <point x="269" y="562"/>
      <point x="291" y="581"/>
      <point x="323" y="581" type="curve" smooth="yes"/>
      <point x="341" y="581"/>
      <point x="359" y="575"/>
      <point x="374" y="568" type="curve"/>
      <point x="428" y="725" type="line"/>
      <point x="395" y="743"/>
      <point x="342" y="752"/>
      <point x="294" y="752" type="curve" smooth="yes"/>
      <point x="138" y="752"/>
      <point x="50" y="661"/>
      <point x="50" y="520" type="curve" smooth="yes"/>
    </contour>
    <contour>
      <point x="175" y="352" type="line"/>
      <point x="388" y="352" type="line"/>
      <point x="388" y="517" type="line"/>
      <point x="175" y="517" type="line"/>
    </contour>
  </outline>
</glyph>
